<?xml version="1.0" encoding="utf-8"?>
<!DOCTYPE svg PUBLIC "-//W3C//DTD SVG 1.1//EN" "http://www.w3.org/Graphics/SVG/1.1/DTD/svg11.dtd">
<svg version="1.1" id="logo-deltares" xmlns="http://www.w3.org/2000/svg" xmlns:xlink="http://www.w3.org/1999/xlink" x="0px" y="0px"
	 width="91.438px" height="42.578px" viewBox="0 0 91.438 42.578" enable-background="new 0 0 91.438 42.578" xml:space="preserve">
<g>
	<g>
		<path fill="#7F99AA" d="M29.417,3.472c-0.028-0.034-0.059-0.067-0.089-0.101C29.358,3.405,29.388,3.438,29.417,3.472
			C29.417,3.473,29.417,3.473,29.417,3.472z"/>
		<path fill="#7F99AA" d="M29.586,3.696c-0.021-0.029-0.042-0.057-0.063-0.086c0.021,0.029,0.044,0.058,0.064,0.088
			C29.587,3.697,29.586,3.696,29.586,3.696z"/>
		<path fill="#7F99AA" d="M29.966,4.385c-0.005-0.012-0.011-0.023-0.016-0.035C29.957,4.362,29.961,4.374,29.966,4.385L29.966,4.385
			z"/>
		<path fill="#7F99AA" d="M29.185,3.223c-0.02-0.02-0.039-0.037-0.059-0.056C29.146,3.186,29.166,3.205,29.185,3.223L29.185,3.223z"
			/>
		<path fill="#7F99AA" d="M26.212,0.048c2.08,0.035,3.849,0.559,5.078,1.683C30.061,0.607,28.292,0.083,26.212,0.048z"/>
		<path fill="#7F99AA" d="M91.429,10.57c0.007-0.476-0.11-0.981-0.375-1.504c-0.421-0.829-1.418-1.087-2.271-1.36
			c-0.775-0.248-1.433-0.512-1.433-1.232c0-0.053,0.005-0.102,0.013-0.148c0.049-0.31,0.248-0.512,0.539-0.64
			c0.005-0.003,0.012-0.005,0.018-0.007s0.012-0.006,0.018-0.008c0.392-0.133,0.973-0.162,1.707-0.17
			c0.172-0.001,0.352-0.002,0.541-0.002V5.5h0.003c0.276,0,0.499-0.224,0.499-0.5V4.742V4.079V3.675
			c0.001-0.012,0.001-0.024,0.002-0.036c-0.494-0.134-0.983-0.205-1.459-0.221c-0.051-0.002-0.102-0.004-0.152-0.004
			c-0.012,0-0.023,0-0.035,0c-0.035,0-0.07,0-0.105,0c-2.352,0.006-4.271,0.804-4.271,3.244c0,0.004,0,0.01,0,0.014
			c-0.007,0.475,0.109,0.981,0.375,1.504c0.42,0.83,1.417,1.086,2.271,1.36c0.775,0.249,1.433,0.513,1.433,1.232
			c0,0.053-0.004,0.103-0.012,0.149c-0.049,0.309-0.249,0.512-0.539,0.639c-0.006,0.003-0.012,0.005-0.018,0.008
			c-0.006,0.002-0.012,0.004-0.018,0.007c-0.393,0.134-0.973,0.163-1.707,0.169c-0.582-0.031-1.144-0.107-1.503-0.139
			c0,0.68,0,1.359,0,2.037c0.646,0.104,1.294,0.17,1.916,0.186c0.052,0.001,0.103,0.002,0.153,0.003
			c0.012,0.001,0.023,0.001,0.034,0.001c0.036,0,0.071-0.001,0.106-0.001c2.351-0.006,4.271-0.804,4.271-3.243
			C91.429,10.579,91.429,10.575,91.429,10.57z"/>
		<path fill="#7F99AA" d="M33.113,7.393c0.013-0.212,0.021-0.418,0.023-0.619c0.005-0.43-0.015-0.836-0.058-1.221
			c-0.052-0.46-0.137-0.889-0.252-1.286c-0.049-0.166-0.103-0.327-0.162-0.481c-0.021-0.059-0.043-0.115-0.066-0.171
			c-0.096-0.229-0.202-0.445-0.32-0.65c-0.071-0.124-0.146-0.243-0.227-0.358c-0.223-0.325-0.479-0.616-0.762-0.875
			c-1.229-1.124-2.998-1.647-5.078-1.683c-0.115-0.002-0.23-0.003-0.346-0.002c-0.025,0-0.05,0.001-0.074,0.001
			c-1.137,0.016-2.357,0.169-3.629,0.443v13.072c1.612,0.291,3.147,0.358,4.53,0.191c0.001,0,0.001,0,0.003,0
			c0.152-0.02,0.303-0.04,0.451-0.064c0.004,0,0.006-0.001,0.008-0.002c0.147-0.023,0.293-0.05,0.436-0.08
			c0.005,0,0.01-0.002,0.016-0.003c0.141-0.029,0.278-0.062,0.414-0.096c0.008-0.002,0.016-0.005,0.023-0.007
			c0.133-0.034,0.265-0.07,0.395-0.109c0.01-0.004,0.021-0.008,0.031-0.012c0.127-0.039,0.25-0.08,0.371-0.123
			c0.015-0.006,0.027-0.011,0.041-0.016c0.118-0.043,0.234-0.088,0.35-0.137c0.016-0.007,0.032-0.016,0.049-0.022
			c0.11-0.047,0.219-0.096,0.325-0.147c0.019-0.01,0.038-0.02,0.057-0.029c0.103-0.051,0.204-0.104,0.303-0.158
			c0.021-0.012,0.042-0.025,0.063-0.037c0.094-0.055,0.188-0.11,0.279-0.169c0.023-0.015,0.047-0.032,0.07-0.048
			c0.087-0.057,0.174-0.115,0.257-0.176c0.026-0.02,0.05-0.04,0.075-0.059c0.08-0.061,0.158-0.121,0.234-0.184
			c0.027-0.023,0.053-0.048,0.08-0.071c0.071-0.062,0.143-0.124,0.211-0.189c0.029-0.026,0.055-0.056,0.082-0.083
			c0.065-0.064,0.13-0.129,0.191-0.195c0.029-0.033,0.057-0.066,0.084-0.1c0.059-0.064,0.115-0.13,0.17-0.198
			c0.03-0.038,0.057-0.077,0.086-0.115c0.051-0.066,0.102-0.132,0.148-0.201c0.029-0.042,0.057-0.088,0.086-0.132
			c0.043-0.067,0.088-0.133,0.129-0.203c0.028-0.048,0.054-0.099,0.081-0.148c0.038-0.068,0.077-0.135,0.112-0.205
			c0.027-0.054,0.051-0.111,0.076-0.166c0.032-0.068,0.065-0.136,0.096-0.206c0.025-0.062,0.047-0.126,0.071-0.188
			c0.026-0.067,0.054-0.134,0.077-0.203c0.024-0.07,0.045-0.143,0.066-0.214c0.02-0.065,0.042-0.13,0.061-0.196
			c0.021-0.081,0.04-0.166,0.06-0.248c0.015-0.061,0.03-0.12,0.044-0.182c0.02-0.098,0.035-0.199,0.053-0.301
			c0.008-0.049,0.019-0.098,0.025-0.148c0.023-0.153,0.041-0.309,0.055-0.469C33.099,7.606,33.106,7.499,33.113,7.393z
			 M30.388,7.192c-0.002,0.031-0.005,0.062-0.008,0.092c-0.004,0.055-0.009,0.108-0.015,0.162c-0.004,0.035-0.009,0.07-0.013,0.105
			c-0.008,0.064-0.016,0.13-0.025,0.195c-0.01,0.062-0.02,0.124-0.03,0.186c-0.008,0.043-0.017,0.087-0.025,0.131
			c-0.009,0.043-0.018,0.088-0.026,0.131c-0.01,0.043-0.02,0.084-0.029,0.125c-0.012,0.048-0.023,0.096-0.035,0.143
			c-0.01,0.036-0.02,0.072-0.029,0.108c-0.021,0.077-0.045,0.155-0.068,0.23c-0.01,0.028-0.02,0.056-0.029,0.085
			c-0.019,0.053-0.037,0.106-0.057,0.159c-0.012,0.031-0.023,0.062-0.035,0.093c-0.021,0.052-0.042,0.104-0.064,0.154
			c-0.011,0.025-0.021,0.053-0.033,0.078c-0.033,0.072-0.066,0.146-0.103,0.216c-0.008,0.015-0.017,0.03-0.024,0.046
			c-0.029,0.057-0.061,0.113-0.092,0.168c-0.014,0.022-0.026,0.045-0.04,0.066c-0.029,0.05-0.06,0.098-0.091,0.145
			c-0.012,0.02-0.025,0.039-0.038,0.058c-0.044,0.063-0.089,0.126-0.134,0.185c-0.006,0.006-0.011,0.012-0.016,0.019
			c-0.042,0.053-0.086,0.104-0.129,0.153c-0.016,0.017-0.031,0.033-0.047,0.049c-0.037,0.039-0.074,0.077-0.111,0.113
			c-0.017,0.016-0.031,0.031-0.048,0.045c-0.054,0.049-0.106,0.095-0.163,0.138c-1.049,0.81-2.34,0.899-4.053,0.751V2.343
			c0,0,2.467-0.562,4.07,0.595v0.001c0.032,0.022,0.063,0.048,0.095,0.072c0.001,0.001,0.001,0.001,0.001,0.001
			c0.018,0.014,0.035,0.025,0.052,0.039c0.009,0.008,0.016,0.015,0.023,0.021c0.001,0,0.001,0,0.001,0
			c0.036,0.031,0.072,0.062,0.105,0.093c0.002,0.001,0.002,0.001,0.002,0.002c0.02,0.019,0.039,0.036,0.059,0.056l0,0
			c0.049,0.048,0.098,0.098,0.143,0.148c0.03,0.033,0.061,0.066,0.089,0.101c0,0.001,0.001,0.001,0.001,0.001
			c0.02,0.023,0.039,0.049,0.059,0.073c0.016,0.021,0.031,0.042,0.047,0.063c0.021,0.029,0.043,0.057,0.063,0.086
			c0,0,0.001,0.001,0.001,0.002c0.008,0.01,0.016,0.021,0.023,0.032c0.016,0.022,0.029,0.046,0.043,0.069
			c0.019,0.027,0.037,0.057,0.055,0.086c0.01,0.016,0.021,0.031,0.03,0.048c0.009,0.017,0.019,0.032,0.028,0.048
			c0.004,0.01,0.009,0.02,0.014,0.027c0.004,0.008,0.008,0.015,0.012,0.021c0.025,0.046,0.051,0.092,0.073,0.138
			c0.013,0.024,0.024,0.049,0.036,0.073c0.017,0.037,0.033,0.073,0.049,0.109c0.005,0.012,0.011,0.023,0.016,0.035v0.001
			c0.025,0.06,0.051,0.12,0.074,0.181c0.004,0.012,0.009,0.024,0.014,0.037c0.096,0.257,0.171,0.527,0.227,0.807
			c0.003,0.012,0.005,0.025,0.007,0.037c0.014,0.067,0.025,0.135,0.037,0.202c0,0.003,0,0.007,0.001,0.01
			c0.032,0.21,0.056,0.423,0.067,0.638c0.001,0.02,0.002,0.039,0.004,0.058c0.002,0.063,0.005,0.127,0.006,0.19
			c0,0.019,0,0.037,0.001,0.056C30.407,6.797,30.401,6.995,30.388,7.192z"/>
		<polygon fill="#7F99AA" points="29.126,3.167 29.125,3.166 29.125,3.166 		"/>
		<polygon fill="#7F99AA" points="29.019,3.073 29.018,3.073 29.019,3.073 		"/>
		<path fill="#7F99AA" d="M30.054,4.604c0.096,0.257,0.171,0.527,0.227,0.807C30.226,5.131,30.15,4.861,30.054,4.604z"/>
		<path fill="#7F99AA" d="M30.326,5.66c0.032,0.21,0.056,0.423,0.067,0.638C30.382,6.083,30.358,5.87,30.326,5.66z"/>
		<path fill="#7F99AA" d="M29.476,3.546c-0.02-0.024-0.039-0.05-0.059-0.073c0.036,0.045,0.07,0.091,0.105,0.137
			C29.507,3.588,29.492,3.567,29.476,3.546z"/>
		<path fill="#7F99AA" d="M29.781,4.008c0.004,0.008,0.008,0.015,0.012,0.021C29.789,4.023,29.785,4.016,29.781,4.008z"/>
		<path fill="#7F99AA" d="M29.654,3.799c0.02,0.028,0.037,0.057,0.055,0.086C29.691,3.856,29.672,3.827,29.654,3.799z"/>
		<path fill="#7F99AA" d="M29.767,3.981c-0.01-0.016-0.02-0.031-0.028-0.048c-0.01-0.017-0.021-0.032-0.03-0.048
			c0.025,0.041,0.049,0.082,0.072,0.123C29.776,4,29.771,3.991,29.767,3.981z"/>
		<path fill="#7F99AA" d="M29.611,3.73c-0.008-0.011-0.016-0.022-0.023-0.032c0.023,0.033,0.045,0.066,0.066,0.102
			C29.64,3.776,29.626,3.752,29.611,3.73z"/>
		<path fill="#7F99AA" d="M29.902,4.241c-0.012-0.024-0.023-0.049-0.036-0.073c-0.022-0.046-0.048-0.092-0.073-0.138
			c0.057,0.104,0.109,0.211,0.158,0.32C29.935,4.314,29.918,4.278,29.902,4.241z"/>
		<path fill="#7F99AA" d="M28.942,3.011c-0.031-0.024-0.063-0.05-0.095-0.072V2.938C28.879,2.961,28.911,2.987,28.942,3.011
			L28.942,3.011z"/>
		<path fill="#7F99AA" d="M29.018,3.073c-0.008-0.007-0.015-0.014-0.023-0.021c-0.017-0.014-0.034-0.025-0.052-0.039
			c0.015,0.012,0.029,0.023,0.043,0.035C28.998,3.055,29.007,3.064,29.018,3.073z"/>
		<path fill="#7F99AA" d="M29.019,3.073C29.019,3.073,29.019,3.073,29.019,3.073c-0.012-0.009-0.021-0.018-0.033-0.025
			C28.998,3.055,29.007,3.064,29.019,3.073z"/>
		<path fill="#7F99AA" d="M28.986,3.047c-0.014-0.012-0.028-0.023-0.043-0.035c0,0,0,0-0.001-0.001
			C28.957,3.023,28.972,3.036,28.986,3.047z"/>
		<polygon fill="#7F99AA" points="28.943,3.012 28.942,3.011 28.942,3.011 		"/>
	</g>
	<path fill="#7F99AA" d="M47.721,9.989v-9.91h-1.893c-0.387,0-0.701,0.314-0.701,0.701v10.092l0,0l0,0
		c0,2.52,1.701,3.422,4.241,2.682v-1.826C47.937,12.116,47.721,11.2,47.721,9.989z"/>
	<path fill="#7F99AA" d="M55.392,5.675c0.283,0,0.514-0.229,0.514-0.513V3.777h-2.381V0.079h-1.893
		c-0.387,0-0.701,0.314-0.701,0.701v10.092l0,0c0,2.52,2.4,3.422,4.939,2.682v-1.826c-1.791,0.492-2.346-0.219-2.346-1.738V5.675
		H55.392z"/>
	<g>
		<path fill="#7F99AA" d="M66.188,13.338c0-3.146,0-6.292,0-9.438C54.738-0.168,53.462,18,66.188,13.338z M63.678,11.59
			c-5.462,2.008-4.845-7.664,0-5.926C63.678,7.639,63.678,9.615,63.678,11.59z"/>
	</g>
	<g>
		<path fill="#7F99AA" d="M43.172,8.474c-0.002,0.015-0.005,0.029-0.008,0.044C43.168,8.504,43.17,8.489,43.172,8.474z"/>
		<g>
			<path fill="#7F99AA" d="M34.569,7.713c-0.193,1.739,0.119,3.932,1.295,5c1.385,1.258,4.502,1.401,6.76,0.557
				c0-0.648,0-1.297,0-1.945c-1.868,0.744-4.865,0.754-5.464-1.154c-0.008-0.024-0.017-0.047-0.023-0.072
				c-0.002-0.006-0.003-0.012-0.005-0.018c-0.111-0.364-0.154-0.775-0.146-1.163h3.814h1.599l0.002-0.002h0.264
				c0.245,0,0.447-0.17,0.499-0.397c0.003-0.015,0.006-0.029,0.008-0.044C44.15,2.286,35.218,1.866,34.569,7.713z M37.008,7.342
				c0-0.002,0.001-0.005,0.001-0.008c0.276-2.588,3.938-2.518,3.86,0.008H37.008z"/>
		</g>
	</g>
	<g>
		<path fill="#7F99AA" d="M83.084,8.474c-0.003,0.015-0.005,0.029-0.007,0.044C83.081,8.504,83.081,8.489,83.084,8.474z"/>
		<g>
			<path fill="#7F99AA" d="M74.481,7.713c-0.193,1.739,0.121,3.932,1.297,5c1.383,1.258,4.5,1.401,6.76,0.557
				c0-0.648,0-1.297,0-1.945c-1.869,0.744-4.865,0.754-5.465-1.154c-0.008-0.024-0.017-0.047-0.023-0.072
				c-0.002-0.006-0.004-0.012-0.006-0.018c-0.109-0.364-0.152-0.775-0.145-1.163h3.814h1.598l0.004-0.002h0.264
				c0.242,0,0.445-0.17,0.498-0.397c0.002-0.015,0.004-0.029,0.007-0.044C84.062,2.286,75.132,1.866,74.481,7.713z M76.921,7.342
				c0-0.002,0-0.005,0.001-0.008c0.276-2.588,3.938-2.518,3.86,0.008H76.921z"/>
		</g>
	</g>
	<path fill="#7F99AA" d="M72.23,3.777c-1.911,0-3.463,1.542-3.479,3.45v6.32h2.594V7.762l0,0V7.01
		c0.007-0.735,0.601-1.329,1.335-1.335h0.738c0.283,0,0.514-0.229,0.514-0.513V3.777H72.23z"/>
	<g>
		<path fill="#0167A2" d="M31.755,24.736c0.107-0.002,0.313-0.012,0.524-0.15c0.216-0.137,0.387-0.43,0.38-0.803
			c0-0.234-0.063-0.441-0.169-0.596c-0.161-0.237-0.39-0.344-0.561-0.396c-0.138-0.04-0.25-0.049-0.301-0.051
			c-0.009,0-0.018,0-0.026,0c-0.002,0-0.002,0-0.004,0l0,0c-0.039,0.002-0.344,0-0.682,0.172c-0.34,0.164-0.697,0.576-0.687,1.218
			c0,0.061,0,0.107,0,0.15c0,0.244,0,0.217,0,0.352c0,0.029,0,0.059,0,0.096c-0.011,0.641,0.347,1.053,0.687,1.217
			c0.338,0.174,0.643,0.172,0.682,0.172c0.004,0,0.006,0,0.01,0h0.922v-0.613h-0.934c-0.003,0-0.012-0.002-0.027-0.002
			c-0.023-0.002-0.056-0.006-0.095-0.012c-0.078-0.014-0.181-0.041-0.274-0.09c-0.183-0.107-0.342-0.236-0.354-0.666h0.851
			C31.71,24.736,31.729,24.736,31.755,24.736z M31.2,23.459c0.094-0.049,0.196-0.078,0.274-0.09
			c0.039-0.008,0.071-0.012,0.095-0.012c0.007-0.002,0.025-0.002,0.043-0.002c0.001,0,0.001,0,0.002,0
			c0.045,0.002,0.18,0.023,0.27,0.084c0.087,0.064,0.152,0.115,0.16,0.344c-0.008,0.223-0.061,0.252-0.105,0.291
			c-0.049,0.035-0.174,0.047-0.215,0.045h-0.878C30.858,23.693,31.019,23.566,31.2,23.459z"/>
		<path fill="#0167A2" d="M22.348,22.749c-0.003-0.001-0.006-0.001-0.009-0.001c-0.039,0.002-0.344,0-0.682,0.173
			c-0.34,0.164-0.697,0.576-0.688,1.218c0,1.002,0,1.074,0,1.074c0,0.002,0,0.004,0,0.006c0.002,0.057,0.003,0.268,0.128,0.504
			c0.115,0.236,0.417,0.477,0.831,0.477c0.01,0,0.018,0,0.027,0c0.435-0.004,0.789-0.213,1.051-0.416c0,0.014,0,0.029,0,0.041
			c-0.011,0.436-0.172,0.564-0.355,0.674c-0.094,0.049-0.195,0.076-0.273,0.09c-0.039,0.006-0.072,0.01-0.095,0.012
			c-0.017,0-0.024,0-0.028,0h-1.079v0.615h1.068c0.003,0,0.006,0,0.009,0c0.039-0.002,0.344,0.002,0.682-0.172
			c0.34-0.164,0.697-0.576,0.688-1.219c0-0.607,0-1.699,0-2.461c0-0.25,0-0.464,0-0.615h-0.615H22.348z M23.007,24.936
			c-0.004,0.004-0.006,0.008-0.012,0.014c-0.053,0.063-0.206,0.234-0.404,0.379c-0.197,0.148-0.434,0.258-0.635,0.256
			c-0.233-0.01-0.262-0.072-0.317-0.152c-0.042-0.074-0.053-0.178-0.054-0.207l0,0v-0.012c0,0,0-0.072,0-1.074
			c0.011-0.436,0.172-0.564,0.355-0.674c0.094-0.049,0.195-0.076,0.273-0.09c0.039-0.006,0.072-0.01,0.095-0.012
			c0.017,0,0.024,0,0.028,0h0.67C23.007,23.826,23.007,24.41,23.007,24.936z"/>
		<path fill="#0167A2" d="M0.017,25.209c0,0.484,0.392,0.875,0.875,0.875h1.946v-0.621H1.017c-0.208,0-0.377-0.17-0.377-0.377
			v-1.063h2.199V23.4H0.639v-1.212h2.199v-0.621H0.018L0.017,25.209z"/>
		<path fill="#0167A2" d="M43.402,25.086l-0.003-3.519H42.78v3.642c0,0.484,0.393,0.875,0.876,0.875h1.566v-0.621h-1.441
			C43.572,25.463,43.402,25.293,43.402,25.086z"/>
		<polygon fill="#0167A2" points="14.074,21.561 13.465,21.561 13.465,22.176 14.074,22.176 14.074,26.104 14.688,26.104 
			14.688,21.561 14.583,21.561 		"/>
		<polygon fill="#0167A2" points="33.57,21.561 32.962,21.561 32.962,22.176 33.57,22.176 33.57,26.104 34.186,26.104 
			34.186,21.561 34.079,21.561 		"/>
		<path fill="#0167A2" d="M8.931,22.749H8.301c-0.003-0.001-0.006-0.001-0.009-0.001c-0.04,0.002-0.345,0-0.682,0.173
			c-0.34,0.164-0.697,0.576-0.687,1.218c0,1.002,0,1.074,0,1.074c0,0.002,0,0.004,0,0.006c0.001,0.057,0.002,0.268,0.127,0.504
			c0.115,0.236,0.416,0.477,0.832,0.477c0.009,0,0.018,0,0.026,0c0.419-0.004,0.762-0.197,1.021-0.393v0.297h0.615v-3.356
			L8.931,22.749L8.931,22.749z M8.931,24.971c-0.064,0.072-0.206,0.225-0.386,0.357c-0.198,0.148-0.434,0.258-0.636,0.256
			c-0.233-0.01-0.261-0.072-0.317-0.152c-0.042-0.074-0.053-0.178-0.054-0.207l0,0v-0.012c0,0,0-0.072,0-1.074
			c0.011-0.436,0.171-0.564,0.355-0.674c0.094-0.049,0.196-0.076,0.274-0.09c0.039-0.006,0.072-0.01,0.094-0.012
			c0.016,0,0.024,0,0.028,0h0.64V24.971z"/>
		<path fill="#0167A2" d="M39.464,22.749h-0.629c-0.004-0.001-0.006-0.001-0.01-0.001c-0.039,0.002-0.344,0-0.682,0.173
			c-0.34,0.164-0.697,0.576-0.687,1.218c0,1.002,0,1.074,0,1.074c0,0.002,0,0.004,0,0.006c0.001,0.057,0.003,0.268,0.128,0.504
			c0.115,0.236,0.416,0.477,0.832,0.477c0.008,0,0.017,0,0.025,0c0.419-0.004,0.763-0.197,1.021-0.393v0.297h0.615v-3.356
			L39.464,22.749L39.464,22.749z M39.464,24.971c-0.064,0.072-0.206,0.225-0.386,0.357c-0.198,0.148-0.435,0.258-0.636,0.256
			c-0.232-0.01-0.261-0.072-0.316-0.152c-0.042-0.074-0.053-0.178-0.055-0.207l0,0v-0.012c0,0,0-0.072,0-1.074
			c0.012-0.436,0.172-0.564,0.355-0.674c0.094-0.049,0.196-0.076,0.274-0.09c0.039-0.006,0.071-0.01,0.095-0.012
			c0.016,0,0.024,0,0.027,0h0.641V24.971z"/>
		<path fill="#0167A2" d="M12.29,22.653c-0.008,0-0.017,0-0.026,0c-0.443,0.004-0.801,0.221-1.064,0.426v-1.518h-0.615v4.542H11.2
			l0,0h0.672c0.003,0,0.006,0,0.009,0c0.04-0.002,0.344,0,0.682-0.172c0.34-0.164,0.697-0.576,0.687-1.219c0-1.002,0-1.074,0-1.074
			c0-0.002,0-0.004,0-0.006c-0.002-0.057-0.002-0.268-0.128-0.505C13.007,22.893,12.706,22.653,12.29,22.653z M12.635,23.627v0.012
			c0,0,0,0.072,0,1.074c-0.011,0.436-0.171,0.564-0.355,0.674c-0.094,0.049-0.196,0.076-0.274,0.09
			c-0.039,0.006-0.072,0.01-0.094,0.012c-0.016,0-0.025,0-0.028,0H11.2v-1.566l0.005,0.004c0,0,0.005-0.006,0.02-0.023
			c0.052-0.063,0.206-0.234,0.403-0.379c0.198-0.148,0.434-0.258,0.636-0.256c0.232,0.01,0.261,0.07,0.316,0.152
			c0.042,0.072,0.053,0.178,0.054,0.205V23.627z"/>
		<polygon fill="#0167A2" points="15.817,22.763 15.21,22.763 15.21,23.379 15.817,23.379 15.817,26.104 16.433,26.104 
			16.433,22.763 16.327,22.763 		"/>
		<rect x="15.817" y="21.561" fill="#0167A2" width="0.615" height="0.614"/>
		<polygon fill="#0167A2" points="45.937,22.763 45.328,22.763 45.328,23.379 45.937,23.379 45.937,26.104 46.551,26.104 
			46.551,22.763 46.445,22.763 		"/>
		<rect x="45.937" y="21.561" fill="#0167A2" width="0.614" height="0.614"/>
		<path fill="#0167A2" d="M5.625,22.851c-0.151-0.103-0.351-0.163-0.577-0.163c-0.407,0.007-0.727,0.211-0.971,0.428v-0.368H3.462
			v3.356h0.615v-2.063c0.066-0.096,0.201-0.277,0.369-0.432c0.193-0.184,0.423-0.311,0.602-0.307
			c0.124,0.002,0.188,0.029,0.235,0.059c0.068,0.045,0.114,0.125,0.141,0.211c0.013,0.041,0.02,0.08,0.023,0.105
			c0.002,0.014,0.002,0.023,0.003,0.029l0,0.002v2.395h0.615v-2.398c-0.002-0.029-0.001-0.244-0.125-0.494
			C5.877,23.088,5.778,22.954,5.625,22.851z"/>
		<path fill="#0167A2" d="M19.636,22.851c-0.151-0.103-0.351-0.163-0.577-0.163c-0.407,0.007-0.727,0.211-0.972,0.428v-0.368h-0.615
			v3.356h0.615v-2.063c0.066-0.096,0.201-0.277,0.369-0.432c0.193-0.184,0.424-0.311,0.603-0.307
			c0.124,0.002,0.188,0.029,0.235,0.059c0.068,0.045,0.114,0.125,0.141,0.211c0.013,0.041,0.02,0.08,0.023,0.105
			c0.002,0.014,0.002,0.023,0.002,0.029l0.001,0.002v2.395h0.614v-2.398c-0.002-0.029-0.001-0.244-0.125-0.494
			C19.888,23.088,19.788,22.954,19.636,22.851z"/>
		<path fill="#0167A2" d="M50.823,25.502c-0.021-0.002-0.055-0.006-0.094-0.012c-0.078-0.014-0.181-0.041-0.274-0.09
			c-0.183-0.107-0.343-0.236-0.354-0.666h0.852c0.014,0.002,0.033,0.002,0.057,0.002c0.107-0.002,0.313-0.012,0.525-0.15
			c0.216-0.137,0.387-0.43,0.379-0.803c0.002-0.234-0.063-0.441-0.168-0.596c-0.16-0.237-0.389-0.344-0.561-0.396
			c-0.139-0.04-0.25-0.049-0.301-0.051c-0.009,0-0.018,0-0.027,0h-0.002h-0.001c-0.039,0.002-0.345,0-0.682,0.172
			c-0.341,0.164-0.697,0.576-0.687,1.218c0,0.061,0,0.107,0,0.15c0,0.244,0,0.217,0,0.352c0,0.029,0,0.059,0,0.096
			c-0.011,0.641,0.346,1.053,0.687,1.217c0.337,0.174,0.643,0.172,0.682,0.172c0.003,0,0.007,0,0.009,0h0.923v-0.613h-0.934
			C50.849,25.504,50.839,25.502,50.823,25.502z M50.455,23.459c0.094-0.049,0.196-0.078,0.274-0.09
			c0.039-0.008,0.072-0.012,0.094-0.012c0.008-0.002,0.025-0.002,0.043-0.002c0.002,0,0.002,0,0.004,0
			c0.045,0.002,0.18,0.023,0.269,0.084c0.087,0.064,0.152,0.115,0.159,0.344c-0.007,0.223-0.06,0.252-0.104,0.291
			c-0.05,0.035-0.174,0.047-0.216,0.045h-0.877C50.114,23.693,50.272,23.566,50.455,23.459z"/>
		<path fill="#0167A2" d="M35.999,25.414c-0.041-0.063-0.055-0.17-0.053-0.205c0-0.002,0-0.004,0-0.006l0.002-0.012v-1.793h0.903
			v-0.615h-0.903v-0.688h-0.615v0.688h-0.488v0.615h0.488v1.771c0,0.01-0.001,0.023-0.001,0.039
			c0.001,0.098,0.009,0.307,0.145,0.529c0.129,0.221,0.421,0.412,0.803,0.412c0.009,0,0.017,0,0.025,0c0.61,0,0.61,0,0.61,0v-0.615
			c0,0,0,0-0.61,0C36.073,25.527,36.044,25.471,35.999,25.414z"/>
		<path fill="#0167A2" d="M48.664,21.6c-0.382,0-0.674,0.19-0.803,0.412c-0.136,0.223-0.144,0.432-0.145,0.528
			c0,0.017,0,0.03,0,0.04v0.203h-0.488v0.615h0.488v2.693h0.615v-2.693h0.714v-0.615h-0.714v-0.225l-0.001-0.012
			c0-0.002,0-0.004,0-0.007c-0.002-0.035,0.011-0.142,0.052-0.204c0.045-0.057,0.075-0.113,0.307-0.122c0.61,0,0.61,0,0.61,0V21.6
			c0,0,0,0-0.61,0C48.681,21.6,48.672,21.6,48.664,21.6z"/>
		<path fill="#0167A2" d="M29.503,23.096c0.001-0.341-0.09-0.627-0.236-0.843c-0.221-0.327-0.538-0.483-0.785-0.562
			c-0.248-0.078-0.439-0.082-0.459-0.084h-0.006h-1.813v0.309v4.185h0.307c0,0,0.031,0,1.185,0c0.008,0,0.017,0,0.024,0
			c0.764,0,1.258-0.295,1.508-0.654c0.254-0.359,0.275-0.727,0.277-0.879c0-0.025-0.001-0.047-0.002-0.059
			C29.503,24.453,29.503,24.127,29.503,23.096z M28.728,25.09c-0.143,0.191-0.392,0.389-1.032,0.396c-0.429,0-0.702,0-0.876,0
			v-3.263h1.193c0.038,0,0.29,0.025,0.494,0.146c0.204,0.129,0.373,0.289,0.381,0.727c0,1.152,0,1.423,0,1.423v0.012l0.002,0.014
			l0,0c0,0.004,0,0.012,0,0.023C28.892,24.65,28.871,24.895,28.728,25.09z"/>
	</g>
	<g>
		<path fill="#7F99AA" d="M75.979,24.969c1.372,0.041,1.531-0.096,1.531-0.096c0.355-0.24-0.424-0.809-0.424-0.809
			c-0.984-0.643-3.063-0.506-3.063-0.506s-0.849,0.109-1.19-0.232c-0.342-0.341,0.539-1.148,0.539-1.148s1.021-1.021,0.729-2.078
			c-0.291-1.059-3.72-1.204-6.456-0.584c-2.734,0.619-4.741,0.803-5.398,0.182c-0.656-0.619,1.205-2.881,1.205-2.881
			c-1.533,1.076-3.192,2.262-3.448,4.449c-0.255,2.189,4.067,1.368,4.067,1.368s3.666-0.747,3.939,0.383
			c0.273,1.131-2.626,3.336-2.626,3.336c-4.943,4.104-5.846,7.824-5.813,8.525c0.032,0.703,0.295,0.182,0.295,0.182
			c0.958-1.613,2.271-3.992,7.305-7.084C72.204,24.887,75.979,24.969,75.979,24.969z"/>
		<path fill="#0167A2" d="M74.57,31.578l1.915-1.367c0,0,3.537-2.736-0.62-2.572s-8.152,2.846-8.152,2.846
			c-2.242,1.438-2.528,3.713-2.528,3.713s-0.378,2.223,2.839,2.449c3.079,0.217,2.591,2.135,2.591,2.135
			c-0.84,3.793-8.518,3.354-8.518,3.354c8.17,2.006,12.639-3.518,14.188-6.07c1.551-2.555,0.055-3.027-1.695-3.174
			S74.57,31.578,74.57,31.578z"/>
	</g>
</g>
</svg>
