<?xml version="1.0" encoding="UTF-8" standalone="no"?>
<!-- Created with Inkscape (http://www.inkscape.org/) -->

<svg
   xmlns:dc="http://purl.org/dc/elements/1.1/"
   xmlns:cc="http://creativecommons.org/ns#"
   xmlns:rdf="http://www.w3.org/1999/02/22-rdf-syntax-ns#"
   xmlns:svg="http://www.w3.org/2000/svg"
   xmlns="http://www.w3.org/2000/svg"
   xmlns:sodipodi="http://sodipodi.sourceforge.net/DTD/sodipodi-0.dtd"
   xmlns:inkscape="http://www.inkscape.org/namespaces/inkscape"
   width="924.40668"
   height="745.44501"
   id="svg2"
   version="1.1"
   inkscape:version="0.48.4 r9939"
   sodipodi:docname="logo-ssbn.svg">
  <defs
     id="defs4" />
  <sodipodi:namedview
     id="base"
     pagecolor="#ffffff"
     bordercolor="#666666"
     borderopacity="1.0"
     inkscape:pageopacity="0.0"
     inkscape:pageshadow="2"
     inkscape:zoom="0.24748737"
     inkscape:cx="682.61107"
     inkscape:cy="-422.91836"
     inkscape:document-units="px"
     inkscape:current-layer="layer1"
     showgrid="false"
     inkscape:window-width="1503"
     inkscape:window-height="980"
     inkscape:window-x="1920"
     inkscape:window-y="24"
     inkscape:window-maximized="0"
     fit-margin-top="0"
     fit-margin-left="0"
     fit-margin-right="0"
     fit-margin-bottom="0" />
  <metadata
     id="metadata7">
    <rdf:RDF>
      <cc:Work
         rdf:about="">
        <dc:format>image/svg+xml</dc:format>
        <dc:type
           rdf:resource="http://purl.org/dc/dcmitype/StillImage" />
        <dc:title />
      </cc:Work>
    </rdf:RDF>
  </metadata>
  <g
     inkscape:label="Layer 1"
     inkscape:groupmode="layer"
     id="layer1"
     transform="translate(86.209267,648.2501)">
    <path
       style="fill:#0a34a1;fill-opacity:1;stroke:#0a34a1;stroke-width:0.5;stroke-opacity:1"
       d="M 315.58152,94.814691 C 204.49397,82.056806 106.30237,40.113791 32.176024,-26.243294 c -63.18315,-56.56093 -103.06275,-127.145216 -115.55175,-204.519226 -3.4224,-21.20305 -3.43515,-66.5558 -0.025,-88.39045 19.7237,-126.282 114.3053,-233.9235 254.908946,-290.107 85.5626,-34.1898 181.7932,-46.1734 275.33481,-34.28745 127.90924,16.25285 240.66819,74.4482 313.78569,161.94605 30.96005,37.0491 57.03215,87.19275 68.31435,131.3869 9.80375,38.40275 11.7746,87.3004 5.06445,125.6518 C 818.42357,-135.49389 765.46757,-56.241209 680.75957,4.7844611 613.39962,53.312136 527.26352,84.725806 433.69044,94.890046 c -25.5906,2.77976 -93.62672,2.736345 -118.10912,-0.07542 z m 89.41545,-29.177715 c 52.6498,-2.919685 96.31405,-11.38903 144.1215,-27.95457 122.47285,-42.4375299 214.82495,-130.062815 246.03775,-233.444926 8.9277,-29.5701 10.1601,-39.15625 10.19285,-79.2857 0.0275,-33.4018 -0.29985,-38.68575 -3.24805,-52.4611 -13.2482,-61.9019 -41.8936,-113.26405 -89.45515,-160.39605 -21.52855,-21.33415 -41.35705,-37.2073 -66.63835,-53.3456 -106.50935,-67.9901 -247.02431,-91.8729 -379.18905,-64.4492 -87.89925,18.23875 -166.3632,58.33665 -224.798396,114.88015 -75.2301,72.79465 -108.9601,167.65015 -92.98275,261.48605 6.34335,37.25506 20.1492,72.51043 40.1676,104.82813 65.5741,105.862731 197.809996,180.203971 352.775746,190.055131 25.76125,1.637645 34.8386,1.65027 63.0163,0.08772 z"
       id="path3034"
       inkscape:connector-curvature="0"
       sodipodi:nodetypes="csssssssssscccssssssssssscc" />
    <path
       style="fill:#000000;stroke:#0a34a1;stroke-width:0.0625;stroke-opacity:1"
       inkscape:connector-curvature="0"
       d="m 80.523999,-367.61931 c -17.25,2.6875 -33.3125,11.625 -40.75,22.75 -5.9375,8.75 -8.75,19.625 -8.125,31.25 1.0625,19.8125 9.1875,32.1875 27.3125,41.5 7.0625,3.6875 16.75,6.9375 34.0625,11.375 20.437501,5.25 28.625001,8.5625 33.625001,13.5625 4,3.9375 5.0625,6.6875 5.3125,13.375 0.1875,5.0625 0.0625,6.125 -1.3125,9.1875 -7.625,16.625 -37.437501,19.5625 -64.312501,6.25 -6.6875,-3.25 -10.4375,-5.6875 -17.5,-11.0625 l -5.5,-4.1875 -9.5,11.375 -9.5,11.3125 2.8125,2.5 c 11.8125,10.5 30.5,20.1875 46.1875,23.875 12.875,3 30.250001,3.8125 41.687501,1.8125 20.8125,-3.5 36.625,-14.25 44.25,-29.9375 4.1875,-8.8125 5.6875,-17.5 4.6875,-27.9375 -0.8125,-7.8125 -2,-12.3125 -5.0625,-18.5 -4.1875,-8.375 -11.3125,-14.625 -23.375,-20.625 -8.25,-4.125 -14.5625,-6.25 -30.1875,-10.375 -22.312501,-5.9375 -30.750001,-9.1875 -35.812501,-13.9375 -4.25,-3.9375 -5.8125,-7.9375 -5.8125,-14.5625 0,-8.9375 3.4375,-14.375 11.5,-18.0625 6.6875,-3.125 12.0625,-4 21.5625,-3.625 15.562501,0.6875 32.187501,6 42.187501,13.5 2.125,1.625 3.625,2.3125 4,1.9375 0.3125,-0.3125 4,-5.4375 8.1875,-11.3125 l 7.625,-10.8125 -2.875,-2.1875 c -11.875,-9.25 -28.8125,-15.9375 -46.625,-18.5 -7.75,-1.125 -21.312501,-1.125 -28.750001,0.0625 z"
       id="path2993" />
    <path
       style="fill:#000000;stroke:#0a34a1;stroke-width:0.0625;stroke-opacity:1"
       inkscape:connector-curvature="0"
       d="m 247.7115,-368.24431 c -0.875,0.125 -3.5,0.5625 -5.9375,0.9375 -6.5625,1.0625 -13.6875,3.4375 -20.3125,6.875 -17.25,8.875 -25.8125,22.0625 -26.6875,41.1875 -0.875,19.0625 5,32.3125 18.8125,42.1875 9.125,6.5 18.5,10.0625 43.5,16.5625 15.8125,4.125 22.25,6.375 27.875,9.75 4.8125,2.875 6,4 8.125,7.9375 1.375,2.5625 1.8125,4.25 2,8.3125 0.375,6.8125 -0.875,10.4375 -5,14.9375 -11.125,12.1875 -36.375,12.8125 -60.1875,1.5 -5.5625,-2.625 -15.4375,-9 -20.3125,-13.125 -1.75,-1.4375 -3.25,-2.5 -3.3125,-2.375 -0.125,0.125 -4.375,5.1875 -9.375,11.25 -5.0625,6.0625 -9.1875,11.3125 -9.1875,11.5625 0.0625,0.3125 2.25,2.3125 4.875,4.375 20.625,16.4375 43.875,24.6875 69.5,24.6875 21,0 36.125,-4.875 48.4375,-15.625 4.3125,-3.8125 9.25,-9.8125 11.25,-13.875 6.125,-12 7.0625,-29 2.4375,-42.5625 -2,-6 -4.125,-9.4375 -8.625,-14.125 -8.9375,-9.375 -21.75,-15.5 -45.375,-21.6875 -29.5625,-7.8125 -37.875,-11.8125 -41.9375,-20.1875 -2,-4.125 -2.125,-13.5 -0.1875,-17.625 2.75,-5.9375 9.6875,-10.4375 19,-12.25 16.0625,-3.1875 41.5625,2.8125 54.875,12.875 1.8125,1.375 3.375,2.5 3.5,2.5 0.3125,0 15.4375,-21.3125 15.8125,-22.3125 0.1875,-0.375 -1.625,-2.125 -4,-3.875 -9.625,-7.125 -24.9375,-13.5 -39.25,-16.3125 -5.125,-1.0625 -9.625,-1.4375 -17.8125,-1.5625 -6,-0.125 -11.625,-0.125 -12.5,0.0625 z"
       id="path2995" />
    <path
       style="fill:#000000;stroke:#0a34a1;stroke-width:0.0625;stroke-opacity:1"
       inkscape:connector-curvature="0"
       d="m 365.2115,-273.93181 0,90.375 47.6875,-0.25 c 46.56252,-0.1875 47.75002,-0.25 53.81252,-1.625 15.625,-3.5 24.875,-8.625 32,-17.75 11.6875,-15 14.0625,-34.6875 6.125,-51 -5,-10.125 -16.6875,-19.25 -29,-22.5625 l -2.8125,-0.75 4.25,-2.125 c 5.1875,-2.5625 10.875,-6.875 13.8125,-10.5 2.8125,-3.375 6.25,-10.8125 7.3125,-15.6875 1.25,-6.1875 1,-16.6875 -0.625,-22.4375 -2.0625,-7.4375 -5.8125,-14.125 -11,-19.625 -5.375,-5.6875 -11.125,-9.1875 -19.5,-11.9375 -12.25002,-4 -12.56252,-4 -59.37502,-4.25 l -42.6875,-0.25 0,90.375 z m 79.6875,-61.5625 c 10.125,1.5 16.75002,5.1875 19.81252,11.25 3.125,6.125 3.375,16.8125 0.5625,22.375 -1.375,2.6875 -5.8125,7 -8.75002,8.5625 -1.125,0.5625 -4.1875,1.625 -6.8125,2.3125 -4.4375,1.25 -6.6875,1.375 -29.3125,1.625 l -24.5625,0.25 0,-23.5 0,-23.5 22.375,0 c 12.25,0 24.3125,0.3125 26.6875,0.625 z m 11.8125,75.8125 c 9.12502,2.1875 16.31252,6.9375 19.37502,12.8125 2.4375,4.6875 2.25,16 -0.25,21.875 -1.5625,3.625 -5.75,7.8125 -9.25,9.3125 -1.25,0.5625 -4.25,1.5625 -6.6875,2.25 -4.06252,1.1875 -6.43752,1.3125 -34.18752,1.5625 l -29.875,0.1875 0,-24.75 0,-24.8125 28.3125,0.3125 c 23.1875,0.1875 29,0.4375 32.5625,1.25 z"
       id="path2997" />
    <path
       style="fill:#000000;stroke:#0a34a1;stroke-width:0.0625;stroke-opacity:1"
       inkscape:connector-curvature="0"
       d="m 547.71152,-273.93181 0,90.3125 15.3125,0 15.3125,0 0.125,-65.6875 0.1875,-65.6875 50.9375,65.6875 50.9375,65.625 16.75,0.0625 16.6875,0 0,-90.3125 0,-90.3125 -15.3125,0 -15.3125,0 -0.125,67.25 -0.1875,67.3125 -52.1875,-67.125 -52.25,-67.125 -15.4375,-0.1875 -15.4375,-0.125 0,90.3125 z"
       id="path2999" />
  </g>
</svg>
