<?xml version="1.0" encoding="utf-8"?>
<!DOCTYPE svg PUBLIC "-//W3C//DTD SVG 1.1//EN" "http://www.w3.org/Graphics/SVG/1.1/DTD/svg11.dtd">
<svg version="1.1" id="logo-gfdrr" xmlns="http://www.w3.org/2000/svg" xmlns:xlink="http://www.w3.org/1999/xlink" x="0px" y="0px"
	 width="152.744px" height="34.047px" viewBox="0 0 152.744 34.047" enable-background="new 0 0 152.744 34.047"
	 xml:space="preserve">
<g>
	<g>
		<g>
			<path fill="#939598" d="M17.337,0.019C7.762,0.019,0,7.781,0,17.354c0,7.583,4.869,14.023,11.648,16.376
				C5.659,31.303,1.434,25.432,1.434,18.57c0-9.034,7.324-16.361,16.359-16.361S34.152,9.537,34.152,18.57
				c0,2.646-0.632,5.145-1.747,7.355c1.442-2.529,2.27-5.453,2.27-8.572C34.675,7.781,26.913,0.019,17.337,0.019z"/>
		</g>
		<g>
			<path fill="#636466" d="M20.575,3.783c6.055,1.454,10.556,6.883,10.556,13.365c0,7.594-6.177,13.749-13.797,13.749
				c-7.618,0-13.633-6.074-13.633-13.668c0-0.696-0.353-0.056-0.353,1.028c0,8.119,6.579,14.697,14.698,14.697
				c8.117,0,14.697-6.578,14.697-14.697C32.743,11.002,27.485,4.981,20.575,3.783z"/>
		</g>
		<g>
			<path fill="#636466" d="M14.452,29.504v0.008c0.042,0.012,0.083,0.023,0.126,0.035C14.535,29.535,14.493,29.516,14.452,29.504z"
				/>
			<path fill="#636466" d="M19.414,29.76c0.011-0.004,0.024-0.004,0.036-0.008V29.75C19.438,29.756,19.425,29.756,19.414,29.76z"/>
		</g>
	</g>
	<g>
		<path fill="#636466" d="M4.354,15.935c0.062-0.323,0.054-0.421,0.099-0.89c0.037-0.396,0.138-0.869,0.249-1.236
			C6.2,8.776,10.895,5.247,16.646,5.247c1.659,0,3.242,0.312,4.688,0.874c0.228,0.026,0.455,0.044,0.683,0.047L22.061,6.1
			c-1.729-0.827-3.612-1.396-5.713-1.423C9.869,4.597,4.973,8.795,3.859,14.155c-0.105,0.506-0.221,1.079-0.149,1.532
			C3.785,16.152,4.193,16.283,4.354,15.935z"/>
	</g>
	<g>
		<path fill="#939598" d="M28.522,21.51c0,0-0.252,0.225-0.564,0.449c-0.311,0.221-1.402,0.881-2.234,1.115
			c0.367-0.936,0.803-1.875,1.076-2.82c0.517-1.4,0.614-2.838,0.679-2.975c0.741-0.498,1.269-1.271,1.496-1.752
			c0.321-0.528,0.318-0.938,0.243-1.004c-0.074-0.067-0.306,0.293-0.433,0.521c-0.401,0.596-0.722,1.169-1.328,1.536
			c0,0-0.078-3.145-1.391-4.096c0.604,1.515,1.018,3.043,0.763,4.567c-0.936,0.539-2.396,0.97-3.414,1.101v-0.253
			c0.226-1.608,0.196-2.95-0.031-4.48c0.625-0.298,1.22-0.622,1.667-1.136c0.672-0.829,0.768-1.664,0.429-2.505l-0.027-0.025
			c-0.252,0.258-0.039,0.649-0.345,1.346c-0.38,0.778-0.953,1.203-1.767,1.512c-0.19-0.928-0.715-2.903-1.765-3.785
			c0.604,1.341,1.326,2.993,1.203,3.943c-1.51,0.306-2.694,0.274-4.12-0.336c0.575-0.842,1.175-2.287,1.652-3.237L20.26,9.051
			c-0.794,0.805-1.514,2.328-2.238,3.2c-0.636-0.33-1.212-0.714-1.688-1.203c-0.284-0.374-0.509-0.516-0.624-1.021
			c0.819-0.565,2.172-1.259,3.387-1.383l-0.189-0.138c-1.101,0.058-2.253,0.444-3.328,0.918c-0.051-0.61,0.011-1.286,0.376-1.821
			c0.763-0.335,1.826-0.245,2.509-0.163c-0.818-0.396-1.2-0.493-1.854-0.492c0.06-0.253,0.476-0.264,0.484-0.496
			c-0.553-0.035-0.904,0.188-1.413,0.526c-2.765,0.085-4.644,1.704-4.644,1.704c0.267-0.789,0.383-1.056,1.033-1.479
			c-0.848,0.283-1.412,0.566-1.888,2.028c-1.81,1.332-1.934,1.854-2.158,2.646c0.82-1.092,1.479-1.469,2-1.801
			c-0.151,0.638,0.141,2.329,0.926,3.35c-1.045,1.343-2.188,2.755-2.823,4.375c-0.431-0.694-0.759-1.218-1.025-1.994
			c-0.356-0.889-0.569-1.679-0.653-2.361l-0.139,0.372c0,0.107-0.056,0.414-0.05,0.521c0.082,1.607,0.539,3.124,1.502,4.502
			c-0.378,1.371-0.871,3.098-0.26,4.457c0.324-1.059,0.312-2.305,0.926-3.229c1.139,1.486,2.615,2.662,4.29,3.643
			c-0.172,1.129-0.375,2.305-0.508,3.383c-1.553-0.771-2.875-1.604-3.971-2.783l-0.09,0.018c0.075,0.322,0.153,0.42,0.348,0.82
			c0.824,1.387,2.104,2.135,3.677,2.881c0.075,0.043-0.075,0.797,0.224,0.994c0.174,0.174,0.571,0.521,0.547-0.602
			c1.73,0.57,3.266,0.428,5.019,0.326l1.459-0.338c-1.786-0.092-4.583-0.078-6.383-0.898c0.157-1.291,0.334-2.404,0.524-3.492
			l0.113,0.031c1.958,0.809,4.347,1.07,5.968,1.012c0.062,0,0.132-0.338,0.132-0.338c-0.122-0.092-0.108-0.082-0.3-0.246
			c-0.141-0.053-0.326-0.254-0.496-0.324c-0.149-0.033-0.17-0.045-0.382-0.07c-1.652-0.082-3.248-0.322-4.807-1.184
			c0.511-1.713,1.085-3.246,1.978-4.879c2.244,0.877,4.361,1.348,6.657,0.99c-0.271,1.537-0.651,2.783-1.251,4.291l-0.845,1.965
			c0,0-0.628,1.375-1.058,1.939c0.802-0.502,1.646-1.902,1.801-2.182c0.158-0.277,0.593-1.287,0.593-1.287l0,0
			c0.691-1.539,1.333-3.193,1.635-4.805c1.075-0.291,2.345-0.527,3.328-1.093c-0.168,1.609-0.836,3.673-1.554,5.468
			c-0.016,0.008-0.246,0.512-0.246,0.512l-0.192,0.383c-0.494,0.789-0.44,0.984-0.736,1.336c0.899-0.918,0.982-0.953,1.322-1.443
			c0.736-0.447,1.608-0.744,2.298-1.246c-2.04,3.707-5.738,6.113-9.953,6.877l0.005,0.078c3.833,0.098,7.034-2.119,9.418-4.783
			c1.096-1.316,1.89-2.869,2.373-4.367l-0.29,0.34L28.522,21.51z M11.394,12.727c-0.602-1.052-0.806-2.015-0.582-3.188
			c1.22-0.947,2.58-1.853,4.396-1.914c-0.373,0.732-0.435,1.478-0.291,2.212 M12.955,22.51c-1.701-0.891-2.996-2.336-4.158-3.695
			c0.397-1.842,1.568-3.261,2.591-4.629c0.9,1.306,2.056,2.396,3.423,3.284C13.861,19.078,13.132,21.479,12.955,22.51z
			 M15.303,16.658c-1.481-0.64-2.464-1.916-3.451-3.114c0.871-1.257,1.964-2.24,3.275-3.006c0.547,1.024,1.466,1.72,2.482,2.31
			L15.303,16.658z M22.568,18.17c-2.162,0.104-4.299,0.051-6.418-0.984c0.549-1.151,1.227-2.505,2.165-4.011
			c1.452,0.559,2.956,0.659,4.442,0.438C23.004,15.136,22.878,16.573,22.568,18.17z"/>
		<path fill="#939598" d="M25.5,9.327c-0.003,0.005-0.006,0.008-0.01,0.013l0.027,0.028C25.51,9.354,25.506,9.34,25.5,9.327z"/>
	</g>
	<g>
		<path fill="#636466" d="M47.304,30.486c-0.245-0.113-0.56-0.166-0.814-0.166c-0.736,0-1.143,0.494-1.143,1.143
			c0,0.643,0.397,1.127,1.072,1.127c0.17,0,0.306-0.02,0.416-0.045v-0.822h-0.669v-0.502h1.274v1.705
			c-0.333,0.09-0.683,0.16-1.021,0.16c-1.023,0-1.732-0.512-1.732-1.578c0-1.082,0.661-1.688,1.732-1.688
			c0.366,0,0.655,0.051,0.927,0.133L47.304,30.486z"/>
		<path fill="#636466" d="M48.063,29.641h0.607v3.391h-0.607V29.641z"/>
		<path fill="#636466" d="M50.375,30.646c0.691,0,1.221,0.467,1.221,1.236c0,0.668-0.448,1.203-1.221,1.203
			c-0.769,0-1.217-0.535-1.217-1.203C49.158,31.113,49.688,30.646,50.375,30.646z M50.375,32.615c0.465,0,0.588-0.416,0.588-0.803
			c0-0.359-0.19-0.693-0.588-0.693c-0.394,0-0.584,0.344-0.584,0.693C49.791,32.195,49.913,32.615,50.375,32.615z"/>
		<path fill="#636466" d="M52.07,29.641h0.607v1.361h0.008c0.168-0.221,0.38-0.355,0.696-0.355c0.716,0,0.978,0.574,0.978,1.215
			c0,0.635-0.262,1.225-0.978,1.225c-0.257,0-0.538-0.09-0.714-0.338h-0.008v0.283H52.07V29.641z M53.215,32.615
			c0.396,0,0.511-0.434,0.511-0.754c0-0.314-0.108-0.742-0.504-0.742c-0.386,0-0.541,0.416-0.541,0.742
			C52.682,32.191,52.813,32.615,53.215,32.615z"/>
		<path fill="#636466" d="M54.937,30.824c0.237-0.105,0.553-0.178,0.811-0.178c0.71,0,1.004,0.297,1.004,0.986v0.295
			c0,0.236,0.004,0.412,0.009,0.582c0.005,0.178,0.014,0.342,0.026,0.521h-0.532c-0.023-0.121-0.023-0.275-0.028-0.346h-0.009
			c-0.141,0.256-0.443,0.4-0.719,0.4c-0.412,0-0.813-0.248-0.813-0.695c0-0.342,0.167-0.549,0.398-0.66
			c0.23-0.113,0.528-0.135,0.782-0.135H56.2c0-0.375-0.167-0.502-0.525-0.502c-0.258,0-0.515,0.1-0.719,0.252L54.937,30.824z
			 M55.647,32.645c0.187,0,0.331-0.084,0.425-0.209c0.1-0.133,0.127-0.297,0.127-0.48h-0.263c-0.271,0-0.674,0.049-0.674,0.402
			C55.263,32.559,55.432,32.645,55.647,32.645z"/>
		<path fill="#636466" d="M57.362,29.641h0.606v3.391h-0.606V29.641z"/>
		<path fill="#636466" d="M59.918,29.873h1.754v0.5H60.55v0.777h1.068v0.496H60.55v1.385h-0.632V29.873z"/>
		<path fill="#636466" d="M62.229,30.824c0.234-0.105,0.551-0.178,0.809-0.178c0.709,0,1.004,0.297,1.004,0.986v0.295
			c0,0.236,0.004,0.412,0.008,0.582c0.005,0.178,0.014,0.342,0.028,0.521h-0.533c-0.022-0.121-0.022-0.275-0.027-0.346h-0.009
			c-0.141,0.256-0.444,0.4-0.721,0.4c-0.41,0-0.813-0.248-0.813-0.695c0-0.342,0.167-0.549,0.398-0.66
			c0.23-0.113,0.529-0.135,0.781-0.135h0.335c0-0.375-0.168-0.502-0.525-0.502c-0.258,0-0.516,0.1-0.718,0.252L62.229,30.824z
			 M62.938,32.645c0.186,0,0.33-0.084,0.425-0.209c0.1-0.133,0.127-0.297,0.127-0.48h-0.262c-0.272,0-0.674,0.049-0.674,0.402
			C62.554,32.559,62.721,32.645,62.938,32.645z"/>
		<path fill="#636466" d="M66.15,31.205c-0.109-0.051-0.227-0.086-0.412-0.086c-0.375,0-0.615,0.301-0.615,0.738
			c0,0.428,0.204,0.758,0.628,0.758c0.172,0,0.361-0.064,0.466-0.107l0.026,0.5c-0.175,0.055-0.357,0.078-0.605,0.078
			c-0.764,0-1.149-0.52-1.149-1.229c0-0.676,0.398-1.211,1.126-1.211c0.243,0,0.42,0.031,0.588,0.08L66.15,31.205z"/>
		<path fill="#636466" d="M66.66,29.699h0.607v0.58H66.66V29.699z M66.66,30.703h0.607v2.328H66.66V30.703z"/>
		<path fill="#636466" d="M67.918,29.641h0.605v3.391h-0.605V29.641z"/>
		<path fill="#636466" d="M69.174,29.699h0.608v0.58h-0.608V29.699z M69.174,30.703h0.608v2.328h-0.608V30.703z"/>
		<path fill="#636466" d="M70.617,31.146H70.17v-0.443h0.447v-0.465l0.606-0.197v0.662h0.539v0.443h-0.539v1.086
			c0,0.197,0.055,0.383,0.286,0.383c0.107,0,0.212-0.021,0.275-0.064l0.017,0.48c-0.126,0.039-0.267,0.055-0.447,0.055
			c-0.475,0-0.737-0.291-0.737-0.756V31.146z"/>
		<path fill="#636466" d="M73.146,32.402h0.009l0.561-1.699h0.615l-0.872,2.313c-0.195,0.516-0.334,1.02-0.968,1.02
			c-0.145,0-0.288-0.023-0.429-0.064l0.04-0.447c0.077,0.025,0.163,0.043,0.313,0.043c0.245,0,0.394-0.168,0.394-0.418l-0.891-2.445
			h0.669L73.146,32.402z"/>
		<path fill="#636466" d="M76.17,31.146h-0.446v-0.443h0.446v-0.326c0-0.463,0.264-0.791,0.742-0.791
			c0.155,0,0.326,0.023,0.443,0.051l-0.049,0.5c-0.055-0.031-0.13-0.082-0.262-0.082c-0.203,0-0.267,0.178-0.267,0.357v0.291h0.528
			v0.443h-0.528v1.885H76.17V31.146z"/>
		<path fill="#636466" d="M78.776,30.646c0.69,0,1.222,0.467,1.222,1.236c0,0.668-0.449,1.203-1.222,1.203
			c-0.77,0-1.217-0.535-1.217-1.203C77.56,31.113,78.088,30.646,78.776,30.646z M78.776,32.615c0.465,0,0.589-0.416,0.589-0.803
			c0-0.359-0.191-0.693-0.589-0.693c-0.394,0-0.585,0.344-0.585,0.693C78.191,32.195,78.314,32.615,78.776,32.615z"/>
		<path fill="#636466" d="M80.485,30.703h0.538v0.529h0.01c0.028-0.219,0.275-0.586,0.637-0.586c0.059,0,0.121,0,0.187,0.021v0.607
			c-0.057-0.029-0.164-0.045-0.272-0.045c-0.494,0-0.494,0.611-0.494,0.947v0.854h-0.604V30.703z"/>
		<path fill="#636466" d="M83.543,29.873h0.863c0.967,0,1.823,0.328,1.823,1.58s-0.856,1.578-1.823,1.578h-0.863V29.873z
			 M84.176,32.533h0.354c0.527,0,1.037-0.395,1.037-1.08s-0.51-1.08-1.037-1.08h-0.354V32.533z"/>
		<path fill="#636466" d="M86.767,29.699h0.605v0.58h-0.605V29.699z M86.767,30.703h0.605v2.328h-0.605V30.703z"/>
		<path fill="#636466" d="M89.394,31.193c-0.185-0.066-0.321-0.1-0.54-0.1c-0.166,0-0.358,0.057-0.358,0.258
			c0,0.371,1.053,0.137,1.053,0.977c0,0.543-0.484,0.758-0.976,0.758c-0.23,0-0.467-0.043-0.688-0.1l0.037-0.498
			c0.188,0.096,0.388,0.156,0.597,0.156c0.152,0,0.398-0.061,0.398-0.287c0-0.455-1.055-0.146-1.055-0.984
			c0-0.504,0.438-0.727,0.914-0.727c0.283,0,0.471,0.047,0.66,0.088L89.394,31.193z"/>
		<path fill="#636466" d="M90.123,30.824c0.236-0.105,0.55-0.178,0.811-0.178c0.709,0,1.002,0.297,1.002,0.986v0.295
			c0,0.236,0.005,0.412,0.01,0.582c0.004,0.178,0.012,0.342,0.029,0.521h-0.535c-0.022-0.121-0.022-0.275-0.027-0.346h-0.009
			c-0.142,0.256-0.442,0.4-0.719,0.4c-0.413,0-0.813-0.248-0.813-0.695c0-0.342,0.166-0.549,0.396-0.66
			c0.229-0.113,0.53-0.135,0.783-0.135h0.335c0-0.375-0.169-0.502-0.525-0.502c-0.258,0-0.515,0.1-0.719,0.252L90.123,30.824z
			 M90.832,32.645c0.188,0,0.331-0.084,0.426-0.209c0.098-0.133,0.127-0.297,0.127-0.48h-0.263c-0.271,0-0.673,0.049-0.673,0.402
			C90.449,32.559,90.617,32.645,90.832,32.645z"/>
		<path fill="#636466" d="M93.918,31.193c-0.188-0.066-0.322-0.1-0.544-0.1c-0.163,0-0.356,0.057-0.356,0.258
			c0,0.371,1.053,0.137,1.053,0.977c0,0.543-0.483,0.758-0.978,0.758c-0.229,0-0.464-0.043-0.687-0.1l0.037-0.498
			c0.188,0.096,0.388,0.156,0.596,0.156c0.154,0,0.398-0.061,0.398-0.287c0-0.455-1.053-0.146-1.053-0.984
			c0-0.504,0.438-0.727,0.914-0.727c0.285,0,0.469,0.047,0.66,0.088L93.918,31.193z"/>
		<path fill="#636466" d="M94.741,31.146h-0.448v-0.443h0.448v-0.465l0.604-0.197v0.662h0.539v0.443h-0.539v1.086
			c0,0.197,0.055,0.383,0.285,0.383c0.109,0,0.213-0.021,0.276-0.064l0.018,0.48c-0.126,0.039-0.267,0.055-0.446,0.055
			c-0.478,0-0.737-0.291-0.737-0.756V31.146z"/>
		<path fill="#636466" d="M98.168,32.902c-0.221,0.121-0.476,0.184-0.8,0.184c-0.769,0-1.216-0.441-1.216-1.207
			c0-0.674,0.355-1.232,1.079-1.232c0.864,0,1.108,0.598,1.108,1.408h-1.608c0.024,0.375,0.288,0.59,0.664,0.59
			c0.292,0,0.548-0.111,0.772-0.236V32.902z M97.762,31.639c-0.02-0.293-0.155-0.545-0.492-0.545c-0.34,0-0.514,0.232-0.538,0.545
			H97.762z"/>
		<path fill="#636466" d="M98.828,30.703h0.54v0.529h0.006c0.03-0.219,0.278-0.586,0.64-0.586c0.057,0,0.123,0,0.186,0.021v0.607
			c-0.054-0.029-0.164-0.045-0.271-0.045c-0.492,0-0.492,0.611-0.492,0.947v0.854h-0.607V30.703z"/>
		<path fill="#636466" d="M101.831,29.873h0.683c0.68,0,1.488-0.02,1.488,0.857c0,0.369-0.247,0.678-0.65,0.732v0.01
			c0.172,0.016,0.271,0.186,0.334,0.324l0.506,1.234h-0.705l-0.379-0.982c-0.092-0.236-0.172-0.326-0.438-0.326h-0.205v1.309h-0.633
			V29.873z M102.464,31.221h0.208c0.312,0,0.672-0.043,0.672-0.436c0-0.381-0.355-0.412-0.672-0.412h-0.208V31.221z"/>
		<path fill="#636466" d="M106.463,32.902c-0.222,0.121-0.475,0.184-0.803,0.184c-0.767,0-1.215-0.441-1.215-1.207
			c0-0.674,0.358-1.232,1.08-1.232c0.865,0,1.107,0.598,1.107,1.408h-1.608c0.026,0.375,0.29,0.59,0.664,0.59
			c0.294,0,0.548-0.111,0.774-0.236V32.902z M106.057,31.639c-0.019-0.293-0.156-0.545-0.494-0.545
			c-0.341,0-0.512,0.232-0.538,0.545H106.057z"/>
		<path fill="#636466" d="M108.66,32.77h-0.008c-0.182,0.227-0.432,0.316-0.715,0.316c-0.715,0-0.977-0.59-0.977-1.225
			c0-0.641,0.262-1.215,0.977-1.215c0.303,0,0.516,0.107,0.695,0.328h0.01v-1.334h0.605v3.391h-0.588V32.77z M108.104,32.615
			c0.404,0,0.535-0.424,0.535-0.754c0-0.326-0.155-0.742-0.545-0.742c-0.393,0-0.5,0.428-0.5,0.742
			C107.594,32.182,107.707,32.615,108.104,32.615z"/>
		<path fill="#636466" d="M112.012,33.031h-0.574v-0.316h-0.01c-0.187,0.227-0.447,0.371-0.763,0.371
			c-0.552,0-0.792-0.389-0.792-0.914v-1.469h0.605v1.244c0,0.285,0.006,0.668,0.395,0.668c0.438,0,0.532-0.477,0.532-0.773v-1.139
			h0.606V33.031z"/>
		<path fill="#636466" d="M114.148,31.205c-0.109-0.051-0.229-0.086-0.413-0.086c-0.374,0-0.616,0.301-0.616,0.738
			c0,0.428,0.205,0.758,0.629,0.758c0.172,0,0.362-0.064,0.467-0.107l0.026,0.5c-0.178,0.055-0.357,0.078-0.606,0.078
			c-0.766,0-1.148-0.52-1.148-1.229c0-0.676,0.398-1.211,1.127-1.211c0.244,0,0.422,0.031,0.587,0.08L114.148,31.205z"/>
		<path fill="#636466" d="M114.844,31.146h-0.449v-0.443h0.449v-0.465l0.604-0.197v0.662h0.539v0.443h-0.539v1.086
			c0,0.197,0.055,0.383,0.287,0.383c0.107,0,0.213-0.021,0.275-0.064l0.018,0.48c-0.127,0.039-0.268,0.055-0.446,0.055
			c-0.476,0-0.737-0.291-0.737-0.756V31.146z"/>
		<path fill="#636466" d="M116.418,29.699h0.605v0.58h-0.605V29.699z M116.418,30.703h0.605v2.328h-0.605V30.703z"/>
		<path fill="#636466" d="M118.727,30.646c0.693,0,1.223,0.467,1.223,1.236c0,0.668-0.448,1.203-1.223,1.203
			c-0.768,0-1.215-0.535-1.215-1.203C117.512,31.113,118.039,30.646,118.727,30.646z M118.727,32.615c0.468,0,0.59-0.416,0.59-0.803
			c0-0.359-0.191-0.693-0.59-0.693c-0.394,0-0.583,0.344-0.583,0.693C118.144,32.195,118.266,32.615,118.727,32.615z"/>
		<path fill="#636466" d="M120.424,30.703h0.574v0.316h0.01c0.188-0.266,0.446-0.373,0.764-0.373c0.552,0,0.792,0.393,0.792,0.914
			v1.471h-0.606v-1.242c0-0.287-0.004-0.67-0.395-0.67c-0.438,0-0.532,0.477-0.532,0.773v1.139h-0.606V30.703z"/>
		<path fill="#636466" d="M124.548,30.824c0.234-0.105,0.551-0.178,0.81-0.178c0.709,0,1.004,0.297,1.004,0.986v0.295
			c0,0.236,0.004,0.412,0.008,0.582c0.005,0.178,0.015,0.342,0.027,0.521h-0.531c-0.025-0.121-0.025-0.275-0.027-0.346h-0.008
			c-0.143,0.256-0.445,0.4-0.721,0.4c-0.412,0-0.815-0.248-0.815-0.695c0-0.342,0.169-0.549,0.398-0.66
			c0.23-0.113,0.529-0.135,0.782-0.135h0.336c0-0.375-0.168-0.502-0.526-0.502c-0.259,0-0.516,0.1-0.719,0.252L124.548,30.824z
			 M125.258,32.645c0.186,0,0.33-0.084,0.424-0.209c0.102-0.133,0.129-0.297,0.129-0.48h-0.262c-0.273,0-0.675,0.049-0.675,0.402
			C124.874,32.559,125.039,32.645,125.258,32.645z"/>
		<path fill="#636466" d="M126.959,30.703h0.574v0.316h0.008c0.191-0.266,0.449-0.373,0.766-0.373c0.551,0,0.791,0.393,0.791,0.914
			v1.471h-0.606v-1.242c0-0.287-0.005-0.67-0.394-0.67c-0.438,0-0.533,0.477-0.533,0.773v1.139h-0.605V30.703z"/>
		<path fill="#636466" d="M131.273,32.77h-0.012c-0.179,0.227-0.428,0.316-0.713,0.316c-0.715,0-0.977-0.59-0.977-1.225
			c0-0.641,0.262-1.215,0.977-1.215c0.303,0,0.517,0.107,0.695,0.328h0.012v-1.334h0.604v3.391h-0.586V32.77z M130.717,32.615
			c0.401,0,0.533-0.424,0.533-0.754c0-0.326-0.153-0.742-0.543-0.742c-0.393,0-0.5,0.428-0.5,0.742
			C130.207,32.182,130.318,32.615,130.717,32.615z"/>
		<path fill="#636466" d="M133.744,29.873h0.682c0.679,0,1.486-0.02,1.486,0.857c0,0.369-0.249,0.678-0.65,0.732v0.01
			c0.172,0.016,0.271,0.186,0.336,0.324l0.506,1.234h-0.706l-0.381-0.982c-0.09-0.236-0.17-0.326-0.438-0.326h-0.203v1.309h-0.631
			V29.873z M134.375,31.221h0.209c0.311,0,0.67-0.043,0.67-0.436c0-0.381-0.353-0.412-0.67-0.412h-0.209V31.221z"/>
		<path fill="#636466" d="M138.374,32.902c-0.224,0.121-0.475,0.184-0.803,0.184c-0.767,0-1.215-0.441-1.215-1.207
			c0-0.674,0.358-1.232,1.081-1.232c0.864,0,1.105,0.598,1.105,1.408h-1.607c0.025,0.375,0.288,0.59,0.665,0.59
			c0.292,0,0.545-0.111,0.773-0.236V32.902z M137.965,31.639c-0.017-0.293-0.152-0.545-0.492-0.545
			c-0.339,0-0.512,0.232-0.537,0.545H137.965z"/>
		<path fill="#636466" d="M140.528,31.205c-0.108-0.051-0.225-0.086-0.411-0.086c-0.373,0-0.613,0.301-0.613,0.738
			c0,0.428,0.202,0.758,0.629,0.758c0.171,0,0.361-0.064,0.466-0.107l0.026,0.5c-0.178,0.055-0.357,0.078-0.604,0.078
			c-0.768,0-1.151-0.52-1.151-1.229c0-0.676,0.397-1.211,1.128-1.211c0.242,0,0.421,0.031,0.586,0.08L140.528,31.205z"/>
		<path fill="#636466" d="M142.096,30.646c0.691,0,1.219,0.467,1.219,1.236c0,0.668-0.445,1.203-1.219,1.203
			c-0.768,0-1.218-0.535-1.218-1.203C140.878,31.113,141.409,30.646,142.096,30.646z M142.096,32.615
			c0.465,0,0.589-0.416,0.589-0.803c0-0.359-0.19-0.693-0.589-0.693c-0.394,0-0.585,0.344-0.585,0.693
			C141.511,32.195,141.634,32.615,142.096,32.615z"/>
		<path fill="#636466" d="M143.533,30.703h0.652l0.577,1.695h0.007l0.563-1.695h0.607l-0.86,2.328h-0.681L143.533,30.703z"/>
		<path fill="#636466" d="M148.172,32.902c-0.221,0.121-0.475,0.184-0.798,0.184c-0.77,0-1.218-0.441-1.218-1.207
			c0-0.674,0.358-1.232,1.079-1.232c0.866,0,1.109,0.598,1.109,1.408h-1.608c0.026,0.375,0.289,0.59,0.664,0.59
			c0.292,0,0.547-0.111,0.771-0.236V32.902z M147.768,31.639c-0.02-0.293-0.155-0.545-0.494-0.545c-0.34,0-0.511,0.232-0.537,0.545
			H147.768z"/>
		<path fill="#636466" d="M148.834,30.703h0.536v0.529h0.011c0.027-0.219,0.277-0.586,0.638-0.586c0.057,0,0.122,0,0.185,0.021
			v0.607c-0.053-0.029-0.163-0.045-0.271-0.045c-0.492,0-0.492,0.611-0.492,0.947v0.854h-0.605V30.703z"/>
		<path fill="#636466" d="M151.547,32.402h0.01l0.56-1.699h0.616l-0.873,2.313c-0.195,0.516-0.335,1.02-0.967,1.02
			c-0.145,0-0.291-0.023-0.432-0.064l0.041-0.447c0.077,0.025,0.162,0.043,0.313,0.043c0.246,0,0.393-0.168,0.393-0.418l-0.89-2.445
			h0.668L151.547,32.402z"/>
	</g>
	<g>
		<radialGradient id="SVGID_1_" cx="14.4375" cy="29.4971" r="0.0472" gradientUnits="userSpaceOnUse">
			<stop  offset="0" style="stop-color:#FFFFFF"/>
			<stop  offset="0.0262" style="stop-color:#DBDBDB"/>
			<stop  offset="0.0863" style="stop-color:#8E8E8E"/>
			<stop  offset="0.14" style="stop-color:#515151"/>
			<stop  offset="0.1852" style="stop-color:#252525"/>
			<stop  offset="0.2202" style="stop-color:#0A0A0A"/>
			<stop  offset="0.2407" style="stop-color:#000000"/>
		</radialGradient>
		<path fill="url(#SVGID_1_)" d="M14.375,29.477v0.006c0.043,0.014,0.085,0.025,0.126,0.035
			C14.459,29.504,14.418,29.488,14.375,29.477z"/>
		<radialGradient id="SVGID_2_" cx="19.3545" cy="29.7256" r="0.0126" gradientUnits="userSpaceOnUse">
			<stop  offset="0" style="stop-color:#FFFFFF"/>
			<stop  offset="0.0262" style="stop-color:#DBDBDB"/>
			<stop  offset="0.0863" style="stop-color:#8E8E8E"/>
			<stop  offset="0.14" style="stop-color:#515151"/>
			<stop  offset="0.1852" style="stop-color:#252525"/>
			<stop  offset="0.2202" style="stop-color:#0A0A0A"/>
			<stop  offset="0.2407" style="stop-color:#000000"/>
		</radialGradient>
		<path fill="url(#SVGID_2_)" d="M19.337,29.729c0.011-0.002,0.023-0.004,0.035-0.006l0,0C19.36,29.723,19.348,29.725,19.337,29.729
			z"/>
	</g>
	<line fill="#939598" stroke="#666666" stroke-width="0.5187" x1="38.829" y1="2.168" x2="38.829" y2="31.58"/>
	<g>
		<linearGradient id="SVGID_3_" gradientUnits="userSpaceOnUse" x1="43.7578" y1="12.7393" x2="65.1431" y2="12.7393">
			<stop  offset="0" style="stop-color:#FFFFFF"/>
			<stop  offset="0" style="stop-color:#DBDBDB;stop-opacity:0.9891"/>
			<stop  offset="0" style="stop-color:#8E8E8E;stop-opacity:0.9641"/>
			<stop  offset="0" style="stop-color:#515151;stop-opacity:0.9418"/>
			<stop  offset="0" style="stop-color:#252525;stop-opacity:0.9231"/>
			<stop  offset="0" style="stop-color:#0A0A0A;stop-opacity:0.9085"/>
			<stop  offset="0" style="stop-color:#000000;stop-opacity:0.9"/>
			<stop  offset="0.9292" style="stop-color:#000000;stop-opacity:0.9"/>
		</linearGradient>
		<path fill="url(#SVGID_3_)" d="M64.089,5.225c-1.896-0.877-4.354-1.298-6.32-1.298c-5.725,0-8.884,3.862-8.884,8.88
			c0,4.988,3.089,8.746,8.322,8.746c1.334,0,2.387-0.141,3.231-0.354v-6.39H55.24v-3.86h9.903V24.15
			c-2.599,0.703-5.303,1.264-7.936,1.264c-7.936,0-13.449-3.967-13.449-12.255c0-8.39,5.127-13.095,13.449-13.095
			c2.843,0,5.091,0.386,7.198,1.018L64.089,5.225z"/>
		<linearGradient id="SVGID_4_" gradientUnits="userSpaceOnUse" x1="70.3047" y1="12.7393" x2="83.9277" y2="12.7393">
			<stop  offset="0" style="stop-color:#FFFFFF"/>
			<stop  offset="0" style="stop-color:#DBDBDB;stop-opacity:0.9891"/>
			<stop  offset="0" style="stop-color:#8E8E8E;stop-opacity:0.9641"/>
			<stop  offset="0" style="stop-color:#515151;stop-opacity:0.9418"/>
			<stop  offset="0" style="stop-color:#252525;stop-opacity:0.9231"/>
			<stop  offset="0" style="stop-color:#0A0A0A;stop-opacity:0.9085"/>
			<stop  offset="0" style="stop-color:#000000;stop-opacity:0.9"/>
			<stop  offset="0.9292" style="stop-color:#000000;stop-opacity:0.9"/>
		</linearGradient>
		<path fill="url(#SVGID_4_)" d="M70.305,0.485h13.623v3.863h-8.707v6.039h8.287v3.86h-8.287v10.747h-4.916V0.485z"/>
		<linearGradient id="SVGID_5_" gradientUnits="userSpaceOnUse" x1="87.8643" y1="12.7393" x2="108.7207" y2="12.7393">
			<stop  offset="0" style="stop-color:#FFFFFF"/>
			<stop  offset="0" style="stop-color:#DBDBDB;stop-opacity:0.9891"/>
			<stop  offset="0" style="stop-color:#8E8E8E;stop-opacity:0.9641"/>
			<stop  offset="0" style="stop-color:#515151;stop-opacity:0.9418"/>
			<stop  offset="0" style="stop-color:#252525;stop-opacity:0.9231"/>
			<stop  offset="0" style="stop-color:#0A0A0A;stop-opacity:0.9085"/>
			<stop  offset="0" style="stop-color:#000000;stop-opacity:0.9"/>
			<stop  offset="0.9292" style="stop-color:#000000;stop-opacity:0.9"/>
		</linearGradient>
		<path fill="url(#SVGID_5_)" d="M87.864,0.485h6.705c7.515,0,14.151,2.529,14.151,12.254c0,9.726-6.637,12.255-14.151,12.255
			h-6.705V0.485z M92.781,21.129h2.736c4.109,0,8.078-3.053,8.078-8.39c0-5.337-3.969-8.391-8.078-8.391h-2.736V21.129z"/>
		<linearGradient id="SVGID_6_" gradientUnits="userSpaceOnUse" x1="112.7969" y1="12.7393" x2="131.123" y2="12.7393">
			<stop  offset="0" style="stop-color:#FFFFFF"/>
			<stop  offset="0" style="stop-color:#DBDBDB;stop-opacity:0.9891"/>
			<stop  offset="0" style="stop-color:#8E8E8E;stop-opacity:0.9641"/>
			<stop  offset="0" style="stop-color:#515151;stop-opacity:0.9418"/>
			<stop  offset="0" style="stop-color:#252525;stop-opacity:0.9231"/>
			<stop  offset="0" style="stop-color:#0A0A0A;stop-opacity:0.9085"/>
			<stop  offset="0" style="stop-color:#000000;stop-opacity:0.9"/>
			<stop  offset="0.9292" style="stop-color:#000000;stop-opacity:0.9"/>
		</linearGradient>
		<path fill="url(#SVGID_6_)" d="M112.797,0.485h5.301c5.267,0,11.551-0.175,11.551,6.635c0,2.88-1.93,5.268-5.053,5.688v0.072
			c1.331,0.104,2.104,1.439,2.598,2.526l3.93,9.588h-5.477l-2.947-7.657c-0.705-1.826-1.336-2.528-3.408-2.528h-1.58v10.185h-4.914
			V0.485z M117.711,10.949h1.617c2.422,0,5.196-0.354,5.196-3.406c0-2.95-2.739-3.194-5.196-3.194h-1.617V10.949z"/>
		<linearGradient id="SVGID_7_" gradientUnits="userSpaceOnUse" x1="134.25" y1="12.7393" x2="152.5801" y2="12.7393">
			<stop  offset="0" style="stop-color:#FFFFFF"/>
			<stop  offset="0" style="stop-color:#DBDBDB;stop-opacity:0.9891"/>
			<stop  offset="0" style="stop-color:#8E8E8E;stop-opacity:0.9641"/>
			<stop  offset="0" style="stop-color:#515151;stop-opacity:0.9418"/>
			<stop  offset="0" style="stop-color:#252525;stop-opacity:0.9231"/>
			<stop  offset="0" style="stop-color:#0A0A0A;stop-opacity:0.9085"/>
			<stop  offset="0" style="stop-color:#000000;stop-opacity:0.9"/>
			<stop  offset="0.9292" style="stop-color:#000000;stop-opacity:0.9"/>
		</linearGradient>
		<path fill="url(#SVGID_7_)" d="M134.25,0.485h5.305c5.267,0,11.551-0.175,11.551,6.635c0,2.88-1.932,5.268-5.057,5.688v0.072
			c1.334,0.104,2.107,1.439,2.599,2.526l3.933,9.588h-5.479l-2.949-7.657c-0.699-1.826-1.334-2.528-3.406-2.528h-1.58v10.185h-4.916
			V0.485z M139.166,10.949h1.615c2.422,0,5.199-0.354,5.199-3.406c0-2.95-2.74-3.194-5.199-3.194h-1.615V10.949z"/>
	</g>
</g>
</svg>
