<svg
   xmlns:svg="http://www.w3.org/2000/svg"
   xmlns="http://www.w3.org/2000/svg"
   version="1.1"
   width="276.02139"
   height="461.70819"
   id="svg3452">
  <defs
     id="defs3454" />
  <g
     transform="translate(-301.98931,-324.36524)"
     id="layer1">
    <path
       d="m 302.98931,368.08821 c 0,0 41.76758,-30.79639 132.52652,-39.28202 106.18043,-9.92953 141.49486,4.78905 141.49486,4.78905 l 0,413.12384 c 0,0 -25.38066,26.09203 -132.27669,34.84019 -98.9397,8.10453 -141.74469,-0.34722 -141.74469,-0.34722 l 0,-413.12384 z"
       id="path214"
       style="fill:#a9112c;fill-opacity:1;fill-rule:nonzero;stroke:none" />
    <path
       d="m 508.20563,359.86079 c 0,0 -0.25213,0.11121 -1.03125,0.84375 -1.40157,1.32958 -0.71365,4.2263 0.53125,5.1875 1.2449,0.9612 74.99371,76.48532 14.125,159 -1.2449,1.60482 -2.47081,3.28653 -3.90625,4.78125 -59.09028,61.52926 -127.57733,33.47549 -162.625,16.5 -5.11932,-2.47709 -10.87733,-0.69913 -13.46875,2.375 -3.52297,4.1793 -5.53125,6.34375 -5.53125,6.34375 28.82318,26.9135 133.38295,53.66498 192.0625,-15.3125 0.72407,-0.96966 1.44065,-1.96521 2.15625,-2.96875 49.91446,-69.84975 14.49666,-146.36858 -22.3125,-176.75 z m -31.625,13.53125 c -13.71985,0.15731 -32.03001,8.41782 -50.8125,22.78125 -1.48626,1.13904 -2.97403,2.31599 -4.46875,3.53125 l -0.625,0.5 c -1.58364,1.29994 -3.16636,2.64662 -4.75,4.03125 -2.71421,2.37123 -5.43196,4.83338 -8.125,7.4375 -4.67895,4.51805 -9.29445,9.3839 -13.8125,14.5625 -1.09246,1.25337 -2.1644,2.51942 -3.21875,3.78125 -1.93086,2.30772 -3.79415,4.61284 -5.59375,6.9375 l -0.3125,0.40625 -0.1875,0.25 -0.28125,0.375 -0.28125,0.34375 c -0.94002,1.23219 -1.85232,2.45531 -2.75,3.6875 -0.55046,0.75371 -1.07293,1.48621 -1.59375,2.21875 -8.33319,-9.17159 -10.98499,-15.58281 -9.96875,-19.65625 l 0.65625,-1.5625 0.21875,-0.34375 c 0.34298,-0.58011 0.69835,-1.14711 1.0625,-1.71875 1.24066,-1.94356 2.59479,-3.83125 4.09375,-5.65625 7.60488,-9.22664 17.48308,-15.49743 28.1875,-18.65625 -30.99964,-18.66923 -56.887,-25.82529 -65,-16.03125 -9.01069,10.8865 6.63296,39.47037 36.375,70 l -0.1875,0.28125 c -0.4319,0.66056 -0.85782,1.31243 -1.28125,1.96875 -1.14327,1.74878 -2.20293,3.41576 -3.0625,4.90625 l -0.125,0.25 c -0.80029,1.33382 -1.59004,2.67465 -2.34375,4 -16.8654,29.83519 -21.16916,56.82336 -8.5,67.875 12.86394,11.22525 39.6469,2.9395 67.34375,-18.5625 -13.73198,1.35499 -27.92669,-2.17605 -39.8125,-10.84375 l -0.21875,-0.15625 c -7.01207,-5.06004 -8.12371,-14.5479 -7.03125,-22.5 0.16937,-1.22373 0.40803,-2.47546 0.6875,-3.75 l 0.0625,-0.3125 c 0.30064,-1.34652 0.67032,-2.69642 1.09375,-4.09375 l 0.0312,-0.125 c 0.89345,-2.92593 3.46028,-8.98145 3.46875,-8.96875 l 1.21875,1.125 c 5.12779,4.78481 10.56912,9.58274 16.28125,14.3125 46.84032,38.79083 94.12875,58.9824 105.625,45.09375 8.27391,-9.98458 -4.19699,-34.8836 -29.28125,-62.5 -0.84263,9.80674 -4.27796,19.25751 -10.21875,27.78125 -0.17784,0.27947 -0.36349,0.54574 -0.5625,0.8125 -0.0804,0.10586 -0.16955,0.20664 -0.25,0.3125 -0.94849,1.14751 -1.96902,2.0344 -3.125,2.75 -9.7771,5.75871 -36.50277,-1.53268 -74.78125,-35.59375 -0.47001,-0.41497 -0.89491,-0.81225 -1.34375,-1.21875 l 3.15625,-5.03125 c 0,0 5.0348,-7.29844 9.375,-12.21875 21.20136,-24.01297 48.61895,-34.62642 61.25,-23.71875 8.46446,7.31695 13.67619,19.21428 15.6875,30.3125 0.63515,3.37054 0.96189,6.79317 1,10.21875 20.17242,-32.43508 26.12612,-62.74343 12.5,-74.625 -3.96837,-3.46158 -9.23245,-5.07151 -15.46875,-5 z m -122.6875,232.09375 c -15.03192,0 -24.6259,3.78491 -27.4375,19.71875 l -2.875,16.21875 c -2.8116,15.93384 5.46808,19.6875 20.5,19.6875 l 20.0625,0 c 18.79202,0 27.05594,-0.7418 29.8125,-16.375 l 2.71875,-15.5 -37.4375,0 -1.96875,11.28125 20.75,0 -0.28125,1.59375 c -0.92732,5.26329 -5.42411,5.9375 -9.78125,5.9375 l -17.8125,0 c -8.41788,0 -10.23668,-2.05521 -8.59375,-11.375 l 1.1875,-6.75 c 1.64716,-9.31979 4.17587,-11.34375 12.59375,-11.34375 l 18.125,0 c 5.33951,0 8.30071,0.68649 7.34375,6.09375 l 16.375,0 0.3125,-1.75 c 1.87158,-10.59433 0.44022,-17.4375 -18.5,-17.4375 l -25.09375,0 z m 162.03125,0 c -21.04469,0 -23.26392,7.59688 -25,17.4375 -2.35853,13.38053 -0.0387,16.40625 25.0625,16.40625 21.49777,0 23.4009,0.30149 22.5625,5.03125 -0.74101,4.20894 -4.40606,4.5625 -7.9375,4.5625 l -20.4375,0 c -4.81022,0 -7.06926,-0.4304 -6.125,-6.21875 l -16.6875,0 -0.65625,3.75 c -2.07906,11.80112 3.50737,14.65625 18.6875,14.65625 l 20.1875,0 c 22.17526,0 27.56907,-2.40743 30.15625,-17.0625 2.7989,-15.86186 -2.9354,-17.4242 -28.875,-17.34375 -17.90281,0.072 -19.89667,-0.0785 -19.0625,-4.8125 0.51659,-2.93017 3.27539,-4.21875 7.03125,-4.21875 l 18.5,0 c 7.66416,0 7.8279,1.64048 7.125,5.625 l 16.6875,0 0.3125,-1.71875 c 1.68103,-9.54845 1.02211,-16.09375 -18.21875,-16.09375 l -23.3125,0 z m -111.03125,0.59375 c 0,0 1.47004,0.64375 2.5625,2.46875 1.02895,1.71068 1.68148,6.80626 1.40625,8.5 l -7.625,43.46875 16.65625,0 6.71875,-38.125 c 0,0 0.53363,-0.0964 0.90625,-0.0625 0.37262,0.0339 0.46875,0.25 0.46875,0.25 0,0 17.97123,29.08303 19.25,31.1875 2.67187,4.38678 7.76457,6.82622 12.71875,6.75 4.09885,-0.0635 17.28125,0 17.28125,0 l 9.625,-54.40625 -16.6875,0 -6.71875,38.03125 c 0,0 -0.50196,0.0417 -1.03125,-0.0937 -0.52082,-0.13126 -0.65625,-0.40625 -0.65625,-0.40625 -0.91038,-1.38887 -17.47021,-28.40722 -18.8125,-30.5625 -1.33805,-2.15528 -4.73218,-6.96875 -12.625,-6.96875 l -17.21875,-0.0312 -6.21875,0 z m -70.71875,68.40625 c -5.99583,0 -9.90694,1.11993 -10.90625,6.78125 -0.42343,2.39664 -0.17732,4.01984 0.75,5.125 1.63869,1.95627 5.30887,2.09375 10.75,2.09375 l 5.53125,0 c 1.82924,0 2.78202,0.18725 3.125,0.59375 0.24136,0.28794 0.29014,0.83699 0.125,1.78125 -0.42767,2.41358 -1.19028,3.1875 -5.1875,3.1875 l -9.03125,0 c -1.71914,0 -2.79371,-0.2445 -3.1875,-0.71875 -0.23712,-0.27947 -0.27481,-0.72452 -0.15625,-1.40625 l 0.3125,-1.84375 0.125,-0.65625 -4.5625,0 -0.0937,0.46875 -0.3125,1.90625 c -0.32604,1.85888 -0.0412,3.32065 0.84375,4.375 1.5159,1.80807 4.52714,2.0625 7,2.0625 l 8.0625,0 c 3.53144,0 9.45048,0.001 10.59375,-6.46875 l 0.25,-1.40625 c 0.31334,-1.79113 0.0471,-3.15855 -0.8125,-4.1875 -1.19832,-1.42697 -3.46229,-2.09375 -7.125,-2.09375 l -8.625,0 c -2.21456,0 -3.42717,-0.23019 -3.8125,-0.6875 -0.23289,-0.27523 -0.23187,-0.74909 -0.0625,-1.71875 0.45731,-2.59142 1.48604,-3 7.3125,-3 l 3.0625,0 c 0.74948,0 1.4586,-0.0456 2.09375,-0.0625 1.93086,-0.0635 3.46546,-0.115 4.0625,0.5625 0.41497,0.47001 0.5099,1.3956 0.28125,2.84375 l -0.0937,0.6875 4.53125,0 0.0937,-0.46875 0.1875,-1.09375 c 0.35568,-2.03249 0.10373,-3.4769 -0.78125,-4.53125 -1.2449,-1.48202 -3.74931,-2.125 -8.09375,-2.125 l -6.25,0 z m 36.9375,0 c -5.93655,0 -8.93879,2.64467 -10.03125,8.84375 l -1.0625,5.84375 c -0.58011,3.31126 -0.25498,5.54339 0.96875,7 1.16021,1.3804 3.15672,2.0625 6.125,2.0625 l 10.96875,0 c 6.7072,0 8.56565,-2.73059 9.28125,-6.8125 l 0.3125,-1.78125 0.125,-0.6875 -4.5625,0 -0.0937,0.5 -0.28125,1.65625 c -0.40226,2.26961 -1.07882,2.9375 -4.75,2.9375 l -10.1875,0 c -1.57094,0 -2.53583,-0.28219 -3.03125,-0.875 -0.45731,-0.542 -0.56394,-1.44684 -0.34375,-2.6875 l 1.40625,-8.0625 c 0.54623,-3.11648 2.36988,-3.75 4.90625,-3.75 l 10.0625,0 c 1.44391,0 2.67938,0.0237 3.1875,0.625 0.33451,0.40226 0.40506,1.12891 0.21875,2.1875 l -0.21875,1.3125 -0.125,0.65625 4.375,0 0.0937,-0.46875 0.375,-2.15625 c 0.32604,-1.85041 0.0582,-3.33073 -0.84375,-4.40625 -1.07976,-1.28724 -3.03739,-1.9375 -5.78125,-1.9375 l -11.09375,0 z m 132.1875,0 c -5.93232,0 -8.93879,2.64467 -10.03125,8.84375 l -1.03125,5.84375 c -0.58434,3.30702 -0.28199,5.53915 0.9375,7 1.16444,1.3804 3.19221,2.0625 6.15625,2.0625 l 10.96875,0 c 6.7072,0 8.53016,-2.73059 9.25,-6.8125 l 0.34375,-1.78125 0.0937,-0.6875 -4.5625,0 -0.0625,0.5 -0.3125,1.65625 c -0.39803,2.26961 -1.04757,2.9375 -4.71875,2.9375 l -10.1875,0 c -1.57518,0 -2.5316,-0.28219 -3.03125,-0.875 -0.45307,-0.542 -0.5597,-1.44684 -0.34375,-2.6875 l 1.40625,-8.0625 c 0.55046,-3.11648 2.34286,-3.75 4.875,-3.75 l 10.09375,0 c 1.44391,0 2.68361,0.0237 3.1875,0.625 0.33875,0.40226 0.40506,1.12891 0.21875,2.1875 l -0.21875,1.3125 -0.125,0.65625 4.375,0 0.0937,-0.46875 0.375,-2.15625 c 0.32604,-1.84617 0.0269,-3.33073 -0.875,-4.40625 -1.07976,-1.28724 -3.00614,-1.9375 -5.75,-1.9375 l -11.125,0 z m -101.15625,0.21875 -0.0937,0.46875 -3.90625,22.15625 -0.0937,0.65625 4.71875,0 0.0937,-0.46875 3.90625,-22.125 0.125,-0.6875 -4.75,0 z m 17.59375,0 -0.0937,0.46875 -3.90625,22.15625 -0.125,0.65625 23.03125,0 0.0937,-0.46875 0.53125,-3.03125 0.125,-0.6875 -18.28125,0 1,-5.6875 17.4375,0 0.0937,-0.46875 0.53125,-3.03125 0.125,-0.6875 -0.6875,0 -16.78125,0 0.90625,-5.03125 17.6875,0 0.46875,0 0.0937,-0.46875 0.53125,-3.03125 0.125,-0.6875 -22.90625,0 z m 34.3125,0 -0.0625,0.46875 -3.90625,22.15625 -0.125,0.65625 4.75,0 0.0625,-0.46875 3.03125,-17.21875 15.15625,17.5 0.1875,0.1875 5.53125,0 0.0937,-0.46875 3.90625,-22.15625 0.125,-0.65625 -4.75,0 -0.0937,0.46875 -3.03125,17.21875 -15.15625,-17.5 -0.15625,-0.1875 -5.5625,0 z m 80.21875,0 -0.0937,0.46875 -3.90625,22.15625 -0.0937,0.65625 23.03125,0 0.0625,-0.46875 0.53125,-3.03125 0.125,-0.6875 -18.28125,0 1,-5.6875 17.46875,0 0.0625,-0.46875 0.5625,-3.03125 0.0937,-0.6875 -0.65625,0 -16.78125,0 0.875,-5.03125 17.6875,0 0.46875,0 0.0937,-0.46875 0.53125,-3.03125 0.125,-0.6875 -22.90625,0 z m -210.9375,34.875 0,2.34375 230.625,0 0,-2.34375 -230.625,0 z m 118.375,10.21875 -0.375,2.0625 19.1875,0 0.375,-2.0625 -19.1875,0 z m 90.5,6.71875 c -4.49687,0 -6.32996,2.10034 -7.0625,6.25 l -0.78125,4.34375 c -0.73254,4.14966 0.38236,6.25 4.875,6.25 l 9.15625,0 c 4.50111,0 6.32572,-2.10034 7.0625,-6.25 l 0.75,-4.34375 c 0.73678,-4.14966 -0.34688,-6.25 -4.84375,-6.25 l -9.15625,0 z m -203.28125,0.1875 -0.4375,2.3125 8.0625,0 -2.5,14.15625 2.71875,0 2.5,-14.15625 8.0625,0 0.40625,-2.3125 -18.8125,0 z m 30.875,0 -2.9375,16.46875 16.3125,0 0.40625,-2.3125 -13.5625,0 0.875,-5 12.9375,0 0.40625,-2.34375 -12.9375,0 0.8125,-4.5 13.46875,0 0.40625,-2.3125 -16.1875,0 z m 49.84375,0 -2.90625,16.46875 2.75,0 1.09375,-6.25 10.25,0 c 4.91184,0 5.61061,-2.0131 6.25,-5.625 0.6902,-3.92947 -1.03757,-4.59375 -4.03125,-4.59375 l -13.40625,0 z m 30.8125,0 -2.15625,12.1875 c -0.61398,3.47216 1.05317,4.46875 5.15625,4.46875 l 7.34375,0 c 4.09885,0 6.14025,-0.99659 6.75,-4.46875 l 2.15625,-12.1875 -2.71875,0 -2.15625,12.15625 c -0.23289,1.33805 -0.71965,2.15625 -3.53125,2.15625 l -7.5,0 c -2.81584,0 -3.01837,-0.8182 -2.78125,-2.15625 l 2.15625,-12.15625 -2.71875,0 z m 61.5625,0 -12.6875,16.46875 3.09375,0 2.59375,-3.34375 12.40625,0 1.40625,3.34375 3.09375,0 -6.875,-16.46875 -3.03125,0 z m 30,2.125 8.71875,0 c 1.99438,0 3.35086,0.58439 2.90625,3.125 l -1.0625,5.96875 c -0.44884,2.54061 -2.00562,3.09375 -4,3.09375 l -8.71875,0 c -1.99438,0 -3.35509,-0.55314 -2.90625,-3.09375 l 1.0625,-5.96875 c 0.44884,-2.54061 2.00139,-3.125 4,-3.125 z m -120.0625,0.1875 10.1875,0 c 1.80383,0 2.54217,0.41111 2.25,2.0625 l -0.28125,1.53125 c -0.25406,1.42697 -1.14679,1.96875 -2.78125,1.96875 l -10.34375,0 0.96875,-5.5625 z m 91.125,0.28125 3.40625,8.1875 -9.6875,0 6.28125,-8.1875 z"
       id="path218"
       style="fill:#ffffff;fill-opacity:1;fill-rule:nonzero;stroke:none" />
  </g>
</svg>
