<?xml version="1.0" encoding="utf-8"?>
<!DOCTYPE svg PUBLIC "-//W3C//DTD SVG 1.1//EN" "http://www.w3.org/Graphics/SVG/1.1/DTD/svg11.dtd">
<svg version="1.1" id="World Bank Group logo" xmlns="http://www.w3.org/2000/svg" xmlns:xlink="http://www.w3.org/1999/xlink" x="0px" y="0px"
	 width="241.539px" height="47.353px" viewBox="0 0 241.539 47.353" enable-background="new 0 0 241.539 47.353"
	 xml:space="preserve">
<g>
	<g>
		<defs>
			<path id="SVGID_1_" d="M29.02,38.727c3.111-0.038,6.062-0.493,8.674-1.371c0.657-0.222,1.284-0.466,1.879-0.732
				c-0.726,1.775-1.795,3.255-3.185,4.356c-2.746,2.022-5.985,3.408-9.502,3.938C27.766,43.396,28.476,41.25,29.02,38.727
				 M14.385,43.04c-0.065-0.054-0.135-0.104-0.213-0.142c-1.224-0.596-1.718-3.323-1.081-7.494c2.35,1.057,4.911,1.894,7.601,2.469
				c2.039,0.436,4.071,0.705,6.056,0.809c-0.974,4.234-2.222,6.456-3.049,6.456c-0.053,0-0.104,0.009-0.154,0.016
				C20.267,45.132,17.161,44.378,14.385,43.04 M3.028,29.557c-0.188-0.716-0.306-1.445-0.354-2.186
				c0.735,1.046,1.632,2.069,2.699,3.056c1.612,1.489,3.525,2.821,5.657,3.963c-0.435,2.436-0.558,4.642-0.283,6.422
				C7.072,38.031,4.323,34.099,3.028,29.557 M30.407,23.642c0-0.86-0.013-1.724-0.038-2.585c2.74-0.182,5.278-0.894,7.355-2.089
				c1.923,3.806,2.956,7.82,2.947,11.609c-0.002,1.098-0.096,2.142-0.271,3.127c-0.99,0.606-2.128,1.132-3.41,1.563
				c-2.274,0.765-4.837,1.183-7.553,1.253C30.092,32.604,30.407,28.06,30.407,23.642 M21.153,35.721
				c-2.728-0.585-5.306-1.451-7.64-2.548c0.766-3.448,2.193-7.627,4.456-12.266c0.328-0.672,0.664-1.332,1.006-1.98
				c1.582,0.71,3.303,1.273,5.108,1.659c1.371,0.294,2.742,0.454,4.085,0.5c0.024,0.826,0.036,1.678,0.036,2.556
				c0,5.187-0.415,9.492-1.013,12.855C25.221,36.412,23.193,36.155,21.153,35.721 M6.869,28.81c-1.871-1.729-3.157-3.56-3.813-5.378
				c0.519-2.038,1.524-4.082,3.003-6.041c1.404-1.858,3.148-3.531,5.151-4.969c0.577,1.044,1.387,2.063,2.416,3.028
				c0.979,0.917,2.121,1.748,3.386,2.476c-0.349,0.661-0.69,1.333-1.022,2.016c-1.954,4.004-3.55,8.301-4.486,12.199
				C9.766,31.16,8.202,30.042,6.869,28.81 M28.911,8.341c2.505,1.864,4.8,4.269,6.72,7.082c0.364,0.534,0.707,1.076,1.033,1.623
				c-1.76,1.017-3.985,1.625-6.386,1.796C30.075,15.041,29.625,11.384,28.911,8.341 M24.544,18.432
				c-1.594-0.34-3.11-0.829-4.504-1.442c2.055-3.595,4.303-6.721,6.52-9.045c0.693,2.726,1.274,6.391,1.519,10.935
				C26.912,18.832,25.724,18.685,24.544,18.432 M15.132,13.842c-0.912-0.853-1.604-1.742-2.07-2.635
				c2.064-1.242,4.348-2.254,6.781-2.985c1.447-0.435,2.912-0.758,4.373-0.981c-2.109,2.363-4.215,5.365-6.145,8.756
				C16.97,15.358,15.98,14.637,15.132,13.842 M10.395,6.823c-0.03,0.112-0.063,0.225-0.086,0.341
				c-0.223,1.039-0.197,2.103,0.065,3.159c-2.37,1.635-4.431,3.568-6.072,5.74c-0.5,0.661-0.948,1.336-1.353,2.016
				C4.168,13.568,6.824,9.645,10.395,6.823 M12.461,7.624c0.244-1.143,0.931-2.164,1.994-3.009c2.571-0.768,5.562-0.583,8.706,0.568
				c-1.323,0.23-2.646,0.535-3.951,0.929c-2.43,0.729-4.722,1.726-6.822,2.938C12.34,8.567,12.363,8.09,12.461,7.624 M30.331,4.722
				c0.756-0.489,1.452-0.825,2.034-0.964c1.105,0.443,2.2,1.008,3.238,1.723C33.937,5.065,32.165,4.812,30.331,4.722 M26.621,2.363
				c0.894,0.1,1.847,0.253,2.827,0.482c-0.614,0.329-1.25,0.742-1.896,1.236C27.263,3.432,26.953,2.857,26.621,2.363 M24.234,3.229
				c-0.996-0.382-1.981-0.677-2.952-0.889c0.778-0.087,1.567-0.136,2.368-0.137c0.375,0.005,0.835,0.455,1.317,1.327
				C24.724,3.426,24.479,3.322,24.234,3.229 M0,23.68c0,2.251,0.323,4.427,0.913,6.491c0.036,0.14,0.069,0.277,0.11,0.416
				c0.008,0.026,0.02,0.05,0.03,0.077c2.987,9.658,12.001,16.695,22.628,16.695c4.916,0,9.486-1.506,13.275-4.08
				c0.038-0.021,0.076-0.041,0.111-0.064c0.225-0.153,0.443-0.314,0.654-0.482c4.358-3.22,7.575-7.894,8.93-13.302
				c0.076-0.249,0.143-0.502,0.198-0.758c0.013-0.061,0.017-0.12,0.02-0.18c0.322-1.555,0.492-3.166,0.492-4.813
				c0-3.196-0.626-6.298-1.861-9.217c-0.237-0.561-0.883-0.822-1.443-0.585c-0.561,0.235-0.823,0.883-0.586,1.442
				c1.12,2.646,1.687,5.459,1.687,8.359c0,1.777-0.221,3.504-0.63,5.156c-0.325,1.043-0.897,2.008-1.687,2.883
				c0.019-0.374,0.032-0.752,0.033-1.137c0.009-4.226-1.16-8.688-3.327-12.883c1.589-1.364,2.602-3.05,2.95-4.936
				c0.111-0.598-0.285-1.172-0.883-1.282c-0.598-0.112-1.173,0.284-1.283,0.883c-0.23,1.247-0.877,2.39-1.891,3.363
				c-0.315-0.521-0.642-1.037-0.989-1.546c-1.933-2.834-4.23-5.286-6.744-7.242c3.318,0.218,6.385,1.022,8.855,2.402
				c0.387,0.221,0.902,0.214,1.264-0.088c0.468-0.389,0.53-1.085,0.14-1.553C37.418,2.736,31.281,0,23.681,0
				C10.624,0,0,10.623,0,23.68"/>
		</defs>
		<clipPath id="SVGID_2_">
			<use xlink:href="#SVGID_1_"  overflow="visible"/>
		</clipPath>
		
			<radialGradient id="SVGID_3_" cx="-183.1445" cy="416.0244" r="0.6449" gradientTransform="matrix(60.7425 0 0 -60.7427 11169.9092 25279.2871)" gradientUnits="userSpaceOnUse">
			<stop  offset="0" style="stop-color:#FFFFFF"/>
			<stop  offset="0.0598" style="stop-color:#E7F6FD"/>
			<stop  offset="0.1829" style="stop-color:#AFE2FA"/>
			<stop  offset="0.3589" style="stop-color:#37C6F4"/>
			<stop  offset="0.544" style="stop-color:#00AEEF"/>
			<stop  offset="1" style="stop-color:#0D2240"/>
		</radialGradient>
		<rect clip-path="url(#SVGID_2_)" fill="url(#SVGID_3_)" width="47.361" height="47.359"/>
	</g>
	<path fill="#0D2240" d="M236.109,16.757c3.501,0,5.43,1.694,5.43,4.771c0,2.902-1.899,4.636-5.081,4.636h-2.228v4.439h-2.95V16.757
		H236.109z M234.23,23.755h1.763c1.71,0,2.576-0.749,2.576-2.228c0-1.499-0.949-2.324-2.673-2.324h-1.666V23.755z M225.854,25.057
		c0,2.033-0.78,3.022-2.384,3.022c-1.62,0-2.44-1.018-2.44-3.022v-8.3h-2.95v8.104c-0.009,1.981,0.485,3.486,1.469,4.474
		c0.914,0.918,2.233,1.384,3.922,1.384c2.434,0,5.333-1.017,5.333-5.856v-8.105h-2.949V25.057z M210.035,16.641
		c2.991,0,6.187,1.854,6.187,7.058c0,5.176-3.195,7.021-6.187,7.021c-2.999,0-6.205-1.845-6.205-7.021
		C203.83,18.494,207.036,16.641,210.035,16.641 M210.035,28.137c1.173,0,3.14-0.576,3.14-4.438c0-3.861-1.967-4.438-3.14-4.438
		c-2.036,0-3.157,1.576-3.157,4.438C206.878,26.561,207.999,28.137,210.035,28.137 M200.787,26.405
		c0.487,0.991,0.908,1.848,1.882,1.848h0.7v2.278l-0.101,0.027c-0.021,0.006-0.533,0.141-1.432,0.141
		c-2.33,0-3.044-1.604-3.675-3.017c-0.517-1.159-0.964-2.16-2.182-2.16h-1.297v5.08h-2.949V16.757h4.906
		c3.586,0,5.256,1.398,5.256,4.401c0,1.858-1.115,3.005-2.229,3.496C200.16,25.13,200.478,25.776,200.787,26.405 M194.684,23.232
		h1.646c1.638,0,2.655-0.765,2.655-1.995c0-1.293-0.89-2.034-2.441-2.034h-1.86V23.232z M183.884,25.542h3.044v0.153
		c0,0.898-0.317,2.402-2.441,2.402c-2.002,0-3.196-1.645-3.196-4.399c0-2.819,1.144-4.438,3.138-4.438c2.373,0,2.458,2.4,2.46,2.503
		l0.005,0.156l2.752-0.43v-0.118c0-0.999-0.891-4.731-5.255-4.731c-3.907,0-6.147,2.572-6.147,7.058
		c0,4.396,2.313,7.021,6.186,7.021c3.894,0,5.275-2.716,5.275-5.042v-2.405h-5.819V25.542z M175.052,16.757h-3.506l-4.582,6.232
		v-6.232h-2.988v13.846h2.988v-6.37l4.698,6.37h3.547l-5.359-6.981L175.052,16.757z M158.374,25.31l-4.843-8.553h-2.99v13.846h2.951
		v-8.258l4.823,8.258h3.008V16.757h-2.949V25.31z M144.702,16.847l5.05,13.756h-3.066l-1.183-3.393h-4.612l-1.144,3.393h-3.088
		l5.084-13.846h2.926L144.702,16.847z M143.197,20.532l-1.495,4.367h3.025L143.197,20.532z M133.92,23.305
		c1.064,0.306,2.455,1.28,2.455,3.36c0,2.502-1.774,3.938-4.867,3.938h-5.838V16.757h5.275c2.998,0,4.52,1.253,4.52,3.724
		C135.465,22.393,134.594,23.068,133.92,23.305 M130.635,22.418c1.229,0,1.802-0.517,1.802-1.627c0-1.054-0.73-1.588-2.17-1.588
		h-1.646v3.215H130.635z M128.62,28.156h2.306c1.507,0,2.208-0.566,2.208-1.781c0-1.489-1.231-1.802-2.267-1.802h-2.247V28.156z
		 M113.518,16.757c4.31,0,6.883,2.675,6.883,7.155c0,4.252-2.296,6.69-6.302,6.69h-4.694V16.757H113.518z M112.356,28.156h1.724
		c2.123,0,3.392-1.602,3.392-4.283c0-3.099-1.344-4.67-3.993-4.67h-1.123V28.156z M102.043,16.757h-2.95v13.846h8.94v-2.446h-5.99
		V16.757z M95.119,26.405c0.487,0.991,0.909,1.848,1.883,1.848h0.7v2.278L97.6,30.559c-0.021,0.006-0.532,0.141-1.431,0.141
		c-2.329,0-3.044-1.604-3.674-3.017c-0.517-1.159-0.964-2.16-2.181-2.16h-1.298v5.08h-2.95V16.757h4.907
		c3.585,0,5.256,1.398,5.256,4.401c0,1.858-1.115,3.005-2.228,3.496C94.492,25.13,94.811,25.776,95.119,26.405 M89.016,23.232h1.647
		c1.637,0,2.654-0.765,2.654-1.995c0-1.293-0.89-2.034-2.441-2.034h-1.86V23.232z M78.197,16.641c2.991,0,6.187,1.854,6.187,7.058
		c0,5.176-3.195,7.021-6.187,7.021c-3,0-6.205-1.845-6.205-7.021C71.993,18.494,75.198,16.641,78.197,16.641 M78.197,28.137
		c1.173,0,3.139-0.576,3.139-4.438c0-3.861-1.966-4.438-3.139-4.438c-2.036,0-3.158,1.576-3.158,4.438
		C75.04,26.561,76.161,28.137,78.197,28.137 M68.242,16.757h3.335l-3.976,13.846h-3.33l-2.417-8.683l-2.455,8.683h-3.329
		l-3.976-13.846h3.433l2.326,10.104l2.792-10.104h2.479l2.698,10.104L68.242,16.757z"/>
</g>
</svg>
