<?xml version="1.0" encoding="utf-8"?>
<!DOCTYPE svg PUBLIC "-//W3C//DTD SVG 1.1//EN" "http://www.w3.org/Graphics/SVG/1.1/DTD/svg11.dtd">
<svg version="1.1" id="logo-camptocamp" xmlns="http://www.w3.org/2000/svg" xmlns:xlink="http://www.w3.org/1999/xlink" x="0px" y="0px"
	 width="88.049px" height="42.537px" viewBox="0 0 88.049 42.537" enable-background="new 0 0 88.049 42.537" xml:space="preserve">
<g id="logo">
	<path fill="#FF7546" d="M88.041,15.016h-0.308v-0.314v-0.309h-0.314v-0.314v-0.307h-0.308v-0.623H86.8V12.84h-0.312v-0.314h-0.312
		v0.623v0.088v0.219h-0.311v0.316h0.311v0.139v0.168h-0.311v-0.307h-0.312v0.307h-0.312v0.314h0.312v0.309h-0.312v0.314h-0.308
		v-0.314h0.308v-0.309h-0.308v-0.621h-0.622v0.307h-0.312v0.314H83.69v0.623h0.312v0.309H83.69v-0.309h-0.312v-0.314h-0.311v-0.309
		h-0.312v0.623h-0.619v0.309h-0.312v-0.309h-0.312v0.309v0.248v1.619h2.487h0.165h3.874V15.016L88.041,15.016z M85.866,12.84v-0.314
		h-0.312v0.314H85.866L85.866,12.84z M85.555,13.455V12.84h-0.312v0.615H85.555L85.555,13.455z M85.243,13.771v-0.316h-0.308v0.316
		H85.243L85.243,13.771z M84.002,13.771h0.312v-0.316h-0.312V13.771L84.002,13.771z M83.69,14.078v-0.623h-0.312v0.623H83.69
		L83.69,14.078z M83.379,14.393v-0.314h-0.311v0.314H83.379L83.379,14.393z M82.445,14.701v-0.309h-0.308v0.309H82.445
		L82.445,14.701z M82.138,15.016v-0.314h-0.312v0.314H82.138L82.138,15.016z M82.445,14.393h0.312v-0.314h-0.312V14.393
		L82.445,14.393z M83.69,13.455h0.312v-0.307H83.69V13.455L83.69,13.455z M84.002,12.84v0.309h0.312V12.84H84.002L84.002,12.84z
		 M85.866,12.525h0.311v-0.307h-0.311V12.525L85.866,12.525z"/>
	<path fill="#757B82" d="M2.637,39.188H1.164v3.281h1.52c0.729,0,1.213-0.314,1.213-0.908c0-0.447-0.268-0.666-0.652-0.799
		c0.246-0.131,0.469-0.336,0.469-0.74C3.713,39.51,3.296,39.188,2.637,39.188L2.637,39.188z M2.52,40.573H1.731V39.7H2.56
		c0.373,0,0.578,0.154,0.578,0.418C3.138,40.426,2.889,40.573,2.52,40.573L2.52,40.573z M2.688,41.958H1.731v-0.902h0.916
		c0.454,0,0.674,0.162,0.674,0.447C3.321,41.803,3.079,41.958,2.688,41.958L2.688,41.958z M5.859,41.159l1.304-1.971H6.504
		l-0.931,1.451l-0.919-1.451H3.977l1.304,1.984v1.297h0.579V41.159L5.859,41.159z M12.173,40.821c0-0.93-0.703-1.691-1.71-1.691
		c-1.008,0-1.722,0.775-1.722,1.699c0,0.93,0.703,1.691,1.711,1.691C11.459,42.52,12.173,41.752,12.173,40.821L12.173,40.821z
		 M11.568,40.829c0,0.645-0.454,1.164-1.105,1.164c-0.652,0-1.117-0.527-1.117-1.172s0.454-1.164,1.106-1.164
		C11.104,39.657,11.568,40.192,11.568,40.829L11.568,40.829z M15.318,40.288c0-0.668-0.483-1.1-1.248-1.1h-1.293v3.281h0.575v-1.055
		h0.651C14.726,41.415,15.318,41.026,15.318,40.288L15.318,40.288z M14.732,40.301c0,0.352-0.274,0.594-0.71,0.594h-0.67v-1.188
		h0.67C14.454,39.708,14.732,39.913,14.732,40.301L14.732,40.301z M18.245,39.188h-2.432v3.281h2.457v-0.52h-1.878v-0.879h1.644
		v-0.514h-1.644V39.7h1.853V39.188L18.245,39.188z M21.153,41.452l-1.758-2.264H18.86v3.281h0.567v-2.336l1.81,2.336h0.479v-3.281
		h-0.563V41.452L21.153,41.452z M24.27,40.043c0-0.219,0.194-0.395,0.535-0.395c0.296,0,0.593,0.117,0.89,0.336l0.308-0.432
		c-0.333-0.271-0.711-0.418-1.19-0.418c-0.651,0-1.12,0.389-1.12,0.961c0,0.607,0.396,0.82,1.091,0.982
		c0.611,0.146,0.743,0.27,0.743,0.504c0,0.258-0.227,0.418-0.582,0.418c-0.406,0-0.722-0.154-1.036-0.424l-0.348,0.41
		c0.396,0.352,0.867,0.527,1.369,0.527c0.688,0,1.172-0.367,1.172-0.982c0-0.549-0.362-0.799-1.055-0.967
		C24.42,40.411,24.27,40.301,24.27,40.043L24.27,40.043z M29.972,40.821c0-0.93-0.703-1.691-1.71-1.691
		c-1.008,0-1.722,0.775-1.722,1.699c0,0.93,0.703,1.691,1.711,1.691C29.258,42.52,29.972,41.752,29.972,40.821L29.972,40.821z
		 M29.367,40.829c0,0.645-0.454,1.164-1.105,1.164c-0.652,0-1.117-0.527-1.117-1.172s0.454-1.164,1.106-1.164
		C28.902,39.657,29.367,40.192,29.367,40.829L29.367,40.829z M33.334,39.188h-0.579v1.891c0,0.6-0.314,0.908-0.824,0.908
		c-0.516,0-0.831-0.322-0.831-0.938v-1.861h-0.575v1.891c0,0.943,0.542,1.441,1.396,1.441c0.857,0,1.414-0.498,1.414-1.471V39.188
		L33.334,39.188z M36.813,42.469l-0.887-1.244c0.462-0.125,0.784-0.455,0.784-0.996c0-0.646-0.466-1.041-1.22-1.041H34.03v3.281
		h0.578v-1.15h0.722l0.806,1.15H36.813L36.813,42.469z M36.125,40.258c0,0.336-0.264,0.557-0.674,0.557h-0.843v-1.107h0.839
		C35.872,39.708,36.125,39.897,36.125,40.258L36.125,40.258z M40.179,41.942l-0.37-0.373c-0.281,0.264-0.538,0.424-0.941,0.424
		c-0.63,0-1.084-0.527-1.084-1.172s0.454-1.164,1.084-1.164c0.374,0,0.656,0.168,0.92,0.41l0.37-0.426
		c-0.315-0.301-0.682-0.512-1.286-0.512c-0.992,0-1.691,0.762-1.691,1.699c0,0.953,0.71,1.691,1.67,1.691
		C39.461,42.52,39.838,42.301,40.179,41.942L40.179,41.942z M43.123,39.188h-2.436v3.281h2.458v-0.52h-1.879v-0.879h1.645v-0.514
		h-1.645V39.7h1.856V39.188L43.123,39.188z M47.481,39.188h-2.436v3.281h2.457v-0.52h-1.879v-0.879h1.645v-0.514h-1.645V39.7h1.857
		V39.188L47.481,39.188z M50.913,42.469l-1.187-1.678l1.143-1.604h-0.663l-0.82,1.172l-0.813-1.172h-0.681l1.149,1.611l-1.197,1.67
		h0.663l0.868-1.244l0.86,1.244H50.913L50.913,42.469z M53.956,40.288c0-0.668-0.483-1.1-1.245-1.1h-1.296v3.281h0.578v-1.055h0.652
		C53.367,41.415,53.956,41.026,53.956,40.288L53.956,40.288z M53.37,40.301c0,0.352-0.271,0.594-0.706,0.594h-0.671v-1.188h0.671
		C53.096,39.708,53.37,39.913,53.37,40.301L53.37,40.301z M56.886,39.188h-2.432v3.281h2.454v-0.52h-1.879v-0.879h1.645v-0.514
		h-1.645V39.7h1.856V39.188L56.886,39.188z M60.285,42.469l-0.887-1.244c0.458-0.125,0.78-0.455,0.78-0.996
		c0-0.646-0.462-1.041-1.216-1.041h-1.466v3.281h0.579v-1.15h0.722l0.806,1.15H60.285L60.285,42.469z M59.593,40.258
		c0,0.336-0.26,0.557-0.674,0.557h-0.843v-1.107h0.839C59.34,39.708,59.593,39.897,59.593,40.258L59.593,40.258z M62.167,39.721
		h1.04v-0.533h-2.662v0.533h1.04v2.748h0.582V39.721L62.167,39.721z M64.138,40.043c0-0.219,0.197-0.395,0.534-0.395
		c0.301,0,0.598,0.117,0.891,0.336l0.311-0.432c-0.333-0.271-0.714-0.418-1.189-0.418c-0.652,0-1.121,0.389-1.121,0.961
		c0,0.607,0.392,0.82,1.092,0.982c0.607,0.146,0.739,0.27,0.739,0.504c0,0.258-0.224,0.418-0.578,0.418
		c-0.41,0-0.726-0.154-1.037-0.424l-0.348,0.41c0.396,0.352,0.868,0.527,1.37,0.527c0.688,0,1.172-0.367,1.172-0.982
		c0-0.549-0.363-0.799-1.055-0.967C64.288,40.411,64.138,40.301,64.138,40.043L64.138,40.043z"/>
	<path fill="#757B82" d="M1.197,33.987v3.281h0.575v-3.281H1.197L1.197,33.987z M4.849,36.25l-1.758-2.264H2.556v3.281h0.567v-2.336
		l1.81,2.336h0.483v-3.281H4.849V36.25L4.849,36.25z M8.456,36.25l-1.758-2.264H6.167v3.281H6.73v-2.336l1.81,2.336h0.483v-3.281
		H8.456V36.25L8.456,36.25z M13.06,35.62c0-0.93-0.703-1.691-1.711-1.691c-1.007,0-1.721,0.77-1.721,1.699s0.703,1.691,1.71,1.691
		S13.06,36.551,13.06,35.62L13.06,35.62z M12.455,35.627c0,0.645-0.454,1.164-1.106,1.164c-0.651,0-1.116-0.527-1.116-1.172
		s0.454-1.164,1.105-1.164C11.99,34.456,12.455,34.991,12.455,35.627L12.455,35.627z M14.806,36.506l-0.988-2.52H13.18l1.362,3.303
		h0.506l1.366-3.303h-0.622L14.806,36.506L14.806,36.506z M18.109,33.958h-0.534l-1.443,3.311h0.59l0.337-0.799h1.553l0.333,0.799
		h0.608L18.109,33.958L18.109,33.958z M18.399,35.965h-1.128l0.56-1.313L18.399,35.965L18.399,35.965z M20.984,34.522h1.04v-0.535
		h-2.658v0.535h1.04v2.746h0.578V34.522L20.984,34.522z M22.574,33.987v3.281h0.578v-3.281H22.574L22.574,33.987z M25.276,36.506
		l-0.988-2.52h-0.634l1.362,3.303h0.506l1.365-3.303h-0.626L25.276,36.506L25.276,36.506z M29.789,33.987h-2.436v3.281h2.457v-0.52
		h-1.879V35.87h1.645v-0.514h-1.645V34.5h1.857V33.987L29.789,33.987z M32.202,34.844c0-0.221,0.194-0.396,0.531-0.396
		c0.3,0,0.597,0.117,0.894,0.338l0.308-0.432c-0.334-0.271-0.711-0.418-1.19-0.418c-0.652,0-1.121,0.389-1.121,0.959
		c0,0.607,0.396,0.82,1.092,0.982c0.611,0.146,0.743,0.27,0.743,0.504c0,0.258-0.227,0.418-0.582,0.418
		c-0.406,0-0.722-0.154-1.036-0.424l-0.349,0.41c0.396,0.352,0.868,0.527,1.37,0.527c0.688,0,1.172-0.367,1.172-0.982
		c0-0.549-0.362-0.799-1.055-0.967C32.353,35.209,32.202,35.1,32.202,34.844L32.202,34.844z M37.904,35.62
		c0-0.93-0.703-1.691-1.71-1.691s-1.722,0.77-1.722,1.699s0.703,1.691,1.711,1.691C37.19,37.319,37.904,36.551,37.904,35.62
		L37.904,35.62z M37.3,35.627c0,0.645-0.454,1.164-1.105,1.164c-0.652,0-1.117-0.527-1.117-1.172s0.454-1.164,1.106-1.164
		C36.835,34.456,37.3,34.991,37.3,35.627L37.3,35.627z M38.509,37.268h2.3v-0.527h-1.725v-2.754h-0.575V37.268L38.509,37.268z
		 M43.977,33.987h-0.575v1.883c0,0.607-0.314,0.916-0.824,0.916c-0.516,0-0.831-0.33-0.831-0.938v-1.861h-0.575v1.883
		c0,0.951,0.542,1.449,1.396,1.449c0.857,0,1.41-0.498,1.41-1.471V33.987L43.977,33.987z M46.064,34.522h1.04v-0.535h-2.663v0.535
		h1.04v2.746h0.583V34.522L46.064,34.522z M47.653,33.987v3.281h0.575v-3.281H47.653L47.653,33.987z M52.298,35.62
		c0-0.93-0.703-1.691-1.711-1.691c-1.011,0-1.722,0.77-1.722,1.699s0.703,1.691,1.711,1.691
		C51.583,37.319,52.298,36.551,52.298,35.62L52.298,35.62z M51.689,35.627c0,0.645-0.454,1.164-1.103,1.164
		c-0.652,0-1.117-0.527-1.117-1.172s0.454-1.164,1.106-1.164C51.228,34.456,51.689,34.991,51.689,35.627L51.689,35.627z
		 M55.19,36.25l-1.758-2.264h-0.531v3.281h0.564v-2.336l1.813,2.336h0.479v-3.281H55.19V36.25L55.19,36.25z M56.996,34.844
		c0-0.221,0.197-0.396,0.534-0.396c0.301,0,0.594,0.117,0.891,0.338l0.308-0.432c-0.33-0.271-0.711-0.418-1.188-0.418
		c-0.651,0-1.12,0.389-1.12,0.959c0,0.607,0.392,0.82,1.091,0.982c0.608,0.146,0.74,0.27,0.74,0.504
		c0,0.258-0.227,0.418-0.582,0.418c-0.407,0-0.722-0.154-1.037-0.424l-0.344,0.41c0.392,0.352,0.864,0.527,1.366,0.527
		c0.692,0,1.172-0.367,1.172-0.982c0-0.549-0.358-0.799-1.051-0.967C57.146,35.209,56.996,35.1,56.996,34.844L56.996,34.844z"/>
	<path fill="#FF7546" d="M8.097,29.022v-2.639c0,0-0.688,0.184-1.662,0.184c-0.751,0-1.084-0.541-1.084-1.318v-5.077h2.453v-2.877
		H5.351v-3.033H1.98v3.033H0.563v2.877H1.98v5.633c0,2.748,1.399,3.568,3.458,3.568C7.339,29.374,8.097,29.022,8.097,29.022
		L8.097,29.022z"/>
	<path fill="#FF7546" d="M21.948,23.256v-0.043c0-3.415-2.726-6.139-6.402-6.139c-3.699,0-6.449,2.77-6.449,6.182v0.045
		c0,3.412,2.725,6.139,6.405,6.139C19.201,29.44,21.948,26.67,21.948,23.256L21.948,23.256z M18.626,23.301
		c0,1.75-1.153,3.229-3.08,3.229c-1.86,0-3.124-1.523-3.124-3.273v-0.043c0-1.752,1.15-3.239,3.08-3.239
		c1.86,0,3.124,1.531,3.124,3.282V23.301L18.626,23.301z"/>
	<path fill="#757B82" d="M57.149,6.184V6.139C57.149,2.176,54.513,0,51.744,0c-1.751,0-2.882,0.82-3.702,1.928V0.229h-3.165v15.418
		h3.165v-5.098c0.798,0.951,1.907,1.771,3.702,1.771C54.557,12.32,57.149,10.152,57.149,6.184L57.149,6.184z M54.117,6.184
		c0,1.998-1.329,3.281-2.9,3.281c-1.575,0-2.882-1.313-2.882-3.281V6.139c0-1.971,1.307-3.275,2.882-3.275
		c1.571,0,2.9,1.305,2.9,3.275V6.184L54.117,6.184z"/>
	<path fill="#757B82" d="M80.658,23.256v-0.043c0-3.971-2.637-6.139-5.406-6.139c-1.75,0-2.882,0.82-3.698,1.926v-1.705h-3.168
		v15.418h3.168v-5.092c0.798,0.953,1.904,1.773,3.698,1.773C78.065,29.395,80.658,27.219,80.658,23.256L80.658,23.256z
		 M77.626,23.256c0,1.992-1.326,3.273-2.901,3.273c-1.574,0-2.878-1.303-2.878-3.273v-0.043c0-1.979,1.304-3.282,2.878-3.282
		c1.575,0,2.901,1.303,2.901,3.282V23.256L77.626,23.256z"/>
	<path fill="#757B82" d="M11.03,10.197l-1.971-2c-0.82,0.775-1.597,1.268-2.725,1.268C4.497,9.465,3.321,8,3.321,6.184V6.139
		c0-1.75,1.197-3.23,2.882-3.23c1.194,0,1.948,0.506,2.699,1.305L10.965,2C9.858,0.756,8.463,0,6.222,0C2.589,0,0,2.791,0,6.184
		v0.043c0,3.391,2.61,6.139,6.178,6.139C8.551,12.365,9.881,11.457,11.03,10.197L11.03,10.197z"/>
	<path fill="#757B82" d="M34.543,27.262l-1.975-1.992c-0.82,0.777-1.593,1.26-2.725,1.26c-1.839,0-3.015-1.457-3.015-3.273v-0.043
		c0-1.752,1.198-3.239,2.883-3.239c1.193,0,1.948,0.514,2.702,1.311l2.059-2.219c-1.106-1.238-2.501-1.992-4.739-1.992
		c-3.633,0-6.226,2.791-6.226,6.182v0.045c0,3.391,2.615,6.139,6.182,6.139C32.06,29.44,33.389,28.532,34.543,27.262L34.543,27.262z
		"/>
	<path fill="#757B82" d="M22.823,12.094c0,0-0.019-5.705-0.019-7.705C22.805,2.021,20.966,0,17.506,0
		c-3.113,0-4.824,1.992-4.824,1.992l1.996,2.111c0,0,0.843-1.203,2.726-1.203c1.432,0,2.12,0.426,2.12,1.145
		c0,1.992-7.277-0.301-7.277,4.973c0,2.557,1.864,3.348,3.615,3.348c2.691,0,3.662-1.518,3.662-1.518l-0.025,1.246H22.823
		L22.823,12.094z M16.964,9.934c-0.956,0-1.538-0.498-1.538-1.137c0-0.732,0.352-1.113,1.402-1.266
		c2.189-0.322,2.729-0.703,2.729-0.703C19.911,9.604,17.981,9.934,16.964,9.934L16.964,9.934z"/>
	<path fill="#757B82" d="M46.331,29.168c0,0-0.018-5.715-0.018-7.713c0-2.367-1.839-4.381-5.3-4.381
		c-3.113,0-4.823,1.992-4.823,1.992l1.996,2.109c0,0,0.842-1.201,2.729-1.201c1.428,0,2.12,0.418,2.12,1.143
		c0,1.985-7.28-0.307-7.28,4.973c0,2.559,1.867,3.35,3.614,3.35c2.695,0,3.666-1.523,3.666-1.523l-0.029,1.244L46.331,29.168
		L46.331,29.168z M40.472,26.999c-0.956,0-1.538-0.498-1.538-1.135c0-0.725,0.355-1.105,1.402-1.26
		c2.194-0.322,2.732-0.711,2.732-0.711C43.42,26.67,41.49,26.999,40.472,26.999L40.472,26.999z"/>
	<path fill="#757B82" d="M42.962,12.102V4.367C42.962,1.51,41.453,0,38.952,0c-1.619,0-2.86,0.668-3.9,1.883
		C34.433,0.689,33.257,0,31.708,0c-1.707,0-2.729,0.908-3.501,1.912V0.229h-3.37v11.873h3.37V5.473c0-1.59,0.772-2.41,2.036-2.41
		c1.263,0,1.974,0.82,1.974,2.41v6.629h3.366V5.473c0-1.59,0.776-2.41,2.039-2.41c1.264,0,1.971,0.82,1.971,2.41v6.629H42.962
		L42.962,12.102z"/>
	<path fill="#757B82" d="M66.471,29.168v-7.729c0-2.855-1.506-4.365-4.011-4.365c-1.618,0-2.856,0.666-3.9,1.883
		c-0.618-1.193-1.795-1.883-3.344-1.883c-1.706,0-2.725,0.908-3.501,1.904v-1.684h-3.369v11.874h3.369v-6.623
		c0-1.596,0.776-2.417,2.04-2.417c1.26,0,1.97,0.82,1.97,2.417v6.623h3.37v-6.623c0-1.596,0.772-2.417,2.036-2.417
		s1.97,0.82,1.97,2.417v6.623H66.471L66.471,29.168z"/>
</g>
</svg>
