<?xml version="1.0" encoding="utf-8"?>
<!DOCTYPE svg PUBLIC "-//W3C//DTD SVG 1.1//EN" "http://www.w3.org/Graphics/SVG/1.1/DTD/svg11.dtd">
<svg version="1.1" id="logo-brgm" xmlns="http://www.w3.org/2000/svg" xmlns:xlink="http://www.w3.org/1999/xlink" x="0px" y="0px"
	 width="105.504px" height="42.563px" viewBox="0 0 105.504 42.563" enable-background="new 0 0 105.504 42.563"
	 xml:space="preserve">
<g id="logo">
	<path fill="#995322" d="M11.88,0.043c-6.535,0-11.833,5.299-11.833,11.834c0,6.537,5.298,11.834,11.833,11.834
		c6.537,0,11.836-5.297,11.836-11.834C23.716,5.342,18.417,0.043,11.88,0.043 M11.88,8.297c-1.169,0-2.119,0.859-2.119,1.916
		c0,0.334,0.095,0.648,0.263,0.922c-1.134-0.32-1.809-0.857-1.858-1.703C8.074,7.857,9.595,6.23,11.88,6.23
		c2.285,0,3.807,1.627,3.715,3.201c-0.05,0.846-0.724,1.383-1.858,1.703c0.167-0.273,0.262-0.588,0.262-0.922
		C13.999,9.156,13.049,8.297,11.88,8.297z M17.137,8.932c0.016-0.152,0.025-0.307,0.025-0.461c0-2.516-2.365-4.551-5.282-4.551
		c-2.917,0-5.28,2.035-5.28,4.551c0,0.154,0.008,0.309,0.027,0.461c-0.509-0.709-0.799-1.527-0.799-2.4
		c0-2.672,2.709-4.838,6.052-4.838c3.345,0,6.055,2.166,6.055,4.838C17.935,7.404,17.644,8.223,17.137,8.932z"/>
	<g>
		<path fill="#035D75" d="M27.187,11.887h3.391v8.342h0.066c0.731-1.096,1.795-1.727,3.124-1.727c1.629,0,2.459,0.631,3.024,1.527
			c0.432,0.699,0.531,1.662,0.531,4.088v6.416c0,1.861-0.165,2.891-0.563,3.621c-0.6,1.098-1.597,1.596-2.959,1.596
			c-1.695,0-2.359-0.764-3.224-1.729v1.531h-3.391V11.887 M33.934,23.887c0-1.064-0.366-1.997-1.663-1.997
			c-0.962,0-1.693,0.766-1.693,1.829v6.549c0,1.229,0.665,2.092,1.693,2.092c1.166,0,1.663-0.93,1.663-2.293V23.887z"/>
		<path fill="#035D75" d="M40.115,18.701h3.391v1.795c1.395-1.23,2.524-1.994,4.485-1.994v3.588
			c-0.332-0.133-0.665-0.199-1.03-0.199c-1.43,0-3.455,0.899-3.455,3.657v10.006h-3.391V18.701z"/>
		<path fill="#035D75" d="M52.743,37.514c0.034,0.797,0.632,1.66,1.796,1.66c1.098,0,1.563-0.766,1.563-1.828v-3.324h-0.068
			c-0.73,1.096-1.793,1.729-3.155,1.729c-1.363,0-2.36-0.498-2.958-1.596c-0.4-0.73-0.566-1.76-0.566-3.621v-6.416
			c0-2.426,0.099-3.389,0.532-4.088c0.564-0.896,1.395-1.527,3.023-1.527c1.665,0,2.327,0.764,3.192,1.727v-1.527h3.388v18.911
			c0,2.293-1.495,4.951-5.085,4.951c-2.06,0-4.618-1.197-5.05-5.049H52.743 M52.743,30.368c0,1.063,0.366,1.992,1.661,1.992
			c0.965,0,1.697-0.762,1.697-1.826v-6.547c0-1.23-0.665-2.096-1.697-2.096c-1.163,0-1.661,0.932-1.661,2.293V30.368z"/>
		<path fill="#035D75" d="M62.281,18.701h3.391v1.629h0.065c0.698-1.064,1.63-1.828,3.191-1.828c1.462,0,2.427,0.863,3.022,1.695
			c0.834-0.932,1.73-1.695,3.524-1.695c1.694,0,3.688,1.096,3.688,4.122v12.93h-3.39V23.887c0-1.23-0.599-1.997-1.662-1.997
			c-1.263,0-1.694,0.833-1.694,2.329v11.334h-3.39V23.887c0-1.23-0.599-1.997-1.661-1.997c-1.263,0-1.695,0.833-1.695,2.329v11.334
			h-3.391V18.701z"/>
	</g>
	<g>
		<path fill="#035D75" d="M37.706,10.904V8.596c0-0.67,0.504-1.02,1.003-1.02c0.498,0,1.002,0.35,1.002,1.02c0,0,0,0.117,0,0.176
			c-0.074,0-0.459,0-0.532,0c0-0.059,0-0.176,0-0.176c0-0.297-0.185-0.488-0.47-0.488c-0.286,0-0.471,0.191-0.471,0.488v2.309
			c0,0.297,0.185,0.488,0.471,0.488c0.285,0,0.47-0.191,0.47-0.488v-0.869c0,0-0.421,0-0.498,0c0-0.072,0-0.389,0-0.459
			c0.082,0,0.948,0,1.03,0c0,0.086,0,1.328,0,1.328c0,0.67-0.504,1.021-1.002,1.021C38.209,11.926,37.706,11.574,37.706,10.904z"/>
		<path fill="#035D75" d="M40.467,11.502c-0.074-0.137-0.11-0.336-0.11-0.609V9.867c0-0.273,0.036-0.473,0.11-0.609
			c0.146-0.27,0.429-0.424,0.775-0.424c0.522,0,0.887,0.379,0.887,0.922c0,0,0,0.729,0,0.813c-0.087,0-1.24,0-1.24,0v0.471
			c0,0.219,0.135,0.354,0.353,0.354c0.137,0,0.301-0.061,0.343-0.313c0.058,0,0.449,0,0.535,0c-0.011,0.225-0.089,0.436-0.23,0.584
			c-0.167,0.172-0.385,0.262-0.647,0.262C40.896,11.926,40.614,11.771,40.467,11.502z M40.89,9.77v0.402h0.707V9.77
			c0-0.254-0.132-0.404-0.354-0.404C41.021,9.365,40.89,9.516,40.89,9.77z"/>
		<path fill="#035D75" d="M42.83,11.502c-0.074-0.139-0.111-0.342-0.111-0.609V9.867c0-0.271,0.037-0.471,0.111-0.609
			c0.146-0.27,0.429-0.424,0.776-0.424c0.346,0,0.628,0.154,0.775,0.424c0.075,0.139,0.111,0.338,0.111,0.609v1.025
			c0,0.271-0.037,0.471-0.111,0.609c-0.146,0.27-0.429,0.424-0.775,0.424C43.259,11.926,42.976,11.771,42.83,11.502z M43.252,9.77
			v1.221c0,0.252,0.133,0.402,0.354,0.402c0.221,0,0.353-0.15,0.353-0.402V9.77c0-0.254-0.132-0.404-0.353-0.404
			C43.385,9.365,43.252,9.516,43.252,9.77z"/>
		<path fill="#035D75" d="M46.273,11.045c0-0.205-0.103-0.332-0.344-0.424l-0.301-0.111c-0.388-0.145-0.602-0.434-0.602-0.814
			c0-0.482,0.384-0.861,0.874-0.861c0.463,0,0.8,0.342,0.829,0.814c-0.085,0-0.438,0-0.496,0c-0.026-0.189-0.164-0.318-0.357-0.318
			c-0.23,0-0.354,0.184-0.354,0.359c0,0.127,0.035,0.26,0.293,0.363l0.369,0.145c0.393,0.152,0.583,0.424,0.583,0.836
			c0,0.5-0.389,0.893-0.886,0.893c-0.5,0-0.835-0.334-0.876-0.846c0.086,0,0.443,0,0.499,0c0.056,0.281,0.229,0.35,0.372,0.35
			C46.071,11.43,46.273,11.285,46.273,11.045z"/>
		<path fill="#035D75" d="M47.446,11.502c-0.075-0.139-0.111-0.338-0.111-0.609V9.867c0-0.271,0.037-0.471,0.111-0.609
			c0.146-0.27,0.429-0.424,0.775-0.424c0.514,0,0.858,0.361,0.878,0.9c-0.084,0-0.471,0-0.533,0
			c-0.021-0.311-0.221-0.369-0.346-0.369c-0.222,0-0.354,0.15-0.354,0.404v1.27c0,0.219,0.136,0.354,0.354,0.354
			c0.137,0,0.301-0.061,0.343-0.313c0.057,0,0.449,0,0.535,0c-0.01,0.225-0.088,0.436-0.23,0.584
			c-0.167,0.172-0.385,0.262-0.647,0.262C47.875,11.926,47.592,11.771,47.446,11.502z"/>
		<g>
			<path fill="#035D75" d="M50.163,7.611c0,0.074,0,0.461,0,0.533c-0.074,0-0.459,0-0.533,0c0-0.072,0-0.459,0-0.533
				C49.704,7.611,50.089,7.611,50.163,7.611z"/>
			<path fill="#035D75" d="M50.163,8.869c0,0.09,0,2.93,0,3.02c-0.074,0-0.459,0-0.533,0c0-0.09,0-2.93,0-3.02
				C49.704,8.869,50.089,8.869,50.163,8.869z"/>
		</g>
		<path fill="#035D75" d="M50.888,11.502c-0.075-0.139-0.111-0.338-0.111-0.609V9.867c0-0.271,0.036-0.471,0.111-0.609
			c0.146-0.27,0.429-0.424,0.775-0.424c0.522,0,0.887,0.379,0.887,0.922c0,0,0,0.729,0,0.813c-0.086,0-1.24,0-1.24,0v0.471
			c0,0.219,0.135,0.354,0.353,0.354c0.138,0,0.301-0.061,0.343-0.313c0.057,0,0.45,0,0.536,0c-0.011,0.225-0.089,0.436-0.231,0.584
			c-0.168,0.172-0.386,0.262-0.648,0.262C51.317,11.926,51.035,11.771,50.888,11.502z M51.311,9.77v0.402h0.707V9.77
			c0-0.254-0.132-0.404-0.354-0.404C51.442,9.365,51.311,9.516,51.311,9.77z"/>
		<path fill="#035D75" d="M57.97,11.502c-0.074-0.139-0.11-0.338-0.11-0.609V9.867c0-0.271,0.036-0.471,0.111-0.609
			c0.146-0.27,0.428-0.424,0.774-0.424c0.522,0,0.888,0.379,0.888,0.922c0,0,0,0.729,0,0.813c-0.088,0-1.24,0-1.24,0v0.471
			c0,0.219,0.135,0.354,0.353,0.354c0.138,0,0.3-0.061,0.343-0.313c0.057,0,0.449,0,0.536,0c-0.011,0.225-0.09,0.436-0.231,0.584
			c-0.168,0.172-0.386,0.262-0.647,0.262C58.398,11.926,58.117,11.771,57.97,11.502z M58.393,9.77v0.402H59.1V9.77
			c0-0.254-0.133-0.404-0.354-0.404S58.393,9.516,58.393,9.77z"/>
		<path fill="#035D75" d="M53.794,9.15c0.144-0.219,0.315-0.316,0.551-0.316c0.289,0,0.598,0.188,0.598,0.715c0,0,0,2.25,0,2.34
			c-0.073,0-0.459,0-0.533,0c0-0.09,0-2.107,0-2.107c0-0.256-0.135-0.416-0.353-0.416c-0.323,0-0.36,0.273-0.36,0.477
			c0,0,0,1.957,0,2.047c-0.074,0-0.46,0-0.533,0c0-0.09,0-2.93,0-3.02c0.073,0,0.459,0,0.533,0c0,0.068,0,0.41,0,0.41L53.794,9.15z"
			/>
		<path fill="#035D75" d="M55.73,11.502c-0.074-0.139-0.111-0.342-0.111-0.609V9.867c0-0.271,0.037-0.471,0.111-0.609
			c0.146-0.27,0.43-0.424,0.775-0.424c0.515,0,0.857,0.361,0.879,0.9c-0.084,0-0.469,0-0.531,0
			c-0.017-0.232-0.139-0.369-0.348-0.369c-0.221,0-0.354,0.15-0.354,0.404v1.27c0,0.219,0.137,0.354,0.354,0.354
			c0.193,0,0.312-0.113,0.344-0.313c0.059,0,0.449,0,0.534,0c-0.011,0.225-0.089,0.436-0.231,0.584
			c-0.166,0.172-0.383,0.262-0.646,0.262C56.16,11.926,55.877,11.771,55.73,11.502z"/>
		<path fill="#035D75" d="M62.852,11.502c-0.074-0.139-0.111-0.342-0.111-0.609V9.867c0-0.271,0.037-0.471,0.111-0.609
			c0.146-0.27,0.429-0.424,0.775-0.424c0.346,0,0.629,0.154,0.775,0.424c0.074,0.139,0.111,0.338,0.111,0.609v1.025
			c0,0.271-0.037,0.471-0.111,0.609c-0.146,0.27-0.43,0.424-0.775,0.424C63.28,11.926,62.998,11.771,62.852,11.502z M63.273,9.77
			v1.221c0,0.252,0.133,0.402,0.354,0.402s0.354-0.15,0.354-0.402V9.77c0-0.254-0.133-0.404-0.354-0.404S63.273,9.516,63.273,9.77z"
			/>
		<g>
			<path fill="#035D75" d="M82.594,7.611c0,0.074,0,0.461,0,0.533c-0.074,0-0.46,0-0.533,0c0-0.072,0-0.459,0-0.533
				C82.134,7.611,82.52,7.611,82.594,7.611z"/>
			<path fill="#035D75" d="M82.594,8.869c0,0.09,0,2.93,0,3.02c-0.074,0-0.46,0-0.533,0c0-0.09,0-2.93,0-3.02
				C82.134,8.869,82.52,8.869,82.594,8.869z"/>
		</g>
		<path fill="#035D75" d="M83.938,9.15c0.145-0.219,0.314-0.316,0.551-0.316c0.289,0,0.598,0.188,0.598,0.715c0,0,0,2.25,0,2.34
			c-0.073,0-0.459,0-0.533,0c0-0.09,0-2.107,0-2.107c0-0.256-0.135-0.416-0.353-0.416c-0.322,0-0.359,0.273-0.359,0.477
			c0,0,0,1.957,0,2.047c-0.073,0-0.46,0-0.534,0c0-0.09,0-2.93,0-3.02c0.074,0,0.461,0,0.534,0c0,0.068,0,0.41,0,0.41L83.938,9.15z"
			/>
		<path fill="#035D75" d="M72.545,11.045c0-0.205-0.102-0.332-0.342-0.424L71.9,10.51c-0.387-0.145-0.601-0.434-0.601-0.814
			c0-0.482,0.384-0.861,0.874-0.861c0.463,0,0.801,0.342,0.828,0.814c-0.085,0-0.438,0-0.496,0C72.48,9.459,72.343,9.33,72.15,9.33
			c-0.23,0-0.354,0.184-0.354,0.359c0,0.127,0.036,0.26,0.294,0.363l0.367,0.145c0.395,0.152,0.586,0.424,0.586,0.836
			c0,0.5-0.391,0.893-0.889,0.893s-0.833-0.334-0.875-0.846c0.086,0,0.443,0,0.499,0c0.056,0.281,0.229,0.35,0.372,0.35
			C72.345,11.43,72.545,11.285,72.545,11.045z"/>
		<path fill="#035D75" d="M77.241,11.045c0-0.205-0.103-0.332-0.343-0.424l-0.301-0.111c-0.389-0.145-0.602-0.434-0.602-0.814
			c0-0.482,0.383-0.861,0.873-0.861c0.464,0,0.801,0.342,0.828,0.814c-0.084,0-0.437,0-0.496,0
			c-0.025-0.189-0.162-0.318-0.355-0.318c-0.23,0-0.354,0.184-0.354,0.359c0,0.127,0.035,0.26,0.293,0.363l0.368,0.145
			c0.394,0.152,0.585,0.424,0.585,0.836c0,0.5-0.391,0.893-0.888,0.893c-0.499,0-0.833-0.334-0.876-0.846c0.087,0,0.444,0,0.499,0
			c0.057,0.281,0.229,0.35,0.372,0.35C77.04,11.43,77.241,11.285,77.241,11.045z"/>
		<path fill="#035D75" d="M65.756,9.189c0.254-0.225,0.448-0.34,0.751-0.352c0,0.08,0,0.471,0,0.557
			c-0.062-0.014-0.144-0.029-0.144-0.029c-0.33,0-0.686,0.227-0.686,0.723c0,0,0,1.711,0,1.801c-0.073,0-0.459,0-0.531,0
			c0-0.09,0-2.93,0-3.02c0.072,0,0.458,0,0.531,0c0,0.07,0,0.389,0,0.389L65.756,9.189z"/>
		<path fill="#035D75" d="M100.795,9.189c0.256-0.225,0.449-0.34,0.752-0.352c0,0.08,0,0.471,0,0.557
			c-0.061-0.014-0.145-0.029-0.145-0.029c-0.33,0-0.684,0.227-0.684,0.723c0,0,0,1.711,0,1.801c-0.074,0-0.459,0-0.533,0
			c0-0.09,0-2.93,0-3.02c0.074,0,0.459,0,0.533,0c0,0.07,0,0.389,0,0.389L100.795,9.189z"/>
		<path fill="#035D75" d="M75.379,8.869c0,0.09,0,2.93,0,3.02c-0.074,0-0.46,0-0.533,0c0-0.066,0-0.41,0-0.41l-0.098,0.129
			c-0.145,0.219-0.313,0.316-0.55,0.316c-0.29,0-0.599-0.188-0.599-0.715c0,0,0-2.25,0-2.34c0.074,0,0.46,0,0.533,0
			c0,0.09,0,2.109,0,2.109c0,0.254,0.135,0.414,0.354,0.414c0.322,0,0.359-0.273,0.359-0.477c0,0,0-1.957,0-2.047
			C74.919,8.869,75.305,8.869,75.379,8.869z"/>
		<path fill="#035D75" d="M67.973,9.086c0.162-0.164,0.387-0.25,0.648-0.25c0.431,0,0.891,0.246,0.891,0.936c0,0,0,2.029,0,2.119
			c-0.072,0-0.461,0-0.533,0c-0.002-0.068-0.008-0.412-0.008-0.412l-0.082,0.111c-0.167,0.229-0.295,0.338-0.569,0.338
			c-0.286,0-0.628-0.137-0.628-0.783c0-0.654,0.15-1.008,0.941-1.008l0.147,0.008l0.2,0.014l-0.001-0.051V9.783
			c0-0.268-0.128-0.416-0.358-0.416c-0.188,0-0.338,0.129-0.39,0.314c-0.052,0-0.428,0-0.517,0
			C67.74,9.441,67.824,9.234,67.973,9.086z M68.224,11.023c0,0.27,0.146,0.445,0.372,0.445c0.236,0,0.384-0.172,0.384-0.445v-0.465
			l-0.219-0.025C68.414,10.533,68.224,10.707,68.224,11.023z"/>
		<path fill="#035D75" d="M85.951,9.086c0.162-0.164,0.387-0.25,0.647-0.25c0.432,0,0.892,0.246,0.892,0.936c0,0,0,2.029,0,2.119
			c-0.073,0-0.461,0-0.533,0c-0.002-0.068-0.008-0.412-0.008-0.412l-0.082,0.111c-0.167,0.229-0.295,0.338-0.569,0.338
			c-0.286,0-0.629-0.137-0.629-0.783c0-0.654,0.151-1.008,0.942-1.008l0.147,0.008l0.199,0.014l-0.001-0.051V9.783
			c0-0.268-0.127-0.416-0.358-0.416c-0.187,0-0.338,0.129-0.39,0.314c-0.051,0-0.426,0-0.516,0
			C85.719,9.441,85.803,9.234,85.951,9.086z M86.201,11.023c0,0.27,0.146,0.445,0.372,0.445c0.237,0,0.384-0.172,0.384-0.445v-0.465
			l-0.218-0.025C86.393,10.533,86.201,10.707,86.201,11.023z"/>
		<path fill="#035D75" d="M79.916,9.086c0.162-0.164,0.387-0.25,0.648-0.25c0.43,0,0.892,0.246,0.892,0.936c0,0,0,2.029,0,2.119
			c-0.073,0-0.462,0-0.534,0c-0.002-0.068-0.008-0.412-0.008-0.412l-0.082,0.111c-0.166,0.229-0.295,0.338-0.568,0.338
			c-0.287,0-0.629-0.137-0.629-0.783c0-0.654,0.15-1.008,0.941-1.008l0.148,0.008l0.199,0.014l-0.001-0.051V9.783
			c0-0.268-0.128-0.416-0.358-0.416c-0.187,0-0.338,0.129-0.39,0.314c-0.052,0-0.428,0-0.517,0
			C79.684,9.441,79.768,9.234,79.916,9.086z M80.167,11.023c0,0.27,0.146,0.445,0.372,0.445c0.236,0,0.384-0.172,0.384-0.445v-0.465
			l-0.218-0.025C80.357,10.533,80.167,10.707,80.167,11.023z"/>
		<path fill="#035D75" d="M97.979,9.086c0.163-0.164,0.388-0.25,0.648-0.25c0.431,0,0.892,0.246,0.892,0.936c0,0,0,2.029,0,2.119
			c-0.072,0-0.461,0-0.533,0c-0.002-0.068-0.008-0.412-0.008-0.412l-0.082,0.111c-0.167,0.229-0.295,0.338-0.569,0.338
			c-0.286,0-0.629-0.137-0.629-0.783c0-0.654,0.151-1.008,0.942-1.008l0.148,0.008l0.198,0.014l-0.001-0.051V9.783
			c0-0.268-0.127-0.416-0.358-0.416c-0.187,0-0.338,0.129-0.39,0.314c-0.051,0-0.428,0-0.516,0
			C97.748,9.441,97.832,9.234,97.979,9.086z M98.23,11.023c0,0.27,0.146,0.445,0.372,0.445c0.237,0,0.384-0.172,0.384-0.445v-0.465
			l-0.218-0.025C98.422,10.533,98.23,10.707,98.23,11.023z"/>
		<path fill="#035D75" d="M88.66,7.611c0,0.088,0,1.65,0,1.65l0.097-0.131c0.13-0.195,0.315-0.299,0.538-0.299
			c0.25,0,0.404,0.078,0.52,0.262c0.07,0.113,0.09,0.271,0.09,0.729v1.186c0,0.332-0.027,0.518-0.098,0.646
			c-0.099,0.182-0.264,0.27-0.506,0.27c-0.289,0-0.399-0.125-0.555-0.297l-0.082-0.092l-0.004,0.117c0,0,0,0.17,0,0.236
			c-0.074,0-0.46,0-0.533,0c0-0.092,0-4.188,0-4.277C88.2,7.611,88.586,7.611,88.66,7.611z M88.66,9.75v1.209
			c0,0.26,0.145,0.434,0.359,0.434c0.225,0,0.354-0.172,0.354-0.471V9.781c0-0.344-0.193-0.416-0.354-0.416
			C88.814,9.365,88.66,9.531,88.66,9.75z"/>
		<path fill="#035D75" d="M91.063,7.656c0,0.09,0,3.445,0,3.445c0,0.238,0.081,0.33,0.308,0.363c0,0.061,0,0.428,0,0.502
			c-0.531-0.008-0.84-0.152-0.84-0.822c0,0,0-3.398,0-3.488C90.604,7.656,90.99,7.656,91.063,7.656z"/>
		<path fill="#035D75" d="M91.871,11.5c-0.074-0.137-0.111-0.342-0.111-0.609V9.865c0-0.27,0.037-0.469,0.112-0.609
			c0.146-0.27,0.429-0.424,0.774-0.424c0.521,0,0.887,0.381,0.887,0.924c0,0,0,0.729,0,0.813c-0.086,0-1.24,0-1.24,0v0.471
			c0,0.219,0.137,0.354,0.354,0.354c0.193,0,0.311-0.113,0.344-0.314c0.059,0,0.449,0,0.535,0c-0.012,0.225-0.09,0.438-0.232,0.586
			c-0.166,0.172-0.384,0.26-0.646,0.26C92.301,11.924,92.018,11.77,91.871,11.5z M92.293,9.768v0.402H93V9.768
			c0-0.252-0.132-0.402-0.354-0.402C92.426,9.365,92.293,9.516,92.293,9.768z"/>
		<path fill="#035D75" d="M62.184,7.646c-0.362,0-0.748,0.205-0.748,0.779v0.471c0,0-0.234,0-0.305,0c0,0.072,0,0.314,0,0.387
			c0.07,0,0.305,0,0.305,0s0,2.508,0,2.605c0.078,0,0.441,0,0.521,0c0-0.098,0-2.605,0-2.605s0.383,0,0.464,0
			c0-0.072,0-0.314,0-0.387c-0.081,0-0.464,0-0.464,0V8.395c0-0.162,0.09-0.264,0.233-0.264c0,0,0.162,0,0.23,0
			c0-0.078,0-0.408,0-0.484C62.351,7.646,62.184,7.646,62.184,7.646z"/>
		<path fill="#035D75" d="M78.324,7.957c0,0.092,0,0.939,0,0.939s-0.24,0-0.312,0c0,0.072,0,0.314,0,0.387c0.071,0,0.312,0,0.312,0
			v1.93c0,0.328,0.184,0.676,0.699,0.676c0,0,0.14,0,0.205,0c0-0.076,0-0.408,0-0.484c-0.238-0.004-0.385-0.039-0.385-0.355V9.283
			c0,0,0.309,0,0.385,0c0-0.072,0-0.314,0-0.387c-0.076,0-0.385,0-0.385,0s0-0.848,0-0.939C78.767,7.957,78.402,7.957,78.324,7.957z
			"/>
		<path fill="#035D75" d="M95.43,7.646c0,0.098,0,4.145,0,4.242c0.094,0,1.66,0,1.754,0c0-0.078,0-0.441,0-0.52
			c-0.094,0-1.232,0-1.232,0V9.992c0,0,0.98,0,1.074,0c0-0.078,0-0.408,0-0.484c-0.094,0-1.074,0-1.074,0V8.131c0,0,1.139,0,1.232,0
			c0-0.078,0-0.408,0-0.484C97.09,7.646,95.523,7.646,95.43,7.646z"/>
		<path fill="#035D75" d="M102.264,7.957c0,0.092,0,0.939,0,0.939s-0.24,0-0.312,0c0,0.072,0,0.314,0,0.387c0.071,0,0.312,0,0.312,0
			v1.93c0,0.328,0.184,0.676,0.699,0.676c0,0,0.141,0,0.205,0c0-0.076,0-0.408,0-0.484c-0.238-0.004-0.384-0.039-0.384-0.355V9.283
			c0,0,0.308,0,0.384,0c0-0.072,0-0.314,0-0.387c-0.076,0-0.384,0-0.384,0s0-0.848,0-0.939
			C102.705,7.957,102.342,7.957,102.264,7.957z"/>
		<path fill="#035D75" d="M103.744,7.646c0,0.098,0,4.145,0,4.242c0.078,0,0.441,0,0.521,0c0-0.096,0-2.029,0-2.029
			c0-0.205,0.037-0.479,0.362-0.479c0.219,0,0.355,0.16,0.355,0.418c0,0,0,1.994,0,2.09c0.078,0,0.442,0,0.521,0
			c0-0.098,0-2.322,0-2.322c0-0.52-0.306-0.705-0.591-0.705c-0.385,0-0.648,0.334-0.648,0.334s0-1.453,0-1.549
			C104.186,7.646,103.822,7.646,103.744,7.646z"/>
	</g>
</g>
</svg>
