<?xml version="1.0" standalone="no"?>
<!DOCTYPE svg PUBLIC "-//W3C//DTD SVG 1.1//EN" "http://www.w3.org/Graphics/SVG/1.1/DTD/svg11.dtd" >
<svg xmlns="http://www.w3.org/2000/svg">
<metadata>Generated by IcoMoon</metadata>
<defs>
<font id="thinkhazard" horiz-adv-x="1024">
<font-face units-per-em="1024" ascent="960" descent="-64" />
<missing-glyph horiz-adv-x="1024" />
<glyph unicode="&#x20;" horiz-adv-x="512" d="" />
<glyph unicode="&#xe601;" glyph-name="Earthquake" d="M918.368 493.856c-1.792 4.8-6.336 8.048-11.456 8.224-5.104 0.16-9.856-2.8-11.952-7.456-0.096-0.048-26.8-58.816-43.408-86.32-13.728 36.768-42.144 109.76-42.192 109.92-1.888 4.848-6.496 8.032-11.696 8.080s-9.856-3.056-11.824-7.872l-38.736-94.688-33.984 165.088c-1.216 5.952-6.464 10.176-12.544 10.112s-11.232-4.4-12.32-10.384l-59.6-325.424-30.32 535.728c-0.352 6.48-5.568 11.632-12.064 11.936-0.208 0-0.384 0.016-0.592 0.016-6.24 0-11.584-4.544-12.512-10.768l-82.048-542.608 4.352 461.856c0.048 6.352-4.592 11.76-10.896 12.656-6.272 0.912-12.256-2.992-13.968-9.104-0.352-0.192-79.024-278.384-114.736-394.544-0.848 29.456-1.152 67.424-1.152 105.856 0 86.88 1.52 175.92 1.52 176.096 0.112 6.416-4.64 11.936-11.008 12.768-6.368 0.848-12.384-3.248-13.952-9.488l-63.84-255.328-45.504 100.144c-1.952 4.304-6.192 7.184-10.912 7.408-4.736 0.224-9.216-2.208-11.6-6.304l-52.288-90.288-39.664 124.112c-1.472 4.576-5.344 7.904-10.096 8.656s-9.472-1.232-12.272-5.136l-55.504-77.68c-7.152 1.696-17.824 3.824-29.040 4.64 0.4-8.576 1.008-17.088 1.824-25.552 14.512-1.504 28.896-5.6 28.912-5.664l13.872 4.784 45.872 64.208 40.704-127.28c1.536-4.768 5.728-8.192 10.704-8.736 4.992-0.544 9.808 1.92 12.336 6.256l54.288 93.728 50.336-110.784c2.24-4.912 7.296-7.856 12.672-7.36s9.824 4.304 11.136 9.536l46.448 185.76c-0.16-21.808-0.272-45.2-0.272-68.448 0.016-62.256 0.736-122.88 3.472-150.704 5.584-10.032 0.016-12.992 15.904-25.312 7.6 0.416 10.224 4.752 11.392 6.304 10.96 17.84 73.088 234.272 109.072 360.88l-5.136-547.456c-0.064-6.64 5.024-12.208 11.664-12.736 6.624-0.544 12.528 4.16 13.536 10.72l90.688 599.552 29.408-519.696c0.352-6.4 5.44-11.52 11.84-11.92 6.4-0.384 12.096 4.048 13.248 10.368l66.992 365.728 29.232-142.032c1.12-5.472 5.664-9.536 11.248-10.048 5.568-0.512 10.768 2.64 12.896 7.808l42.416 103.728c13.008-33.68 32.96-85.472 36.736-96.88 0.496-3.44 6.272-10.816 13.952-10.528 23.008 8.048 44.128 54.352 57.248 84.928l25.792-68.8 13.264-8.128 76.336 8.48c0.992 8.512 1.76 17.088 2.336 25.744l-71.664-7.968-32.896 87.616z" />
<glyph unicode="&#xe602;" glyph-name="Flood" d="M867.84 378.528c-17.728-1.408-33.024-4.8-46.176-9.44-13.216-4.656-24.272-10.4-33.84-15.84-3.088-1.76-6.016-3.472-8.864-5.12-7.952-4.64-15.056-8.784-22.384-12.208-2.24-1.056-4.48-2.048-6.784-2.96-0.544-0.208-1.072-0.4-1.632-0.608-12.224-4.624-26.592-7.904-48.944-7.968-20.704 0.032-34.608 2.928-46.256 6.976-0.928 0.32-1.792 0.656-2.688 0.992-7.648 2.896-14.56 6.448-21.968 10.672-12.336 6.944-26.256 16.128-45.072 23.664-18.736 7.488-41.824 12.592-70.992 12.592-0.192 0-0.352 0-0.528 0-26.176 0.032-47.424-3.952-65.072-10.176-13.232-4.656-24.288-10.4-33.856-15.84-14.416-8.256-25.456-15.328-38.032-20.288-0.528-0.208-1.056-0.4-1.616-0.608-12.24-4.624-26.608-7.904-48.944-7.968-20.704 0.032-34.624 2.928-46.272 6.976-0.896 0.32-1.792 0.656-2.672 0.992-2.896 1.088-5.664 2.32-8.384 3.6-4.528 2.112-8.96 4.448-13.584 7.056-5.024 2.832-10.336 6.032-16.096 9.344-8.4 4.816-17.824 9.856-28.992 14.32-10.32 4.128-21.92 7.52-35.136 9.728-19.888 3.344-36.368-9.856-36.368-25.536s10.576-28.096 23.44-29.888c8.896-1.248 16.224-3.168 22.832-5.472 8.736-3.072 16.368-6.96 24.64-11.648 12.336-6.944 26.24-16.144 45.088-23.664 4.464-1.776 9.184-3.424 14.176-4.912 16.048-4.752 34.896-7.728 57.328-7.664 26.176-0.032 47.424 3.936 65.072 10.176 13.216 4.64 24.272 10.4 33.84 15.84 14.432 8.256 25.488 15.344 38.048 20.288 12.576 4.928 27.216 8.512 50.544 8.576 20.704-0.032 34.624-2.912 46.256-6.976 8.752-3.072 16.368-6.96 24.656-11.648 12.336-6.944 26.24-16.144 45.088-23.664 18.832-7.536 42.080-12.656 71.504-12.576 22.448-0.032 41.296 2.896 57.344 7.664 2.64 0.784 5.232 1.616 7.728 2.512 13.232 4.64 24.288 10.4 33.84 15.84 14.448 8.24 25.488 15.344 38.048 20.288 7.184 2.816 15.056 5.2 24.848 6.736 14.080 2.192 25.696 14.544 25.696 30.224v14.192c0.048 7.808-8.432 14.256-18.864 13.424zM266.896 489.168v-113.616c1.2-0.688 2.384-1.376 3.568-2.032 7.264-4.112 12.224-6.544 17.264-8.464 0.672-0.256 1.216-0.464 1.76-0.656 6.656-2.32 16.64-4.992 34.8-5.024 18.976 0.048 29.104 2.912 36.528 5.712l1.168 0.448c7.376 2.912 14.896 7.296 24.416 12.848 2.88 1.68 5.872 3.424 9.024 5.248 9.856 5.6 23.2 12.704 39.632 18.48 22.832 8.048 48.512 12.144 76.336 12.144h0.88c30.72 0 58.976-5.072 83.984-15.088 16.992-6.8 30.352-14.64 41.088-20.944 2.816-1.648 5.504-3.232 8.128-4.704 7.152-4.048 12.272-6.56 17.264-8.464 0.624-0.24 1.168-0.448 1.744-0.656 6.672-2.32 16.672-5.008 34.816-5.024 18.976 0.048 29.104 2.912 36.512 5.712 0.464 0.176 0.832 0.32 1.184 0.448 6.112 2.4 12.288 5.824 19.584 10.048v113.6l-244.848 192.656-244.832-192.672zM491.328 769.248l-306.912-237.616c-12.112-9.36-14.336-26.784-4.976-38.88 9.376-12.096 26.784-14.32 38.896-4.944l293.392 227.136 293.392-227.136c5.040-3.904 11.008-5.808 16.944-5.808 8.288 0 16.464 3.696 21.936 10.752 9.376 12.096 7.168 29.52-4.96 38.88l-127.168 98.064v107.12c0 8.16-6.624 14.784-14.8 14.784h-59.712c-8.16 0-14.8-6.624-14.8-14.784v-37.6l-93.856 72.672c-0.688 0.528-1.376 1.008-2.096 1.456-4.528 2.896-9.712 4.336-14.896 4.336-5.984 0-11.952-1.936-16.96-5.808l-3.424-2.624zM867.84 283.936c-17.728-1.408-33.024-4.8-46.176-9.44-13.216-4.64-24.272-10.4-33.84-15.84-14.432-8.24-25.488-15.328-38.032-20.288-0.176-0.048-0.336-0.112-0.48-0.192-12.48-4.832-27.040-8.336-50.080-8.384-20.704 0.032-34.608 2.928-46.256 6.976-8.752 3.072-16.368 6.96-24.656 11.664-12.336 6.928-26.256 16.128-45.072 23.664-18.736 7.504-41.824 12.592-70.992 12.592-0.192 0-0.352 0-0.528 0-26.176 0.032-47.424-3.952-65.072-10.176-13.232-4.64-24.288-10.4-33.856-15.84-14.416-8.24-25.456-15.328-38.032-20.288-12.576-4.928-27.216-8.512-50.544-8.576-20.704 0.032-34.624 2.928-46.272 6.976-1.28 0.448-2.544 0.944-3.792 1.424-7.2 2.832-13.792 6.24-20.848 10.24-12.336 6.944-26.24 16.128-45.072 23.664-10.32 4.112-21.92 7.52-35.136 9.744-19.888 3.328-36.368-9.872-36.368-25.536 0-15.68 10.576-28.096 23.44-29.904 8.896-1.232 16.224-3.152 22.832-5.456 8.736-3.072 16.368-6.96 24.64-11.664 12.336-6.944 26.24-16.128 45.088-23.664 18.832-7.536 42.080-12.64 71.504-12.576 26.176-0.032 47.424 3.936 65.072 10.176 13.216 4.656 24.272 10.4 33.84 15.84 14.432 8.256 25.488 15.344 38.048 20.288 3.6 1.408 7.376 2.704 11.472 3.856 10.224 2.832 22.432 4.672 39.072 4.72 16.624-0.032 28.864-1.904 39.056-4.72 2.512-0.688 4.896-1.456 7.184-2.256 8.752-3.072 16.368-6.96 24.656-11.664 12.336-6.944 26.24-16.128 45.088-23.664 18.832-7.536 42.080-12.64 71.504-12.576 26.16-0.032 47.424 3.936 65.072 10.176 13.232 4.656 24.288 10.4 33.84 15.84 14.448 8.256 25.488 15.344 38.048 20.288 7.184 2.832 15.056 5.2 24.848 6.736 14.080 2.192 25.696 14.544 25.696 30.224v14.192c0.016 7.808-8.464 14.256-18.896 13.424z" />
<glyph unicode="&#xe603;" glyph-name="Landslide" d="M883.552 733.28l-130.496-80.096-124.592-183.904-163.136-80.096-65.264-118.624-121.6-62.304-117.888-133.328c91.696-86.56 215.376-139.664 351.408-139.664 282.784 0.016 512.016 229.264 512.016 512 0 118.432-40.24 227.456-107.712 314.192l-32.736-28.176zM524.656 475.2l80.096 44.512-32.624 115.664-100.88-44.48 8.928-77.12zM462.352 487.072l-41.52 20.768-14.848-59.328-2.976-41.536 91.952 44.512c0.032 0-20.72 35.584-32.608 35.584zM284.4 377.328l-68.24-94.912 65.28-17.792 74.128 35.584-23.744 83.040zM198.368 226.064l11.856 91.936-77.136 41.504-26.704-91.92 44.528-65.264zM171.664 172.656l-71.2 53.408-29.84-38.416c15.328-26 32.88-50.528 52.432-73.328l48.608 58.336zM284.4 507.856l-68.24-44.512 8.912-71.184 97.872 32.624 44.496 53.408-26.704 35.584zM791.632 742.176l35.584-5.92 17.808 35.584-11.888 44.512-41.504-14.848z" />
<glyph unicode="&#xe604;" glyph-name="StormSurge" d="M853.664 449.936c-7.92-1.936-16.112-2.928-24.24-2.928-46.24 0-83.84 30.336-83.84 67.584l0.080 1.328c0 0.064 0.080 1.104 0.080 1.184 0.112 1.68-0.512 3.36-1.68 4.592-1.184 1.248-2.816 1.984-4.528 1.984h-29.552c-1.728 0-3.36-0.736-4.512-1.984-1.168-1.232-1.808-2.912-1.696-4.592 0.016-0.080 0.080-1.12 0.080-1.184l0.080-1.328c0-37.248-37.616-67.584-83.84-67.584s-83.84 30.336-83.84 67.584l0.176 2.576c0.080 1.68-0.56 3.344-1.728 4.576-1.152 1.216-2.8 1.936-4.48 1.936h-29.584c-1.68 0-3.296-0.72-4.48-1.936-1.168-1.232-1.792-2.896-1.712-4.576l0.16-2.576c0-37.248-37.6-67.584-83.84-67.584s-83.84 30.336-83.84 67.584l0.080 1.328c0 0.064 0.064 1.104 0.096 1.184 0.096 1.68-0.512 3.36-1.696 4.592-1.184 1.248-2.8 1.984-4.512 1.984h-29.568c-1.712 0-3.328-0.72-4.496-1.936-1.168-1.232-1.792-2.896-1.712-4.576l0.176-2.576c0-37.248-37.632-67.584-83.84-67.584-10.4 0-20.736 1.584-30.656 4.768-1.904 0.576-3.952 0.272-5.568-0.912-1.6-1.168-2.528-3.040-2.528-5.024v-23.952c0-2.864 1.968-5.376 4.784-6.048 11.232-2.64 22.64-3.984 33.968-3.984 42.784 0 82 18.112 104.672 47.824 22.656-29.712 61.872-47.824 104.672-47.824s82.016 18.112 104.688 47.808c22.656-29.696 61.872-47.808 104.672-47.808 42.816 0 82.016 18.112 104.672 47.808 22.656-29.696 61.872-47.808 104.688-47.808 8.816 0 17.84 0.832 26.848 2.512 2.96 0.528 5.088 3.088 5.088 6.096v23.44c0 1.904-0.88 3.696-2.368 4.896-1.6 1.184-3.52 1.584-5.424 1.136zM853.664 303.664c-7.92-1.936-16.112-2.928-24.24-2.928-46.24 0-83.84 30.336-83.84 67.6l0.080 1.312c0 0.048 0.080 1.136 0.080 1.184 0.112 1.696-0.512 3.36-1.68 4.608-1.184 1.248-2.816 1.952-4.528 1.952h-29.552c-1.728 0-3.36-0.704-4.512-1.952-1.168-1.248-1.808-2.912-1.696-4.608 0.016-0.048 0.080-1.136 0.080-1.184l0.080-1.312c0-37.248-37.616-67.6-83.84-67.6s-83.84 30.336-83.84 67.6l0.176 2.56c0.080 1.696-0.56 3.36-1.728 4.576-1.152 1.232-2.8 1.92-4.48 1.92h-29.584c-1.68 0-3.296-0.688-4.48-1.92-1.168-1.216-1.792-2.88-1.712-4.576l0.16-2.56c0-37.248-37.6-67.6-83.84-67.6s-83.84 30.336-83.84 67.6l0.080 1.312c0 0.048 0.064 1.136 0.096 1.184 0.096 1.696-0.512 3.36-1.696 4.608s-2.8 1.952-4.512 1.952h-29.568c-1.712 0-3.328-0.688-4.496-1.92-1.168-1.216-1.792-2.88-1.712-4.576l0.176-2.56c0-37.248-37.632-67.6-83.84-67.6-10.4 0-20.736 1.6-30.656 4.752-1.904 0.592-3.952 0.272-5.568-0.896-1.6-1.184-2.528-3.040-2.528-5.024v-23.952c0-2.88 1.968-5.376 4.784-6.032 11.232-2.64 22.64-4 33.968-4 42.784 0 82 18.128 104.672 47.824 22.656-29.696 61.872-47.824 104.672-47.824s82.016 18.128 104.688 47.808c22.656-29.68 61.872-47.808 104.672-47.808 42.816 0 82.016 18.128 104.672 47.808 22.656-29.68 61.872-47.808 104.688-47.808 8.816 0 17.84 0.848 26.848 2.496 2.96 0.544 5.088 3.088 5.088 6.112v23.44c0 1.904-0.88 3.712-2.368 4.896-1.6 1.168-3.52 1.568-5.424 1.136zM853.664 157.408c-7.92-1.936-16.112-2.928-24.24-2.928-46.24 0-83.84 30.32-83.84 67.6l0.080 1.328c0 0.048 0.080 1.104 0.080 1.168 0.112 1.696-0.512 3.376-1.68 4.608-1.184 1.232-2.816 1.952-4.528 1.952h-29.552c-1.728 0-3.36-0.72-4.512-1.952-1.168-1.232-1.808-2.912-1.696-4.608 0.016-0.064 0.080-1.12 0.080-1.168l0.080-1.328c0-37.28-37.616-67.6-83.84-67.6s-83.84 30.32-83.84 67.6l0.176 2.576c0.080 1.664-0.56 3.344-1.728 4.544-1.152 1.232-2.8 1.936-4.48 1.936h-29.584c-1.68 0-3.296-0.704-4.48-1.936-1.168-1.2-1.792-2.88-1.712-4.544l0.16-2.576c0-37.28-37.6-67.6-83.84-67.6s-83.84 30.32-83.84 67.6l0.080 1.328c0 0.048 0.064 1.104 0.096 1.168 0.096 1.696-0.512 3.376-1.696 4.608s-2.8 1.952-4.512 1.952h-29.568c-1.712 0-3.328-0.704-4.496-1.936-1.168-1.2-1.792-2.88-1.712-4.544l0.176-2.576c0-37.28-37.632-67.6-83.84-67.6-10.4 0-20.736 1.6-30.656 4.768-1.904 0.576-3.952 0.272-5.568-0.912-1.6-1.168-2.528-3.056-2.528-5.008v-23.952c0-2.896 1.968-5.392 4.784-6.048 11.232-2.656 22.64-4 33.968-4 42.784 0 82 18.096 104.672 47.824 22.656-29.728 61.872-47.824 104.672-47.824s82.016 18.096 104.688 47.808c22.656-29.712 61.872-47.808 104.672-47.808 42.816 0 82.016 18.096 104.672 47.808 22.656-29.712 61.872-47.808 104.688-47.808 8.816 0 17.84 0.832 26.848 2.496 2.96 0.528 5.088 3.104 5.088 6.112v23.44c0 1.904-0.88 3.712-2.368 4.912-1.6 1.152-3.52 1.568-5.424 1.12zM280.624 717.728c-2.944-2.928-3.648-9.072-1.632-13.968 0.96-2.304 3.296-6.192 8.224-6.192l36.048 0.016v-78.080c0-8.016 6.512-14.528 14.528-14.544l65.888 0.016c7.984-0.016 14.528 6.528 14.528 14.496v78.096h37.664c4.704 0 8.24 2.256 9.904 6.32 1.984 4.64 0.992 10.736-2.16 13.84l-81.024 81.376c-2.832 2.848-6.544 4.256-10.272 4.256s-7.456-1.408-10.288-4.256l-81.408-81.376zM559.92 717.728c-2.976-2.928-3.648-9.072-1.664-13.968 0.976-2.304 3.296-6.192 8.24-6.192l36.064 0.032-0.016-78.080c0-8.016 6.528-14.528 14.512-14.544l65.904 0.016c7.984-0.016 14.528 6.528 14.528 14.496v78.096h37.664c4.736 0 8.272 2.256 9.936 6.32 1.968 4.64 0.992 10.736-2.176 13.84l-81.024 81.376c-2.848 2.832-6.544 4.24-10.256 4.24s-7.456-1.408-10.304-4.256l-81.408-81.376z" />
<glyph unicode="&#xe605;" glyph-name="Tsunami" d="M544.368 540.976c-95.536 95.568-8.64 166.672 11.632 177.568 20.256 10.912 92.224 43.824 132.976 27.152 0 0-55.44 26.336-90.336 28.336-17.44 1.008-26.176 1.504-34 1.504s-14.8-0.496-28.688-1.504c-39.888-2.88-79.952-18.336-128.576-41.28-48.64-22.96-139.136-102.144-139.136-102.144s-103.392-101.376-118.832-114.016c-15.44-12.624-59.632-49.712-93.76-58.336-34.16-8.592-55.648-10.112-55.648-10.112 0-282.848 229.2-512.144 512-512.144 282.784 0 512 229.296 512 512.144h-229.792c0 0-160.256 3.216-249.84 92.832z" />
<glyph unicode="&#xe606;" glyph-name="VolcanicAsh" d="M428.8 475.856l-294.144-373.856c49.52-54 110.448-97.328 179.008-126.16 61.008-25.648 128-39.84 198.336-39.84s137.328 14.192 198.32 39.84c74.784 31.456 140.4 80.176 192.112 141.104l-282.32 358.912h-191.312zM268.704 837.104h45.984c-21.792-6.464-37.744-26.608-37.744-50.528 0-29.088 23.6-52.672 52.688-52.672h50.848c-24.272-4.656-42.64-26.016-42.64-51.664 0-29.088 23.6-52.688 52.688-52.688h60.896c-29.088 0-52.688-23.584-52.688-52.672s23.6-52.672 52.688-52.672h146.064c29.088 0 52.688 23.584 52.688 52.672s-23.6 52.672-52.688 52.672h60.896c29.088 0 52.688 23.6 52.688 52.688 0 25.664-18.336 47.008-42.64 51.664h50.864c29.072 0 52.672 23.584 52.672 52.672 0 23.92-15.952 44.064-37.744 50.528h45.984c13.76 0 26.224 5.392 35.632 14.096 1.76 1.616 3.328 3.408 4.88 5.28-16.080 12.112-32.896 23.28-50.32 33.504-38.816 22.736-80.864 40.528-125.328 52.432-42.448 11.424-87.040 17.584-133.072 17.584s-90.592-6.176-133.056-17.6c-35.664-9.584-69.792-22.944-101.984-39.616-19.6-10.144-38.464-21.504-56.512-34.016 0.992-2.256 2.224-4.368 3.488-6.4 9.232-15.104 25.76-25.264 44.768-25.264z" />
<glyph unicode="&#xe607;" glyph-name="Cyclone" d="M764.368 156.192c-8.368-4.192-17.76-9.104-27.936-14.512-10.848-4.528-22.816-9.504-35.872-14.928-6.656-2.112-13.632-4.272-20.848-6.496-3.536-1.136-7.136-2.304-10.816-3.488-3.68-1.104-7.648-1.696-11.52-2.592-7.824-1.648-15.808-3.408-23.888-5.296-8.336-1.040-16.864-2.080-25.632-3.168-8.608-1.472-17.68-1.312-26.8-1.792-4.512-0.176-9.104-0.368-13.76-0.592-4.624-0.080-9.376 0.464-14.080 0.64-37.744 1.344-78.016 8.544-117.2 23.472-39.248 14.864-77.168 37.6-110.336 67.408-7.664 7.6-15.12 15.36-22.944 22.864l-0.56 0.672-1.632 1.904-3.2 3.776-6.384 7.568-6.432 7.6c-2.24 2.576-2.832 4.272-4.336 6.432-2.56 4.064-5.216 8.080-7.936 12.032-2.688 4.192-5.12 9.472-7.744 14.112-5.808 9.28-9.328 19.728-13.968 29.632-14.88 41.072-21.168 86.496-13.696 130.32 0.96 11.072 4.368 21.664 6.608 32.496l5.312 15.712 2.624 7.872 3.504 7.488c8.288 20.496 20.496 38.96 33.408 56.672l10.8 12.464 2.64 3.152 1.344 1.568 0.336 0.384c-0.304-0.304-0.112-0.096 0.128 0.128 0.144 0.144 0.272 0.304 0.256 0.272l6.128 5.76c11.072 11.216 16.080 14 23.584 20.16 16.624 11.968 35.312 20.368 54.448 26.752 9.552 3.424 19.52 5.056 29.36 7.104 9.952 0.944 19.904 2.304 29.824 2.176 19.792-0.016 39.664-2.208 58.112-7.936 18.432-5.504 36.304-12.8 51.936-23.024 8.4-4.336 15.216-10.672 22.832-15.856l0.72-0.496c0.72-0.736 0.208-0.176-0.336 0.368-0.384 0.448-0.832 0.896-0.624 0.72l0.368-0.336 1.456-1.36 2.976-2.752 5.824-5.488c4.464-3.968 6.176-6.352 8.96-9.184 5.344-4.944 10.432-12.528 15.296-19.088 2.16-3.552 4.32-7.072 6.416-10.576 2.192-3.504 3.664-7.248 5.6-10.816l2.72-5.44 2.112-5.552c1.344-3.728 2.992-7.376 4.112-11.072 1.952-7.52 4.352-14.864 5.408-22.272 3.216-14.704 3.040-28.96 3.024-42.4-0.704-6.608-1.088-13.136-2.032-19.296-1.328-6.032-2.080-12.064-3.52-17.616-5.392-22.384-14.224-39.008-20.144-50.512-6.944-11.040-10.624-16.928-10.624-16.928s5.536 4.096 16 12.512c9.248 9.312 24.544 22.832 37.28 45.52 13.184 22.24 24.976 53.136 26.912 91.072 1.376 18.944-0.56 39.456-5.52 60.704-1.424 5.232-2.416 10.8-4.352 16.064-1.936 5.28-3.936 10.672-5.92 16.096-2.16 5.376-4.944 10.576-7.52 15.968-2.336 5.36-5.776 10.896-9.376 16.496-3.456 5.44-7.472 11.872-10.464 15.408l-7.28 9.568-1.248 1.584-0.288 0.432c0.032-0.080-0.432 0.464-0.96 0.992-0.672 0.72-1.328 1.424-0.736 0.816l-0.816 0.848c-8.72 8.784-16.912 18.784-27.184 26.88-19.408 17.648-43.104 31.712-68.688 43.6-6.512 2.72-13.056 5.536-19.76 8.144-6.896 2.064-13.824 4.112-20.832 6.208-6.976 2.336-14.256 3.28-21.504 4.816l-10.976 2.080c-3.68 0.592-7.44 0.816-11.152 1.248-10.032 1.296-20.224 1.888-30.496 1.888-20.32 0-41.024-2.384-61.536-6.848-30.896-6.656-61.52-18.576-89.6-35.808-14.32-9.136-31.488-21.616-39.744-29.264l-7.648-6.64-0.976-0.832c-2.896-2.736-2.688-2.56-2.48-2.384 0.064 0.096 0.192 0.176-0.192-0.176l-0.496-0.576-2.096-2.176-4.16-4.368-16.496-17.776c-5.28-6.096-10-12.752-15.008-19.216-4.976-6.48-9.968-12.976-14.032-20.096l-12.816-21.008c-3.808-7.296-7.152-14.848-10.72-22.288l-5.232-11.216-4.24-11.648c-2.736-7.792-5.648-15.552-8.16-23.424-3.904-16.048-8.784-31.968-10.592-48.464-10.064-65.52-0.464-133.424 25.024-193.152 7.216-14.544 13.408-29.536 22.448-42.912 4.384-6.832 8.192-13.504 13.168-20.32 5.264-6.752 10.56-13.536 15.776-20.288 2.56-3.104 5.552-7.12 7.776-9.424l6.928-7.168c5.28-5.408 10.512-10.88 15.76-16.288 11.376-9.824 22.912-19.36 34.288-28.688 47.248-35.68 100.336-59.312 152.192-71.376 51.968-12.096 102.624-12.704 147.44-6.080 5.632 0.848 11.168 1.328 16.608 2.48 5.36 1.264 10.72 2.48 15.984 3.728 10.464 2.576 20.768 4.464 30.336 8.32 9.6 3.376 18.944 6.704 28.032 9.904 8.752 4.048 17.216 8 25.248 11.936 4.032 2.032 8.064 3.728 11.84 5.904 3.696 2.272 7.344 4.464 10.944 6.656 7.056 4.368 13.856 8.592 20.368 12.64 12.32 9.328 23.44 17.792 33.024 25.888 9.312 8.88 17.344 16.8 24.096 23.728 6.72 6.848 11.2 13.552 15.504 18.528 8.128 10.368 12.432 15.92 12.432 15.92s-5.968-3.728-17.072-10.752c-5.536-3.408-12.032-8.464-20.416-12.736zM882.32 608.864c-6.032 15.088-11.008 30.528-18.992 44.544-3.872 7.168-7.136 14.096-11.584 21.28-4.704 7.168-9.44 14.32-14.16 21.44-2.32 3.328-4.944 7.568-7.024 10.032l-6.32 7.664c-4.848 5.856-9.648 11.696-14.448 17.504-10.576 10.688-21.328 21.072-31.968 31.28-44.32 39.264-95.424 66.912-146.144 82.992-41.072 13.008-81.808 18.464-119.776 18.464-9.072 0-18.016-0.304-26.72-0.896-5.664-0.416-11.248-0.464-16.752-1.184-5.472-0.848-10.912-1.664-16.256-2.48-10.624-1.728-21.056-2.8-30.896-5.904-9.824-2.64-19.424-5.216-28.704-7.712-9.056-3.328-17.776-6.608-26.144-9.92-4.144-1.68-8.336-3.072-12.24-4.944-3.872-1.984-7.68-3.904-11.408-5.792-7.408-3.824-14.496-7.472-21.328-11.008-13.008-8.336-24.736-15.904-34.976-23.232-9.952-8.144-18.56-15.376-25.808-21.76-7.296-6.336-12.288-12.64-16.96-17.28-8.88-9.696-13.632-14.896-13.632-14.896s6.24 3.28 17.872 9.376c5.84 2.928 12.704 7.472 21.392 11.088 8.688 3.536 18.384 7.648 28.992 12.288 11.152 3.632 23.488 7.696 36.912 12.080 6.8 1.536 13.904 3.184 21.264 4.864 3.632 0.848 7.328 1.712 11.088 2.608 3.744 0.8 7.744 1.088 11.664 1.68 7.936 1.008 16 2.192 24.256 3.392 8.352 0.368 16.944 0.8 25.776 1.2 8.688 0.768 17.712-0.080 26.832-0.32 4.544-0.16 9.136-0.336 13.792-0.496 4.624-0.272 9.28-1.184 13.968-1.76 37.552-4.24 77.088-14.544 115.024-32.512 37.936-17.872 74-43.488 104.752-75.792 7.024-8.16 13.872-16.496 21.072-24.576l0.512-0.72 1.472-2 2.88-4.016 11.632-16.096c2.048-2.784 2.448-4.496 3.792-6.752 2.288-4.272 4.592-8.464 7.008-12.64 2.352-4.384 4.368-9.856 6.624-14.688 5.024-9.68 7.744-20.4 11.648-30.624 11.616-42.112 14.336-87.872 3.488-130.96-1.808-10.992-6.064-21.264-9.12-31.92l-6.512-15.216-3.232-7.648-4.032-7.216c-9.872-19.76-23.52-37.232-37.744-53.888l-11.744-11.616-2.912-2.928-1.808-1.808c0.24 0.176 0.192 0.112 0.096 0l-7.024-5.632c-11.904-10.336-17.152-12.688-25.056-18.24-17.536-10.624-36.816-17.568-56.384-22.464-9.776-2.64-19.824-3.504-29.808-4.768-10.016-0.208-20.016-0.736-29.888 0.176-19.776 1.536-39.376 5.296-57.344 12.432-17.936 6.928-35.184 15.584-49.968 27.008-8.048 4.992-14.336 11.808-21.568 17.568l-0.656 0.576c-0.672 0.768-0.208 0.176 0.304-0.416 0.176-0.256 0.352-0.464 0.48-0.624l-0.256 0.256-1.344 1.488-2.72 2.96-5.408 5.936c-4.128 4.32-5.664 6.816-8.224 9.856-4.912 5.328-9.408 13.296-13.712 20.192-1.904 3.744-3.776 7.392-5.616 11.040-1.92 3.664-3.072 7.52-4.72 11.264l-2.304 5.584-1.664 5.728c-1.072 3.824-2.4 7.568-3.232 11.36-1.36 7.616-3.184 15.136-3.664 22.592-2.032 14.944-0.752 29.136 0.288 42.528 1.216 6.528 2.128 13.008 3.536 19.056 1.776 5.904 3.024 11.856 4.896 17.28 7.104 21.936 17.2 37.824 24.016 48.768 7.744 10.464 11.92 16.080 11.92 16.080s-5.856-3.664-16.96-11.248c-9.936-8.56-26.256-20.816-40.72-42.464-14.912-21.136-29.008-51.008-33.904-88.688-2.848-18.784-2.496-39.392 0.752-60.96 1.008-5.328 1.568-10.944 3.088-16.336 1.568-5.456 3.104-10.944 4.672-16.528 1.696-5.536 4.096-10.928 6.24-16.496 1.936-5.52 4.944-11.296 8.064-17.184 3.024-5.712 6.528-12.432 9.216-16.208l4.336-6.72 2.192-3.376 1.12-1.68 0.272-0.416c-0.096 0.080 0.368-0.528 0.848-1.12 0.608-0.736 1.216-1.488 0.704-0.816l0.72-0.896c8.016-9.488 15.44-20.080 25.024-28.944 17.936-19.088 40.48-34.976 65.056-48.816 6.272-3.264 12.592-6.592 19.056-9.68 6.736-2.576 13.504-5.184 20.272-7.792 6.768-2.848 13.968-4.368 21.072-6.48l10.784-2.96c3.6-0.88 7.328-1.392 11.008-2.080 29.488-6.096 60.848-6.528 92.16-2.208 31.344 4.224 62.784 13.696 92.096 28.688 14.976 8 33.072 19.104 41.936 26.064l8.128 6.016 1.024 0.768c3.056 2.48 2.832 2.32 2.624 2.16-0.128-0.064-0.224-0.16 0.208 0.176l0.576 0.528 2.208 2 4.464 4.064 17.856 16.384c5.76 5.696 10.976 11.984 16.464 18.016 5.456 6.080 10.944 12.128 15.568 18.944l14.4 20c4.336 6.944 8.304 14.192 12.4 21.344l6.096 10.8 5.12 11.264c3.36 7.552 6.832 15.056 9.968 22.704 5.12 15.712 11.232 31.184 14.32 47.504 15.184 64.544 10.912 132.976-9.872 194.512z" />
<glyph unicode="&#xe608;" glyph-name="cross" d="M1024 874.677l-85.323 85.323-426.616-426.616-426.616 426.616-85.444-85.323 426.737-426.737-426.737-426.616 85.444-85.323 426.616 426.616 426.616-426.616 85.323 85.323-426.616 426.616z" />
<glyph unicode="&#xe609;" glyph-name="download-arrow" d="M704 480v448h-384v-448h-320l512-512 512 512z" />
<glyph unicode="&#xe60a;" glyph-name="house" d="M512 903.111l-512-512h170.667v-398.222h227.556c0 0 0 170.667 0 227.556s113.778 56.889 113.778 56.889 113.778-1.764 113.778-56.889 0-227.556 0-227.556h227.556v398.222h170.667l-512 512z" />
<glyph unicode="&#xe60b;" glyph-name="list-arrow" d="M0 960v-1024l1024 512z" />
<glyph unicode="&#xe60c;" glyph-name="magnifying-glass" d="M1024 48.736c-1.792 11.008-4.736 21.504-8.896 30.496-2.048 4.512-4.448 8.672-7.136 12.416-1.344 1.888-2.784 3.648-4.288 5.312s-3.072 3.2-4.736 4.64c-159.072 138.24-208.512 179.904-208.512 179.904-13.824 12.192-36.288 9.92-54.848-2.944-1.728 3.104-3.328 6.304-5.952 8.928l-46.048 46.048c52 66.144 84.416 150.496 84.416 242.464 0 212.096-171.936 384-384 384s-384-171.904-384-384c0-212.064 171.936-384 384-384 91.968 0 176.288 32.416 242.4 86.304l46.080-46.048c2.656-2.656 5.888-4.288 9.024-6.016-12.672-18.528-14.912-40.96-2.784-54.72 71.744-81.824 109.376-128.064 179.52-209.056 1.44-1.696 3.008-3.296 4.672-4.768s3.392-2.912 5.28-4.288c3.712-2.688 7.872-5.056 12.384-7.168 8.992-4.16 19.456-7.136 30.432-8.896 21.952-3.424 45.6-2.464 60.704 6.944 18.368 11.488 31.968 25.12 43.392 43.552 9.472 15.2 8.896 38.944 8.896 60.896zM96 576c0 159.072 128.928 288 288 288s288-128.928 288-288c0-159.040-128.928-288-288-288s-288 128.96-288 288z" />
<glyph unicode="&#xe60d;" glyph-name="pin" d="M512 960c-212.096 0-384-171.968-384-384s384-640 384-640 384 427.968 384 640-171.968 384-384 384zM512 512c-70.656 0-128 57.344-128 128s57.344 128 128 128 128-57.344 128-128-57.344-128-128-128z" />
<glyph unicode="&#xe60e;" glyph-name="selector-arrow" d="M924.672 722.56c-60.8 60.672-158.976 60.672-219.648 0l-221.056-221.056-219.904 220.032c-60.416 60.416-158.336 60.416-218.752 0s-60.416-158.336 0-218.752l328.192-328.064c58.624-59.904 162.56-59.904 221.568-1.024l329.6 329.216c60.416 60.672 60.416 158.848 0 219.648z" />
<glyph unicode="&#xe60f;" glyph-name="separator" d="M480 960h64v-1024h-64v1024z" />
<glyph unicode="&#xe610;" glyph-name="zoom-in" d="M1022.617 49.209c-1.793 11.014-4.764 21.464-8.913 30.479-2.1 4.559-4.457 8.708-7.172 12.397-1.332 1.895-2.766 3.637-4.252 5.327s-3.125 3.227-4.764 4.662c-128.32 111.416-217.606 192.403-247.778 219.912 44.105 65.261 69.872 143.944 69.872 228.62 0 226.11-183.49 409.395-409.805 409.395s-409.805-183.285-409.805-409.395c0-226.059 183.49-409.395 409.805-409.395 84.727 0 163.461 25.715 228.876 69.769 69.769-79.246 153.165-170.889 220.065-247.983 1.383-1.69 2.971-3.227 4.61-4.815 1.69-1.434 3.432-2.92 5.327-4.252 3.739-2.715 7.889-5.071 12.397-7.172 9.016-4.149 19.466-7.172 30.428-8.913 21.976-3.432 45.642-2.51 60.805 6.967 18.339 11.475 31.965 25.101 43.439 43.542 9.323 15.163 10.245 38.88 6.864 60.856zM102.451 550.605c0 169.608 137.592 307.098 307.354 307.098 169.71 0 307.354-137.541 307.354-307.098s-137.643-307.046-307.354-307.046c-169.762 0-307.354 137.438-307.354 307.046zM563.482 601.421h-102.451v102.451c0 28.277-22.949 51.226-51.226 51.226-28.328 0-51.226-22.949-51.226-51.226v-102.451h-102.451c-28.328 0-51.226-22.898-51.226-51.226 0-28.277 22.898-51.226 51.226-51.226h102.451v-102.451c0-28.328 22.898-51.226 51.226-51.226 28.277 0 51.226 22.898 51.226 51.226v102.451h102.451c28.277 0 51.226 22.949 51.226 51.226 0 28.328-22.949 51.226-51.226 51.226z" />
<glyph unicode="&#xe613;" glyph-name="zoom-out" d="M1022.617 49.209c-1.793 11.014-4.764 21.464-8.913 30.479-2.1 4.559-4.457 8.708-7.172 12.397-1.332 1.895-2.766 3.637-4.252 5.327s-3.125 3.227-4.764 4.662c-128.32 111.416-217.606 192.403-247.778 219.912 44.105 65.261 69.872 143.944 69.872 228.62 0 226.11-183.49 409.395-409.805 409.395s-409.805-183.285-409.805-409.395c0-226.059 183.49-409.395 409.805-409.395 84.727 0 163.461 25.715 228.876 69.769 69.769-79.246 153.165-170.889 220.065-247.983 1.383-1.69 2.971-3.227 4.61-4.815 1.69-1.434 3.432-2.92 5.327-4.252 3.739-2.715 7.889-5.071 12.397-7.172 9.016-4.149 19.466-7.172 30.428-8.913 21.976-3.432 45.642-2.51 60.805 6.967 18.339 11.475 31.965 25.101 43.439 43.542 9.323 15.163 10.245 38.88 6.864 60.856zM102.451 550.605c0 169.608 137.592 307.098 307.354 307.098 169.71 0 307.354-137.541 307.354-307.098s-137.643-307.046-307.354-307.046c-169.762 0-307.354 137.438-307.354 307.046zM563.482 601.421h-307.354c-28.328 0-51.226-22.898-51.226-51.226 0-28.277 22.898-51.226 51.226-51.226h307.354c28.277 0 51.226 22.949 51.226 51.226 0 28.328-22.949 51.226-51.226 51.226z" />
<glyph unicode="&#xe900;" glyph-name="ExtremeHeat" d="M309.51 440.314c-27.511 7.396-47.097 19.079-69.156 41.251-31.702 31.865-45.497 64.787-45.497 108.579 0 52.171 24.56 99.209 66.675 127.697 99.88 67.563 235.132 1.645 242.254-118.064 4.388-73.761-44.406-141.139-115.491-159.478-19.887-5.131-59.672-5.123-78.785 0.016zM393.553 415.281c50.939 13.028 94.529 47.995 116.923 93.793 44.645 91.301 10.759 195.134-78.881 241.705-27.848 14.468-47.909 19.2-81.948 19.331-33.187 0.128-53.020-4.307-80.972-18.105-36.326-17.931-65.853-48.477-84.045-86.945-23.763-50.247-20.498-117.244 8.092-166.020 12.248-20.896 46.77-54.892 67.173-66.15 15.866-8.754 42.513-18.506 57.233-20.945 19.097-3.165 57.579-1.485 76.425 3.335zM328.493 355.571c-22.087 21.628-24.484 22.027-55.001 9.156l-21.365-9.011-3.496 7.060c-1.923 3.883-6.177 13.823-9.454 22.090-8.937 22.544-13.791 25.293-44.67 25.293h-25.664v25.664c0 31.981-2.243 35.374-31.294 47.369-15.64 6.457-20.736 9.728-19.801 12.707 0.691 2.208 4.25 11.036 7.905 19.621s6.673 20.124 6.707 25.642c0.064 8.933-1.936 12.092-18.149 28.814-10.016 10.33-18.211 19.981-18.211 21.449 0 1.469 7.58 9.837 16.844 18.599 23.595 22.316 23.744 23.675 7.102 64.572l-5.449 13.39 22.235 8.649c29.906 11.633 32.111 14.762 32.111 45.568v24.364l22.764 0.032c13.043 0.021 25.54 1.437 29.267 3.314 6.782 3.416 12.42 13.093 19.398 33.294 7.581 21.946 7.524 21.926 32.188 11.519 31.5-13.291 33.662-12.838 59.56 12.47l16.19 15.822 19.303-18.717c10.617-10.294 21.332-18.717 23.811-18.717s14.993 4.196 27.809 9.323c12.816 5.127 23.763 8.861 24.327 8.298s5.597-10.905 11.186-22.981c14.141-30.556 16.359-32.165 45.86-33.253l24.147-0.893 1.066-24.388c1.315-30.047 3.632-33.088 34.697-45.541 12.138-4.865 22.069-9.538 22.069-10.384s-4.098-10.993-9.105-22.549c-12.86-29.675-12.529-31.561 9.545-54.326l18.65-19.234-18.65-19.234c-13.497-13.919-18.651-21.118-18.651-26.053 0-3.75 4.088-16.957 9.085-29.348s8.801-22.709 8.455-22.928c-0.346-0.224-10.282-4.323-22.079-9.12-30.768-12.509-32.778-15.279-34.049-46.923l-1.040-25.899h-23.833c-32.86 0-33.264-0.352-52.088-45.405l-3.826-9.156-21.19 9.070c-30.487 13.049-33.258 12.594-55.674-9.141-10.329-10.016-19.277-18.191-19.884-18.167s-9.452 8.219-19.657 18.211zM708.017 33.99c-36.298 11.821-63.599 45.179-69.572 85.006-2.256 15.053 2.586 41.616 10.725 58.822 8.666 18.32 30.651 38.046 50.446 45.264l15.484 5.646 0.682 314.375c0.678 313.498 0.694 314.39 6.040 319.733 2.947 2.947 9.593 6.045 14.767 6.885 7.804 1.267 10.551 0.384 16.104-5.168l6.695-6.695v-629.098l12.357-4.658c34.603-13.043 58.445-41.427 65.678-78.193 8.228-41.822-16.611-88.738-56.768-107.227-17.924-8.252-54.46-10.612-72.638-4.693zM774.038 0.134c44.286 11.792 81.179 49.533 93.435 95.582 4.334 16.285 4.811 47.964 0.973 64.625-7.326 31.793-31.579 64.894-59.142 80.719l-15.859 9.105-1.536 614.101-6.646 12.913c-16.34 31.748-55.763 39.38-82.438 15.959-5.109-4.486-11.422-12.85-14.028-18.586-4.495-9.895-4.74-26.075-4.795-316.486l-0.064-306.058-12.357-7.953c-14.855-9.56-36.685-31.604-45.477-45.921-14.011-22.816-18.528-39.683-18.463-68.94 0.096-41.576 11.426-67.726 41.988-96.878 25.469-24.294 53.328-35.454 88.942-35.629 12.162-0.064 28.12 1.491 35.463 3.446zM715.989-57.866c-51.986 6.060-101.268 35.609-132.587 79.498-28.937 40.551-40.858 95.172-30.961 141.866 8.238 38.868 24.78 69.064 55.408 101.141l21.462 22.478 0.064 287.203c0.032 184.062 1.008 291.3 2.694 298.611 7.065 30.644 32.404 61.585 61.55 75.156 13.431 6.254 18.099 7.007 43.656 7.046 26.659 0.032 29.782-0.509 45.65-8.028 28.91-13.7 47.385-33.902 57.266-62.621 4.878-14.179 5.048-24.467 5.069-306.285l0.026-291.614 15.171-12.096c50.396-40.182 77.276-115.026 64.303-179.048-8.7-42.936-26.226-74.509-57.651-103.856-40.349-37.682-95.962-55.881-151.115-49.452z" />
<glyph unicode="&#xe901;" glyph-name="Wildfire" d="M469.572 877.452c-2.909 0.015-5.237-0.467-8.421-1.053-69.848-73.862-127.553-158.116-187.359-239.988-40.533-35.39 9.696-25.538 32.63-33.683-31.893-70.107-63.392-140.081-96.837-209.463-38.531-48.833 34.186-21.624 63.155-29.472-18.161-45.775-36.047-91.273-54.734-136.835-8.177-41.254-53.76-87.228-39.998-124.204 88.772-4.894 178.116 8.966 264.198 31.577 16.376-15.053 0.951-71.065 3.158-102.1v-6.315l-1.052-7.368h55.787c17.435 22.857-0.010 81.072 2.105 116.836 51.439-12.415 103.231-24.024 155.782-30.525 54.251-10.314 0.028 11.882-22.104 22.104-92.282 56.051-166.467 148.586-188.412 255.777-19.185 68.712 14.247 135.936 54.734 189.464 43.94 39.688 30.833 102.513 3.158 147.361 12.173 19.378 76.879 0.82 107.363-7.368 6.368 9.69-37.97 53.559-52.629 75.786-31.874 24.532-46.878 89.242-90.522 89.469zM755.873 803.772c-8.69 0.391-9.585-9.848-2.105-29.472 13.812-41.534-19.739-70.334-48.419-93.68-59.686-49.254-105.855-122.052-101.048-202.095-7.527-20.533 21.397-82.431-12.631-67.365-60.698 32.177-53.846 108.783-32.63 163.15-44.254-33.339-76.904-84.91-79.996-141.046-9.372-155.361 114.447-294.018 259.987-332.615 61.487-17.596-24.085 26.826-29.472 45.261-53.606 60.541-28.489 163.657 36.84 204.2-18.462-40.759-2.524-90.805 42.103-109.468 63.501-14.308 72.936-99.965 19.999-133.678 11.198-4.837 86.25 38.893 108.416 71.575 57.385 69.083 100.482 168.704 57.892 255.777-15.959 35.805-67.239 95.483-99.995 84.206 36.867-31.342 35.773-92.989 1.053-125.257-42.327-46.314-105.79 11.159-105.258 61.050-0.375 68.389 49.437 123.401 64.207 188.412 20.235 55.583-6.938 118.903-55.787 149.466-9.548 8.11-17.943 11.344-23.157 11.578zM172.744 724.828c-2.696-1.316-4.304-5.895-3.158-13.684-3.748-56.87-89.072-86.204-74.733-153.677 15.896-53.336-43.059-6.553-30.525 22.104 21.803 46.058-19.266 11.893-25.262-10.526-28.214-78.585 32.445-161.412 104.205-190.517 20.246-11.799 11.889 0.704 0 8.421-50.242 35.478-40.929 116.045 8.421 148.414-17.674-32.51 12.795-74.573 46.314-79.996 30.43 21.638 59.195 73.635 57.892 114.731-38.437 45.815 0.462-48.403-45.261-38.945-64.363 30.681 5.046 87.549 2.105 133.678 10.014 19.546-28.314 65.702-39.998 59.997z" />
<glyph unicode="&#xe902;" glyph-name="Drought" d="M467.236-45.709c-130.029 21.61-228.312 115.238-254.173 242.144-2.697 13.232-4.903 29.094-4.903 35.235v11.171h169.077l6.022-11.347c3.838-7.235 9.964-13.853 16.892-18.246l10.871-6.893h66.542c53.348 0 67.894 0.672 73.358 3.514 8.117 4.208 21.573 19.008 24.669 27.155 2.075 5.462 3.363 5.808 21.123 5.674 22.759 0 33.776-3.622 40.579-12.803 4.347-5.853 5.271-11.379 6.309-37.706l1.216-30.845 93.657-1.28v33.155c0 22.349-1.256 38.016-3.856 48.093-15.453 59.898-65.759 96.442-132.761 96.442h-21.505v9.594c0 11.946-6.451 17.171-21.219 17.171h-10.406v15.318c0 8.678-1.267 16.595-2.919 18.246-1.772 1.76-10.379 2.912-21.894 2.912h-18.975l0.038 31.014c0.019 17.062 0.855 32.301 1.855 33.872 1.691 2.688 50.786 0 93.589-5.274l11.555-1.376v25.622c0 18.861-0.803 25.635-3.041 25.667-1.673 0.022-25.053-1.792-51.956-4.048l-48.915-4.099-8.626 8.624c-14.578 14.579-34.032 14.262-49.583-0.8l-7.964-7.722-50.577 4.051c-27.817 2.24-51.945 4.048-53.618 4.048-2.238-0.016-3.041-6.765-3.041-25.584v-25.565l12.771 1.312c7.024 0.736 31.798 2.88 55.053 4.742l42.282 3.411 4.466-5.354c3.764-4.525 4.479-9.843 4.547-33.933l0.080-28.582h-20.417c-23.494 0-23.37 0-23.37-22.093v-14.394h-11.068c-18.503 0-27.855-7.011-27.855-20.88v-5.882h-77.845c-42.815 0-77.843 0.8-77.841 1.856 0.007 4.797 13.276 55.984 20.973 80.883 35.195 113.866 108.125 262.256 204.201 415.482 18.21 29.040 41.685 65.222 52.168 80.403l19.060 27.6 36.135-54.358c176.869-266.067 275.38-505.216 267.391-649.136-7.702-138.778-103.351-251.382-239.901-282.435-27.22-6.189-81.97-8.058-108.253-3.674z" />
<glyph unicode="&#xe903;" glyph-name="Overview" d="M400 608h352c17.664 0 32-14.336 32-32s-14.336-32-32-32h-352c-17.664 0-32 14.336-32 32s14.336 32 32 32zM304 576c0-17.673-14.327-32-32-32s-32 14.327-32 32c0 17.673 14.327 32 32 32s32-14.327 32-32zM400 480h352c17.664 0 32-14.336 32-32s-14.336-32-32-32h-352c-17.664 0-32 14.336-32 32s14.336 32 32 32zM304 448c0-17.673-14.327-32-32-32s-32 14.327-32 32c0 17.673 14.327 32 32 32s32-14.327 32-32zM400 352h352c17.664 0 32-14.336 32-32s-14.336-32-32-32h-352c-17.664 0-32 14.336-32 32s14.336 32 32 32zM304 320c0-17.673-14.327-32-32-32s-32 14.327-32 32c0 17.673 14.327 32 32 32s32-14.327 32-32z" />
<glyph unicode="&#xf04d;" glyph-name="stop" horiz-adv-x="878" d="M877.714 841.143v-804.571q0-14.857-10.857-25.714t-25.714-10.857h-804.571q-14.857 0-25.714 10.857t-10.857 25.714v804.571q0 14.857 10.857 25.714t25.714 10.857h804.571q14.857 0 25.714-10.857t10.857-25.714z" />
<glyph unicode="&#xf110;" glyph-name="spinner" d="M300.571 154.286q0-30.286-21.429-51.714t-51.714-21.429q-29.714 0-51.429 21.714t-21.714 51.429q0 30.286 21.429 51.714t51.714 21.429 51.714-21.429 21.429-51.714zM585.143 36.571q0-30.286-21.429-51.714t-51.714-21.429-51.714 21.429-21.429 51.714 21.429 51.714 51.714 21.429 51.714-21.429 21.429-51.714zM182.857 438.857q0-30.286-21.429-51.714t-51.714-21.429-51.714 21.429-21.429 51.714 21.429 51.714 51.714 21.429 51.714-21.429 21.429-51.714zM869.714 154.286q0-29.714-21.714-51.429t-51.429-21.714q-30.286 0-51.714 21.429t-21.429 51.714 21.429 51.714 51.714 21.429 51.714-21.429 21.429-51.714zM318.857 723.428q0-37.714-26.857-64.571t-64.571-26.857-64.571 26.857-26.857 64.571 26.857 64.571 64.571 26.857 64.571-26.857 26.857-64.571zM987.429 438.857q0-30.286-21.429-51.714t-51.714-21.429-51.714 21.429-21.429 51.714 21.429 51.714 51.714 21.429 51.714-21.429 21.429-51.714zM621.714 841.143q0-45.714-32-77.714t-77.714-32-77.714 32-32 77.714 32 77.714 77.714 32 77.714-32 32-77.714zM924.571 723.428q0-53.143-37.714-90.571t-90.286-37.429q-53.143 0-90.571 37.429t-37.429 90.571q0 52.571 37.429 90.286t90.571 37.714q52.571 0 90.286-37.714t37.714-90.286z" />
</font>
</defs>
</svg>
